<?xml version="1.0" standalone="no"?>
<!DOCTYPE svg PUBLIC "-//W3C//DTD SVG 1.1//EN" "http://www.w3.org/Graphics/SVG/1.1/DTD/svg11.dtd" >
<svg xmlns="http://www.w3.org/2000/svg" xmlns:xlink="http://www.w3.org/1999/xlink" version="1.1">
<metadata></metadata>
<defs>
<font id="new_elaine0000regular" horiz-adv-x="1024" >
<font-face units-per-em="2048" ascent="1638" descent="-410" />
<missing-glyph horiz-adv-x="500" />
<glyph horiz-adv-x="0" />
<glyph horiz-adv-x="682" />
<glyph unicode=" " />
<glyph unicode="(" d="M62 426l16 68l62 30l62 -30l16 -68l-44 -54h-68zM62 522l16 68l62 30l64 -30l14 -68l-42 -54h-70zM74 328l16 68l62 30l64 -30l14 -68l-42 -54h-70zM76 620l16 68l62 30l62 -30l16 -68l-44 -54h-68zM104 234l16 66l62 30l64 -30l14 -66l-42 -56h-70zM106 714l16 66l62 32 l64 -32l14 -66l-42 -54h-70zM158 148l14 68l64 30l62 -30l14 -68l-42 -54h-70zM160 798l16 68l62 30l62 -30l16 -68l-44 -54h-68zM224 84l16 66l62 32l64 -32l14 -66l-42 -56h-70zM230 868l16 68l62 30l62 -30l16 -68l-42 -54h-70zM282 942l14 66l64 32l62 -32l14 -66 l-42 -56h-70zM282 942l14 66l64 32l62 -32l14 -66l-42 -56h-70zM314 38l14 66l64 30l62 -30l16 -66l-44 -54h-70zM346 942l16 66l62 32l62 -32l16 -66l-44 -56h-68z" />
<glyph unicode=")" d="M602 26l16 68l62 30l64 -30l14 -68l-42 -52h-70zM668 900l16 68l62 30l62 -30l16 -68l-44 -54h-68zM696 64l16 68l62 30l64 -30l14 -68l-42 -54h-70zM750 844l14 68l64 30l62 -30l16 -68l-44 -54h-70zM774 124l16 68l62 30l64 -30l14 -68l-42 -54h-70zM810 774l16 68 l62 30l64 -30l14 -68l-42 -54h-70zM832 202l14 66l64 32l62 -32l16 -66l-44 -54h-70zM858 684l14 68l64 30l62 -30l16 -68l-44 -54h-70zM868 294l16 68l62 30l64 -30l14 -68l-42 -54h-70zM882 586l16 66l62 30l64 -30l14 -66l-42 -56h-70zM888 394l14 68l64 30l62 -30 l16 -68l-44 -54h-70zM890 488l16 68l62 30l64 -30l14 -68l-42 -54h-70z" />
<glyph unicode="+" d="M272 482l14 66l64 32l62 -32l14 -66l-42 -54h-70zM372 482l14 66l64 32l62 -32l14 -66l-42 -54h-70zM472 280l14 66l64 32l62 -32l14 -66l-42 -56h-70zM472 380l14 66l64 32l62 -32l14 -66l-42 -56h-70zM472 482l14 66l64 32l62 -32l14 -66l-42 -54h-70zM472 580l14 66 l64 32l62 -32l14 -66l-42 -56h-70zM472 680l14 66l64 32l62 -32l14 -66l-42 -56h-70zM572 482l14 66l64 32l62 -32l14 -66l-42 -54h-70zM672 482l14 66l64 32l62 -32l14 -66l-42 -54h-70z" />
<glyph unicode="," d="M36 -84l16 66l62 32l62 -32l16 -66l-44 -52h-68zM96 -4l16 68l62 30l62 -30l16 -68l-44 -54h-70zM156 76l14 68l64 30l62 -30l16 -68l-44 -54h-70z" />
<glyph unicode="-" d="M272 482l14 66l64 32l62 -32l14 -66l-42 -54h-70zM372 482l14 66l64 32l62 -32l14 -66l-42 -54h-70zM472 482l14 66l64 32l62 -32l14 -66l-42 -54h-70zM572 482l14 66l64 32l62 -32l14 -66l-42 -54h-70zM672 482l14 66l64 32l62 -32l14 -66l-42 -54h-70z" />
<glyph unicode="." d="M72 50l16 68l62 30l64 -30l14 -68l-42 -54h-70zM116 108l16 66l62 32l62 -32l16 -66l-44 -56h-68zM142 18l14 66l64 32l62 -32l14 -66l-42 -56h-70zM142 18l14 66l64 32l62 -32l14 -66l-42 -56h-70z" />
<glyph unicode="/" d="M52 22l14 66l64 32l62 -32l14 -66l-42 -54h-70zM60 94l16 68l62 30l62 -30l16 -68l-44 -54h-68zM124 172l14 68l64 30l62 -30l16 -68l-44 -54h-70zM186 250l16 68l62 30l62 -30l16 -68l-42 -54h-70zM250 328l16 68l62 30l62 -30l16 -68l-44 -54h-70zM312 406l16 68l62 30 l64 -30l14 -68l-42 -54h-70zM376 484l16 66l62 30l62 -30l16 -66l-44 -56h-68zM440 560l14 68l64 30l62 -30l16 -68l-44 -54h-70zM502 638l16 68l62 30l62 -30l16 -68l-42 -54h-70zM566 716l16 68l62 30l62 -30l16 -68l-44 -54h-70zM628 794l16 68l62 30l64 -30l14 -68 l-42 -54h-70zM658 874l16 68l62 30l62 -30l16 -68l-44 -54h-68zM712 922l14 66l64 32l62 -32l14 -66l-42 -56h-70z" />
<glyph unicode="0" d="M62 426l16 68l62 30l62 -30l16 -68l-44 -54h-68zM62 522l16 68l62 30l64 -30l14 -68l-42 -54h-70zM74 328l16 68l62 30l64 -30l14 -68l-42 -54h-70zM76 620l16 68l62 30l62 -30l16 -68l-44 -54h-68zM104 234l16 66l62 30l64 -30l14 -66l-42 -56h-70zM106 714l16 66l62 32 l64 -32l14 -66l-42 -54h-70zM114 94l16 68l62 30l62 -30l16 -68l-44 -54h-68zM158 148l14 68l64 30l62 -30l14 -68l-42 -54h-70zM160 798l16 68l62 30l62 -30l16 -68l-44 -54h-68zM178 172l14 68l64 30l62 -30l16 -68l-44 -54h-70zM224 84l16 66l62 32l64 -32l14 -66 l-42 -56h-70zM230 868l16 68l62 30l62 -30l16 -68l-42 -54h-70zM240 250l16 68l62 30l62 -30l16 -68l-42 -54h-70zM282 942l14 66l64 32l62 -32l14 -66l-42 -56h-70zM282 942l14 66l64 32l62 -32l14 -66l-42 -56h-70zM304 328l16 68l62 30l62 -30l16 -68l-44 -54h-70z M314 38l14 66l64 30l62 -30l16 -66l-44 -54h-70zM364 942l16 66l62 32l62 -32l16 -66l-44 -56h-68zM366 406l16 68l62 30l64 -30l14 -68l-42 -54h-70zM410 12l16 68l62 30l62 -30l16 -68l-42 -52h-70zM430 484l16 66l62 30l62 -30l16 -66l-44 -56h-68zM444 912l14 66l64 32 l62 -32l14 -66l-42 -56h-70zM494 560l14 68l64 30l62 -30l16 -68l-44 -54h-70zM504 26l16 68l62 30l64 -30l14 -68l-42 -52h-70zM556 638l16 68l62 30l62 -30l16 -68l-42 -54h-70zM570 900l16 68l62 30l62 -30l16 -68l-44 -54h-68zM598 64l16 68l62 30l64 -30l14 -68 l-42 -54h-70zM620 716l16 68l62 30l62 -30l16 -68l-44 -54h-70zM652 844l14 68l64 30l62 -30l16 -68l-44 -54h-70zM676 124l16 68l62 30l64 -30l14 -68l-42 -54h-70zM682 794l16 68l62 30l64 -30l14 -68l-42 -54h-70zM712 774l16 68l62 30l64 -30l14 -68l-42 -54h-70z M712 874l16 68l62 30l62 -30l16 -68l-44 -54h-68zM734 202l14 66l64 32l62 -32l16 -66l-44 -54h-70zM760 684l14 68l64 30l62 -30l16 -68l-44 -54h-70zM770 294l16 68l62 30l64 -30l14 -68l-42 -54h-70zM784 586l16 66l62 30l64 -30l14 -66l-42 -56h-70zM790 394l14 68 l64 30l62 -30l16 -68l-44 -54h-70zM792 488l16 68l62 30l64 -30l14 -68l-42 -54h-70z" />
<glyph unicode="1" d="M-16 532l16 68l62 30l62 -30l16 -68l-44 -54h-68zM48 610l16 66l62 30l64 -30l14 -66l-42 -56h-70zM110 682l16 68l62 30l64 -30l14 -68l-42 -54h-70zM176 760l16 66l62 30l62 -30l16 -66l-44 -56h-70zM240 836l16 68l62 30l64 -30l14 -68l-42 -54h-70zM300 910l14 68 l64 30l62 -30l14 -68l-42 -54h-70zM352 36l14 68l64 30l62 -30l14 -68l-42 -52h-70zM352 136l14 68l64 30l62 -30l14 -68l-42 -54h-70zM352 236l14 68l64 30l62 -30l14 -68l-42 -54h-70zM352 336l14 68l64 30l62 -30l14 -68l-42 -54h-70zM352 436l14 68l64 30l62 -30l14 -68 l-42 -54h-70zM352 536l14 68l64 30l62 -30l14 -68l-42 -54h-70zM352 636l14 68l64 30l62 -30l14 -68l-42 -54h-70zM352 736l14 68l64 30l62 -30l14 -68l-42 -54h-70zM352 836l14 68l64 30l62 -30l14 -68l-42 -54h-70z" />
<glyph unicode="2" d="M52 22l14 66l64 32l62 -32l14 -66l-42 -54h-70zM52 698l16 68l62 30l62 -30l16 -68l-42 -54h-70zM92 62l16 68l62 30l62 -30l16 -68l-44 -54h-68zM92 794l14 66l64 32l62 -32l14 -66l-42 -56h-70zM128 136l16 68l62 30l62 -30l16 -68l-44 -54h-68zM136 22l16 66l62 32 l62 -32l16 -66l-44 -54h-68zM152 854l14 66l64 32l62 -32l14 -66l-42 -56h-70zM202 202l14 66l62 30l64 -30l14 -66l-42 -56h-70zM234 908l16 68l62 30l64 -30l14 -68l-42 -54h-70zM236 22l16 66l62 32l62 -32l16 -66l-44 -54h-68zM266 278l16 68l62 30l62 -30l16 -68 l-44 -54h-68zM330 356l16 66l62 30l64 -30l14 -66l-42 -56h-70zM332 924l14 66l64 32l62 -32l14 -66l-42 -56h-70zM336 22l16 66l62 32l62 -32l16 -66l-44 -54h-68zM392 428l16 68l62 30l64 -30l14 -68l-42 -54h-70zM424 908l16 68l62 30l62 -30l16 -68l-42 -54h-70zM436 22 l16 66l62 32l62 -32l16 -66l-44 -54h-68zM458 506l16 66l62 30l62 -30l16 -66l-44 -56h-70zM512 854l14 66l64 32l62 -32l14 -66l-42 -56h-70zM522 582l16 68l62 30l64 -30l14 -68l-42 -54h-70zM562 32l14 66l64 32l62 -32l14 -66l-42 -54h-70zM566 776l14 68l64 30l62 -30 l16 -68l-44 -54h-70zM582 674l14 66l64 32l62 -32l14 -66l-42 -56h-70z" />
<glyph unicode="3" d="M54 298l16 66l62 32l62 -32l16 -66l-44 -56h-68zM72 712l16 68l62 30l64 -30l14 -68l-42 -54h-70zM76 202l16 68l62 30l62 -30l16 -68l-44 -54h-68zM120 798l16 68l62 30l62 -30l16 -68l-44 -54h-68zM126 118l16 68l62 30l62 -30l16 -68l-44 -54h-68zM186 866l16 68 l62 30l64 -30l14 -68l-42 -54h-70zM200 52l14 68l64 30l62 -30l16 -68l-44 -52h-70zM222 922l14 66l64 32l62 -32l14 -66l-42 -56h-70zM290 18l14 68l64 30l62 -30l16 -68l-44 -52h-70zM328 538l16 66l62 32l64 -32l14 -66l-42 -56h-70zM328 922l16 66l62 32l64 -32l14 -66 l-42 -56h-70zM382 12l16 68l62 30l62 -30l16 -68l-44 -52h-68zM412 534l16 68l62 30l64 -30l14 -68l-42 -54h-70zM412 918l16 68l62 30l64 -30l14 -68l-42 -54h-70zM484 30l16 68l62 30l62 -30l16 -68l-44 -52h-68zM502 518l14 66l64 32l62 -32l14 -66l-42 -56h-70zM502 902 l14 66l64 32l62 -32l14 -66l-42 -56h-70zM568 78l16 68l62 30l64 -30l14 -68l-42 -54h-70zM584 444l16 68l62 30l64 -30l14 -68l-42 -54h-70zM584 828l16 68l62 30l64 -30l14 -68l-42 -54h-70zM632 154l16 68l62 30l62 -30l16 -68l-44 -54h-68zM632 374l16 68l62 30l62 -30 l16 -68l-44 -54h-68zM644 530l14 68l64 30l62 -30l16 -68l-44 -54h-70zM644 750l14 68l64 30l62 -30l16 -68l-44 -54h-70zM668 242l16 68l62 30l64 -30l14 -68l-42 -54h-70zM674 656l16 68l62 30l62 -30l16 -68l-44 -54h-68zM680 330l16 68l62 30l64 -30l14 -68l-42 -54h-70 z" />
<glyph unicode="4" d="M52 264l14 66l64 32l62 -32l14 -66l-42 -54h-70zM92 304l16 68l62 30l62 -30l16 -68l-44 -54h-68zM128 378l16 68l62 30l62 -30l16 -68l-44 -54h-68zM136 264l16 66l62 32l62 -32l16 -66l-44 -54h-68zM202 444l14 66l62 30l64 -30l14 -66l-42 -56h-70zM236 264l16 66 l62 32l62 -32l16 -66l-44 -54h-68zM266 520l16 68l62 30l62 -30l16 -68l-44 -54h-68zM330 598l16 66l62 30l64 -30l14 -66l-42 -56h-70zM336 264l16 66l62 32l62 -32l16 -66l-44 -54h-68zM392 670l16 68l62 30l64 -30l14 -68l-42 -54h-70zM436 264l16 66l62 32l62 -32 l16 -66l-44 -54h-68zM458 748l16 66l62 30l62 -30l16 -66l-44 -56h-70zM522 824l16 68l62 30l64 -30l14 -68l-42 -54h-70zM536 36l14 68l64 30l62 -30l14 -68l-42 -52h-70zM536 136l14 68l64 30l62 -30l14 -68l-42 -54h-70zM536 236l14 68l64 30l62 -30l14 -68l-42 -54h-70z M536 336l14 68l64 30l62 -30l14 -68l-42 -54h-70zM536 436l14 68l64 30l62 -30l14 -68l-42 -54h-70zM536 536l14 68l64 30l62 -30l14 -68l-42 -54h-70zM536 636l14 68l64 30l62 -30l14 -68l-42 -54h-70zM536 736l14 68l64 30l62 -30l14 -68l-42 -54h-70zM582 916l14 66 l64 32l62 -32l14 -66l-42 -56h-70zM626 274l14 66l64 32l62 -32l14 -66l-42 -54h-70z" />
<glyph unicode="5" d="M76 202l16 68l62 30l62 -30l16 -68l-44 -54h-68zM86 902l14 66l64 32l62 -32l14 -66l-42 -56h-70zM126 118l16 68l62 30l62 -30l16 -68l-44 -54h-68zM126 536l14 68l64 30l62 -30l14 -68l-42 -54h-70zM126 636l14 68l64 30l62 -30l14 -68l-42 -54h-70zM126 736l14 68 l64 30l62 -30l14 -68l-42 -54h-70zM126 836l14 68l64 30l62 -30l14 -68l-42 -54h-70zM156 922l14 66l64 32l62 -32l14 -66l-42 -56h-70zM200 52l14 68l64 30l62 -30l16 -68l-44 -52h-70zM238 538l16 66l62 32l64 -32l14 -66l-42 -56h-70zM256 922l14 66l64 32l62 -32l14 -66 l-42 -56h-70zM290 18l14 68l64 30l62 -30l16 -68l-44 -52h-70zM328 538l16 66l62 32l64 -32l14 -66l-42 -56h-70zM356 922l14 66l64 32l62 -32l14 -66l-42 -56h-70zM382 12l16 68l62 30l62 -30l16 -68l-44 -52h-68zM412 534l16 68l62 30l64 -30l14 -68l-42 -54h-70zM456 922 l14 66l64 32l62 -32l14 -66l-42 -56h-70zM484 30l16 68l62 30l62 -30l16 -68l-44 -52h-68zM502 518l14 66l64 32l62 -32l14 -66l-42 -56h-70zM554 922l14 66l64 32l62 -32l14 -66l-42 -56h-70zM568 78l16 68l62 30l64 -30l14 -68l-42 -54h-70zM584 480l16 68l62 30l64 -30 l14 -68l-42 -54h-70zM632 154l16 68l62 30l62 -30l16 -68l-44 -54h-68zM632 410l16 68l62 30l62 -30l16 -68l-44 -54h-68zM668 242l16 68l62 30l64 -30l14 -68l-42 -54h-70zM680 340l16 68l62 30l64 -30l14 -68l-42 -54h-70z" />
<glyph unicode="6" d="M52 394l16 68l62 30l64 -30l14 -68l-42 -54h-70zM54 298l16 66l62 32l62 -32l16 -66l-44 -56h-68zM72 492l16 68l62 30l64 -30l14 -68l-42 -54h-70zM76 202l16 68l62 30l62 -30l16 -68l-44 -54h-68zM112 638l16 68l62 30l62 -30l16 -68l-42 -54h-70zM120 578l16 68l62 30 l62 -30l16 -68l-44 -54h-68zM126 118l16 68l62 30l62 -30l16 -68l-44 -54h-68zM158 716l16 68l62 30l62 -30l16 -68l-44 -54h-70zM186 646l16 68l62 30l64 -30l14 -68l-42 -54h-70zM200 52l14 68l64 30l62 -30l16 -68l-44 -52h-70zM216 794l16 68l62 30l64 -30l14 -68 l-42 -54h-70zM268 874l16 68l62 30l62 -30l16 -68l-44 -54h-68zM290 18l14 68l64 30l62 -30l16 -68l-44 -52h-70zM322 922l14 66l64 32l62 -32l14 -66l-42 -56h-70zM328 702l16 66l62 32l64 -32l14 -66l-42 -56h-70zM382 12l16 68l62 30l62 -30l16 -68l-44 -52h-68zM412 698 l16 68l62 30l64 -30l14 -68l-42 -54h-70zM484 30l16 68l62 30l62 -30l16 -68l-44 -52h-68zM502 682l14 66l64 32l62 -32l14 -66l-42 -56h-70zM568 78l16 68l62 30l64 -30l14 -68l-42 -54h-70zM584 608l16 68l62 30l64 -30l14 -68l-42 -54h-70zM632 154l16 68l62 30l62 -30 l16 -68l-44 -54h-68zM644 530l14 68l64 30l62 -30l16 -68l-44 -54h-70zM668 242l16 68l62 30l64 -30l14 -68l-42 -54h-70zM674 436l16 68l62 30l62 -30l16 -68l-44 -54h-68zM680 340l16 68l62 30l64 -30l14 -68l-42 -54h-70z" />
<glyph unicode="7" d="M14 922l14 66l64 32l62 -32l14 -66l-42 -56h-70zM52 22l14 66l64 32l62 -32l14 -66l-42 -54h-70zM60 94l16 68l62 30l62 -30l16 -68l-44 -54h-68zM112 922l14 66l64 32l62 -32l14 -66l-42 -56h-70zM124 172l14 68l64 30l62 -30l16 -68l-44 -54h-70zM186 250l16 68l62 30 l62 -30l16 -68l-42 -54h-70zM212 922l14 66l64 32l62 -32l14 -66l-42 -56h-70zM250 328l16 68l62 30l62 -30l16 -68l-44 -54h-70zM312 406l16 68l62 30l64 -30l14 -68l-42 -54h-70zM312 922l14 66l64 32l62 -32l14 -66l-42 -56h-70zM376 484l16 66l62 30l62 -30l16 -66 l-44 -56h-68zM412 922l14 66l64 32l62 -32l14 -66l-42 -56h-70zM440 560l14 68l64 30l62 -30l16 -68l-44 -54h-70zM502 638l16 68l62 30l62 -30l16 -68l-42 -54h-70zM512 922l14 66l64 32l62 -32l14 -66l-42 -56h-70zM566 716l16 68l62 30l62 -30l16 -68l-44 -54h-70z M612 922l14 66l64 32l62 -32l14 -66l-42 -56h-70zM628 794l16 68l62 30l64 -30l14 -68l-42 -54h-70zM658 874l16 68l62 30l62 -30l16 -68l-44 -54h-68zM712 922l14 66l64 32l62 -32l14 -66l-42 -56h-70z" />
<glyph unicode="8" d="M52 394l16 68l62 30l64 -30l14 -68l-42 -54h-70zM52 612l16 68l62 30l64 -30l14 -68l-42 -54h-70zM54 298l16 66l62 32l62 -32l16 -66l-44 -56h-68zM72 710l16 68l62 30l64 -30l14 -68l-42 -54h-70zM76 202l16 68l62 30l62 -30l16 -68l-44 -54h-68zM82 492l16 68l62 30 l64 -30l14 -68l-42 -54h-70zM120 578l16 68l62 30l62 -30l16 -68l-44 -54h-68zM120 796l16 68l62 30l62 -30l16 -68l-44 -54h-68zM126 118l16 68l62 30l62 -30l16 -68l-44 -54h-68zM126 434l16 68l62 30l62 -30l16 -68l-44 -54h-68zM186 864l16 68l62 30l64 -30l14 -68 l-42 -54h-70zM200 52l14 68l64 30l62 -30l16 -68l-44 -52h-70zM200 368l14 68l64 30l62 -30l16 -68l-44 -52h-70zM222 602l14 66l64 32l62 -32l14 -66l-42 -56h-70zM222 920l14 66l64 32l62 -32l14 -66l-42 -56h-70zM290 18l14 68l64 30l62 -30l16 -68l-44 -52h-70zM290 334 l14 68l64 30l62 -30l16 -68l-44 -52h-70zM328 602l16 66l62 32l64 -32l14 -66l-42 -56h-70zM328 920l16 66l62 32l64 -32l14 -66l-42 -56h-70zM382 12l16 68l62 30l62 -30l16 -68l-44 -52h-68zM382 328l16 68l62 30l62 -30l16 -68l-44 -52h-68zM412 598l16 68l62 30l64 -30 l14 -68l-42 -54h-70zM412 916l16 68l62 30l64 -30l14 -68l-42 -54h-70zM484 30l16 68l62 30l62 -30l16 -68l-44 -52h-68zM484 346l16 68l62 30l62 -30l16 -68l-44 -52h-68zM502 582l14 66l64 32l62 -32l14 -66l-42 -56h-70zM502 900l14 66l64 32l62 -32l14 -66l-42 -56h-70z M568 78l16 68l62 30l64 -30l14 -68l-42 -54h-70zM568 394l16 68l62 30l64 -30l14 -68l-42 -54h-70zM584 532l16 68l62 30l64 -30l14 -68l-42 -54h-70zM584 826l16 68l62 30l64 -30l14 -68l-42 -54h-70zM632 154l16 68l62 30l62 -30l16 -68l-44 -54h-68zM644 748l14 68l64 30 l62 -30l16 -68l-44 -54h-70zM654 444l16 68l62 30l64 -30l14 -68l-42 -54h-70zM658 554l14 68l64 30l62 -30l16 -68l-44 -54h-70zM668 242l16 68l62 30l64 -30l14 -68l-42 -54h-70zM674 654l16 68l62 30l62 -30l16 -68l-44 -54h-68zM680 340l16 68l62 30l64 -30l14 -68 l-42 -54h-70z" />
<glyph unicode="9" d="M52 604l16 68l62 30l64 -30l14 -68l-42 -54h-70zM54 508l16 66l62 32l62 -32l16 -66l-44 -56h-68zM72 702l16 68l62 30l64 -30l14 -68l-42 -54h-70zM76 412l16 68l62 30l62 -30l16 -68l-44 -54h-68zM120 788l16 68l62 30l62 -30l16 -68l-44 -54h-68zM126 328l16 68l62 30 l62 -30l16 -68l-44 -54h-68zM186 856l16 68l62 30l64 -30l14 -68l-42 -54h-70zM200 262l14 68l64 30l62 -30l16 -68l-44 -52h-70zM268 926l16 66l62 32l64 -32l14 -66l-42 -56h-70zM290 228l14 68l64 30l62 -30l16 -68l-44 -52h-70zM328 912l16 66l62 32l64 -32l14 -66 l-42 -56h-70zM382 222l16 68l62 30l62 -30l16 -68l-44 -52h-68zM388 -4l16 68l62 30l62 -30l16 -68l-42 -54h-70zM412 908l16 68l62 30l64 -30l14 -68l-42 -54h-70zM434 74l16 68l62 30l62 -30l16 -68l-44 -54h-70zM484 240l16 68l62 30l62 -30l16 -68l-44 -52h-68zM492 152 l16 68l62 30l64 -30l14 -68l-42 -54h-70zM502 892l14 66l64 32l62 -32l14 -66l-42 -56h-70zM544 232l16 68l62 30l62 -30l16 -68l-44 -54h-68zM584 818l16 68l62 30l64 -30l14 -68l-42 -54h-70zM598 280l14 66l64 32l62 -32l14 -66l-42 -56h-70zM632 364l16 68l62 30l62 -30 l16 -68l-44 -54h-68zM644 740l14 68l64 30l62 -30l16 -68l-44 -54h-70zM668 452l16 68l62 30l64 -30l14 -68l-42 -54h-70zM674 646l16 68l62 30l62 -30l16 -68l-44 -54h-68zM680 550l16 68l62 30l64 -30l14 -68l-42 -54h-70z" />
<glyph unicode=":" d="M72 104l16 68l62 30l64 -30l14 -68l-42 -54h-70zM72 578l16 68l62 30l64 -30l14 -68l-42 -54h-70zM116 162l16 66l62 32l62 -32l16 -66l-44 -56h-68zM116 636l16 66l62 32l62 -32l16 -66l-44 -56h-68zM142 72l14 66l64 32l62 -32l14 -66l-42 -56h-70zM142 72l14 66l64 32 l62 -32l14 -66l-42 -56h-70zM142 546l14 66l64 32l62 -32l14 -66l-42 -56h-70zM142 546l14 66l64 32l62 -32l14 -66l-42 -56h-70z" />
<glyph unicode=";" d="M36 -84l16 66l62 32l62 -32l16 -66l-44 -52h-68zM72 578l16 68l62 30l64 -30l14 -68l-42 -54h-70zM96 -4l16 68l62 30l62 -30l16 -68l-44 -54h-70zM116 636l16 66l62 32l62 -32l16 -66l-44 -56h-68zM142 546l14 66l64 32l62 -32l14 -66l-42 -56h-70zM142 546l14 66l64 32 l62 -32l14 -66l-42 -56h-70zM156 76l14 68l64 30l62 -30l16 -68l-44 -54h-70z" />
<glyph unicode="A" d="M52 26l16 68l62 30l64 -30l14 -68l-42 -52h-70zM86 120l16 68l62 30l64 -30l14 -68l-42 -54h-70zM118 210l16 68l62 30l64 -30l14 -68l-42 -54h-70zM168 288l16 68l62 30l62 -30l16 -68l-44 -54h-70zM186 356l16 68l62 30l62 -30l16 -68l-42 -54h-70zM216 448l16 68 l62 30l62 -30l16 -68l-44 -54h-70zM250 542l16 68l62 30l64 -30l14 -68l-42 -54h-70zM262 292l14 66l64 32l62 -32l14 -66l-42 -56h-70zM284 632l16 68l62 30l62 -30l16 -68l-44 -54h-68zM320 726l14 68l64 30l62 -30l16 -68l-44 -54h-70zM348 818l16 68l62 30l62 -30 l16 -68l-44 -54h-70zM362 292l14 66l64 32l62 -32l14 -66l-42 -56h-70zM368 912l14 68l64 30l62 -30l16 -68l-44 -54h-70zM452 872l14 66l64 30l62 -30l14 -66l-42 -56h-70zM462 292l14 66l64 32l62 -32l14 -66l-42 -56h-70zM486 774l14 68l64 30l62 -30l16 -68l-44 -54h-70 zM516 688l16 68l62 30l64 -30l14 -68l-42 -54h-70zM552 594l16 68l62 30l62 -30l16 -68l-44 -54h-68zM562 292l14 66l64 32l62 -32l14 -66l-42 -56h-70zM588 500l14 68l64 30l62 -30l16 -68l-44 -54h-70zM622 404l16 68l62 30l62 -30l16 -68l-44 -54h-68zM626 336l16 68 l62 30l62 -30l16 -68l-44 -54h-68zM654 288l16 68l62 30l62 -30l16 -68l-42 -54h-70zM704 210l14 68l64 30l62 -30l16 -68l-44 -54h-70zM738 116l14 68l64 30l62 -30l16 -68l-44 -54h-70zM772 22l14 66l64 32l62 -32l14 -66l-42 -54h-70zM772 22l14 66l64 32l62 -32l14 -66 l-42 -54h-70z" />
<glyph unicode="B" d="M94 490l14 66l64 32l62 -32l14 -66l-42 -56h-70zM122 82l14 66l64 32l62 -32l14 -66l-42 -56h-70zM122 182l14 66l64 32l62 -32l14 -66l-42 -56h-70zM122 282l14 66l64 32l62 -32l14 -66l-42 -56h-70zM122 382l14 66l64 32l62 -32l14 -66l-42 -56h-70zM122 582l14 66 l64 32l62 -32l14 -66l-42 -56h-70zM122 682l14 66l64 32l62 -32l14 -66l-42 -56h-70zM122 782l14 66l64 32l62 -32l14 -66l-42 -56h-70zM122 882l14 66l64 32l62 -32l14 -66l-42 -56h-70zM156 22l16 66l62 32l62 -32l16 -66l-44 -54h-68zM174 496l16 68l62 30l64 -30l14 -68 l-42 -54h-70zM176 922l16 66l62 32l62 -32l16 -66l-44 -56h-68zM184 460l16 68l62 30l64 -30l14 -68l-42 -54h-70zM256 22l16 66l62 32l62 -32l16 -66l-44 -54h-68zM276 922l16 66l62 32l62 -32l16 -66l-44 -56h-68zM302 492l14 66l64 32l62 -32l14 -66l-42 -56h-70zM356 22 l16 66l62 32l62 -32l16 -66l-44 -54h-68zM376 922l16 66l62 32l62 -32l16 -66l-44 -56h-68zM402 492l14 66l64 32l62 -32l14 -66l-42 -56h-70zM448 22l16 68l62 30l64 -30l14 -68l-42 -52h-70zM474 920l14 68l64 30l62 -30l16 -68l-44 -54h-70zM496 496l16 68l62 30l64 -30 l14 -68l-42 -54h-70zM550 34l16 66l62 32l62 -32l16 -66l-44 -54h-68zM562 482l14 66l64 32l62 -32l14 -66l-42 -56h-70zM570 904l16 68l62 30l62 -30l16 -68l-44 -54h-68zM592 432l14 66l64 32l62 -32l14 -66l-42 -56h-70zM620 528l16 68l62 30l62 -30l16 -68l-44 -54h-68z M642 70l14 68l64 30l62 -30l16 -68l-44 -54h-70zM654 858l16 68l62 30l64 -30l14 -68l-42 -54h-70zM684 392l16 68l62 30l64 -30l14 -68l-42 -54h-70zM694 586l16 68l62 30l62 -30l16 -68l-44 -54h-70zM708 776l16 68l62 30l62 -30l16 -68l-42 -54h-70zM712 130l16 68l62 30 l62 -30l16 -68l-44 -54h-68zM720 680l16 68l62 30l64 -30l14 -68l-42 -54h-70zM738 318l16 68l62 30l64 -30l14 -68l-42 -54h-70zM750 222l14 68l64 30l62 -30l16 -68l-44 -54h-70z" />
<glyph unicode="C" d="M54 794l16 68l62 30l64 -30l14 -68l-42 -54h-70zM62 442l14 68l64 30l62 -30l16 -68l-44 -54h-70zM64 538l16 68l62 30l62 -30l16 -68l-44 -54h-68zM72 342l16 68l62 30l62 -30l16 -68l-44 -54h-68zM80 634l14 68l64 30l62 -30l16 -68l-44 -54h-70zM100 246l16 68l62 30 l62 -30l16 -68l-44 -54h-70zM114 730l16 68l62 30l64 -30l14 -68l-42 -54h-70zM150 158l14 68l64 30l62 -30l16 -68l-44 -54h-70zM172 812l14 66l64 30l62 -30l14 -66l-42 -56h-70zM202 712l16 68l62 30l64 -30l14 -68l-42 -54h-70zM214 92l16 68l62 30l62 -30l16 -68 l-44 -54h-70zM242 876l16 68l62 30l62 -30l16 -68l-44 -54h-68zM300 42l14 68l64 30l62 -30l16 -68l-44 -52h-70zM330 920l16 68l62 30l64 -30l14 -68l-42 -54h-70zM396 18l16 66l62 30l64 -30l14 -66l-42 -54h-70zM430 940l16 68l62 30l62 -30l16 -68l-44 -54h-68zM492 12 l14 66l64 32l62 -32l16 -66l-44 -52h-70zM524 938l14 68l64 30l62 -30l16 -68l-44 -54h-70zM588 24l16 68l62 30l64 -30l14 -68l-42 -52h-70zM622 918l14 68l64 30l62 -30l16 -68l-44 -54h-70zM684 62l16 68l62 30l62 -30l16 -68l-44 -54h-68zM708 876l14 66l64 30l62 -30 l16 -66l-44 -56h-70zM760 122l14 68l64 30l62 -30l16 -68l-44 -54h-70zM778 806l16 66l62 32l62 -32l16 -66l-42 -54h-70zM812 206l14 68l64 30l62 -30l14 -68l-42 -54h-70z" />
<glyph unicode="D" d="M122 72l14 66l64 32l62 -32l14 -66l-42 -56h-70zM122 172l14 66l64 32l62 -32l14 -66l-42 -56h-70zM122 272l14 66l64 32l62 -32l14 -66l-42 -56h-70zM122 372l14 66l64 32l62 -32l14 -66l-42 -56h-70zM122 472l14 66l64 32l62 -32l14 -66l-42 -56h-70zM122 572l14 66 l64 32l62 -32l14 -66l-42 -56h-70zM122 672l14 66l64 32l62 -32l14 -66l-42 -56h-70zM122 772l14 66l64 32l62 -32l14 -66l-42 -56h-70zM122 872l14 66l64 32l62 -32l14 -66l-42 -56h-70zM166 22l16 66l62 32l62 -32l16 -66l-44 -54h-68zM166 922l16 66l62 32l62 -32l16 -66 l-44 -56h-68zM266 22l16 66l62 32l62 -32l16 -66l-44 -54h-68zM266 922l16 66l62 32l62 -32l16 -66l-44 -56h-68zM366 22l16 66l62 32l62 -32l16 -66l-44 -54h-68zM366 922l16 66l62 32l62 -32l16 -66l-44 -56h-68zM402 922l14 66l64 32l62 -32l14 -66l-42 -56h-70zM402 922 l14 66l64 32l62 -32l14 -66l-42 -56h-70zM456 24l14 68l64 30l62 -30l16 -68l-44 -52h-70zM502 914l16 68l62 30l62 -30l16 -68l-44 -54h-70zM554 40l16 68l62 30l64 -30l14 -68l-42 -52h-70zM600 888l14 66l64 30l62 -30l16 -66l-44 -56h-70zM648 78l16 68l62 30l64 -30 l14 -68l-42 -54h-70zM686 840l16 66l62 30l64 -30l14 -66l-42 -56h-70zM728 138l16 68l62 30l62 -30l16 -68l-44 -54h-68zM758 774l16 68l62 30l62 -30l16 -68l-44 -54h-68zM790 214l16 68l62 30l62 -30l16 -68l-42 -54h-70zM810 690l16 66l62 30l64 -30l14 -66l-42 -56h-70 zM830 306l16 68l62 30l62 -30l16 -68l-44 -54h-68zM840 594l16 68l62 30l62 -30l16 -68l-44 -54h-68zM848 400l14 66l64 30l62 -30l16 -66l-44 -56h-70zM850 494l16 68l62 30l64 -30l14 -68l-42 -54h-70z" />
<glyph unicode="E" d="M122 122l14 66l64 32l62 -32l14 -66l-42 -56h-70zM122 222l14 66l64 32l62 -32l14 -66l-42 -56h-70zM122 322l14 66l64 32l62 -32l14 -66l-42 -56h-70zM122 422l14 66l64 32l62 -32l14 -66l-42 -56h-70zM122 522l14 66l64 32l62 -32l14 -66l-42 -56h-70zM122 622l14 66 l64 32l62 -32l14 -66l-42 -56h-70zM122 722l14 66l64 32l62 -32l14 -66l-42 -56h-70zM122 822l14 66l64 32l62 -32l14 -66l-42 -56h-70zM122 922l14 66l64 32l62 -32l14 -66l-42 -56h-70zM152 22l14 66l64 32l62 -32l14 -66l-42 -54h-70zM222 922l14 66l64 32l62 -32l14 -66 l-42 -56h-70zM226 492l16 66l62 32l62 -32l16 -66l-44 -56h-68zM252 22l14 66l64 32l62 -32l14 -66l-42 -54h-70zM322 922l14 66l64 32l62 -32l14 -66l-42 -56h-70zM326 492l16 66l62 32l62 -32l16 -66l-44 -56h-68zM352 22l14 66l64 32l62 -32l14 -66l-42 -54h-70zM422 922 l14 66l64 32l62 -32l14 -66l-42 -56h-70zM426 492l16 66l62 32l62 -32l16 -66l-44 -56h-68zM452 22l14 66l64 32l62 -32l14 -66l-42 -54h-70zM522 922l14 66l64 32l62 -32l14 -66l-42 -56h-70zM526 492l16 66l62 32l62 -32l16 -66l-44 -56h-68zM552 22l14 66l64 32l62 -32 l14 -66l-42 -54h-70zM602 472l14 66l64 32l62 -32l14 -66l-42 -56h-70zM622 922l14 66l64 32l62 -32l14 -66l-42 -56h-70zM652 22l14 66l64 32l62 -32l14 -66l-42 -54h-70zM722 922l14 66l64 32l62 -32l14 -66l-42 -56h-70zM752 22l14 66l64 32l62 -32l14 -66l-42 -54h-70z " />
<glyph unicode="F" d="M122 26l14 68l64 30l62 -30l14 -68l-42 -52h-70zM122 126l14 68l64 30l62 -30l14 -68l-42 -54h-70zM122 226l14 68l64 30l62 -30l14 -68l-42 -54h-70zM122 326l14 68l64 30l62 -30l14 -68l-42 -54h-70zM122 426l14 68l64 30l62 -30l14 -68l-42 -54h-70zM122 526l14 68 l64 30l62 -30l14 -68l-42 -54h-70zM122 626l14 68l64 30l62 -30l14 -68l-42 -54h-70zM122 726l14 68l64 30l62 -30l14 -68l-42 -54h-70zM122 826l14 68l64 30l62 -30l14 -68l-42 -54h-70zM122 922l14 66l64 32l62 -32l14 -66l-42 -56h-70zM180 494l16 68l62 30l62 -30 l16 -68l-44 -54h-68zM222 922l14 66l64 32l62 -32l14 -66l-42 -56h-70zM272 492l14 66l64 32l62 -32l14 -66l-42 -56h-70zM322 922l14 66l64 32l62 -32l14 -66l-42 -56h-70zM372 492l14 66l64 32l62 -32l14 -66l-42 -56h-70zM422 922l14 66l64 32l62 -32l14 -66l-42 -56h-70 zM472 492l14 66l64 32l62 -32l14 -66l-42 -56h-70zM522 922l14 66l64 32l62 -32l14 -66l-42 -56h-70zM572 492l14 66l64 32l62 -32l14 -66l-42 -56h-70zM622 922l14 66l64 32l62 -32l14 -66l-42 -56h-70zM722 922l14 66l64 32l62 -32l14 -66l-42 -56h-70z" />
<glyph unicode="G" d="M62 460l14 68l64 30l62 -30l16 -68l-44 -54h-70zM66 556l16 66l62 30l62 -30l16 -66l-44 -56h-68zM68 362l16 68l62 30l64 -30l14 -68l-42 -54h-70zM88 654l16 68l62 30l64 -30l14 -68l-42 -54h-70zM94 262l14 68l64 30l62 -30l16 -68l-44 -54h-70zM130 742l14 68l64 30 l62 -30l16 -68l-44 -54h-70zM136 176l16 66l62 30l64 -30l14 -66l-42 -56h-70zM188 818l16 68l62 30l62 -30l16 -68l-44 -54h-70zM200 104l16 66l62 30l62 -30l16 -66l-44 -56h-68zM264 880l16 68l62 30l62 -30l16 -68l-44 -54h-70zM282 50l16 68l62 30l62 -30l16 -68 l-42 -52h-70zM356 922l14 68l64 30l62 -30l16 -68l-44 -54h-70zM376 20l16 68l62 30l64 -30l14 -68l-42 -52h-70zM456 940l14 68l64 30l62 -30l16 -68l-44 -54h-70zM476 12l14 66l64 32l62 -32l16 -66l-44 -54h-70zM502 416l14 68l64 30l62 -30l14 -68l-42 -54h-70zM548 938 l14 68l64 30l62 -30l16 -68l-44 -54h-70zM570 20l16 66l62 32l64 -32l14 -66l-42 -54h-70zM582 432l14 66l64 32l62 -32l14 -66l-42 -56h-70zM646 918l14 68l64 30l62 -30l16 -68l-44 -54h-70zM666 54l14 68l64 30l62 -30l16 -68l-44 -54h-70zM682 432l14 66l64 32l62 -32 l14 -66l-42 -56h-70zM728 874l16 66l62 30l64 -30l14 -66l-42 -56h-70zM742 122l14 66l64 32l62 -32l14 -66l-42 -56h-70zM782 432l14 66l64 32l62 -32l14 -66l-42 -56h-70zM796 798l16 68l62 30l62 -30l16 -68l-44 -54h-68zM830 120l16 68l62 30l62 -30l16 -68l-44 -54h-68 zM832 26l14 68l64 30l62 -30l14 -68l-42 -52h-70zM842 196l14 68l64 30l62 -30l14 -68l-42 -54h-70zM842 296l14 68l64 30l62 -30l14 -68l-42 -54h-70zM842 396l14 68l64 30l62 -30l14 -68l-42 -54h-70z" />
<glyph unicode="H" d="M152 22l14 66l64 32l62 -32l14 -66l-42 -54h-70zM152 116l14 68l64 30l62 -30l14 -68l-42 -54h-70zM152 216l14 68l64 30l62 -30l14 -68l-42 -54h-70zM152 316l14 68l64 30l62 -30l14 -68l-42 -54h-70zM152 416l14 68l64 30l62 -30l14 -68l-42 -54h-70zM152 596l14 68 l64 30l62 -30l14 -68l-42 -54h-70zM152 696l14 68l64 30l62 -30l14 -68l-42 -54h-70zM152 796l14 68l64 30l62 -30l14 -68l-42 -54h-70zM152 896l14 68l64 30l62 -30l14 -68l-42 -54h-70zM162 504l16 68l62 30l62 -30l16 -68l-44 -54h-68zM252 492l14 66l64 32l62 -32 l14 -66l-42 -56h-70zM352 492l14 66l64 32l62 -32l14 -66l-42 -56h-70zM452 492l14 66l64 32l62 -32l14 -66l-42 -56h-70zM552 492l14 66l64 32l62 -32l14 -66l-42 -56h-70zM652 492l14 66l64 32l62 -32l14 -66l-42 -56h-70zM776 444l14 68l64 30l62 -30l16 -68l-44 -54h-70 zM782 46l14 68l64 30l62 -30l14 -68l-42 -52h-70zM782 146l14 68l64 30l62 -30l14 -68l-42 -54h-70zM782 246l14 68l64 30l62 -30l14 -68l-42 -54h-70zM782 346l14 68l64 30l62 -30l14 -68l-42 -54h-70zM782 566l14 68l64 30l62 -30l14 -68l-42 -54h-70zM782 666l14 68 l64 30l62 -30l14 -68l-42 -54h-70zM782 766l14 68l64 30l62 -30l14 -68l-42 -54h-70zM782 866l14 68l64 30l62 -30l14 -68l-42 -54h-70zM782 922l14 66l64 32l62 -32l14 -66l-42 -56h-70z" />
<glyph unicode="I" d="M152 22l14 66l64 32l62 -32l14 -66l-42 -54h-70zM152 122l14 66l64 32l62 -32l14 -66l-42 -56h-70zM152 222l14 66l64 32l62 -32l14 -66l-42 -56h-70zM152 322l14 66l64 32l62 -32l14 -66l-42 -56h-70zM152 422l14 66l64 32l62 -32l14 -66l-42 -56h-70zM152 522l14 66 l64 32l62 -32l14 -66l-42 -56h-70zM152 622l14 66l64 32l62 -32l14 -66l-42 -56h-70zM152 722l14 66l64 32l62 -32l14 -66l-42 -56h-70zM152 822l14 66l64 32l62 -32l14 -66l-42 -56h-70zM152 922l14 66l64 32l62 -32l14 -66l-42 -56h-70z" />
<glyph unicode="J" d="M20 240l16 68l62 30l62 -30l16 -68l-44 -54h-70zM36 140l16 68l62 30l62 -30l16 -68l-44 -54h-68zM90 62l16 68l62 30l62 -30l16 -68l-42 -54h-70zM182 22l14 66l64 30l62 -30l16 -66l-44 -54h-70zM282 12l14 66l64 32l62 -32l14 -66l-42 -54h-70zM374 22l14 68l64 30 l62 -30l16 -68l-44 -52h-70zM466 62l16 68l62 30l62 -30l16 -68l-44 -54h-68zM528 134l16 66l62 32l62 -32l16 -66l-44 -54h-68zM562 226l16 66l62 30l62 -30l16 -66l-42 -56h-70zM572 316l14 68l64 30l62 -30l14 -68l-42 -54h-70zM572 416l14 68l64 30l62 -30l14 -68 l-42 -54h-70zM572 516l14 68l64 30l62 -30l14 -68l-42 -54h-70zM572 616l14 68l64 30l62 -30l14 -68l-42 -54h-70zM572 716l14 68l64 30l62 -30l14 -68l-42 -54h-70zM572 816l14 68l64 30l62 -30l14 -68l-42 -54h-70zM572 922l14 66l64 32l62 -32l14 -66l-42 -56h-70z" />
<glyph unicode="K" d="M122 36l14 68l64 30l62 -30l14 -68l-42 -52h-70zM122 136l14 68l64 30l62 -30l14 -68l-42 -54h-70zM122 236l14 68l64 30l62 -30l14 -68l-42 -54h-70zM122 336l14 68l64 30l62 -30l14 -68l-42 -54h-70zM122 436l14 68l64 30l62 -30l14 -68l-42 -54h-70zM122 536l14 68 l64 30l62 -30l14 -68l-42 -54h-70zM122 636l14 68l64 30l62 -30l14 -68l-42 -54h-70zM122 736l14 68l64 30l62 -30l14 -68l-42 -54h-70zM122 836l14 68l64 30l62 -30l14 -68l-42 -54h-70zM132 922l14 66l64 32l62 -32l14 -66l-42 -56h-70zM192 344l16 66l62 32l62 -32 l16 -66l-44 -56h-68zM262 416l14 68l64 30l62 -30l16 -68l-44 -54h-70zM328 486l14 68l64 30l62 -30l16 -68l-44 -54h-70zM422 542l14 66l64 32l62 -32l14 -66l-42 -56h-70zM446 606l14 68l64 30l62 -30l16 -68l-44 -54h-70zM456 434l16 68l62 30l64 -30l14 -68l-42 -54h-70 zM514 352l14 68l64 30l62 -30l16 -68l-44 -54h-70zM516 678l14 68l64 30l62 -30l16 -68l-44 -54h-70zM570 270l16 68l62 30l62 -30l16 -68l-42 -54h-70zM586 750l16 68l62 30l62 -30l16 -68l-44 -54h-68zM628 186l14 68l64 30l62 -30l16 -68l-44 -54h-70zM656 824l16 66 l62 32l62 -32l16 -66l-44 -54h-68zM684 104l16 68l62 30l62 -30l16 -68l-44 -54h-68zM722 892l16 68l62 30l64 -30l14 -68l-42 -54h-70zM742 22l14 66l64 32l62 -32l14 -66l-42 -54h-70z" />
<glyph unicode="L" d="M152 112l14 66l64 32l62 -32l14 -66l-42 -56h-70zM152 212l14 66l64 32l62 -32l14 -66l-42 -56h-70zM152 312l14 66l64 32l62 -32l14 -66l-42 -56h-70zM152 412l14 66l64 32l62 -32l14 -66l-42 -56h-70zM152 512l14 66l64 32l62 -32l14 -66l-42 -56h-70zM152 612l14 66 l64 32l62 -32l14 -66l-42 -56h-70zM152 712l14 66l64 32l62 -32l14 -66l-42 -56h-70zM152 812l14 66l64 32l62 -32l14 -66l-42 -56h-70zM152 912l14 66l64 32l62 -32l14 -66l-42 -56h-70zM172 22l14 66l64 32l62 -32l14 -66l-42 -54h-70zM272 12l14 66l64 32l62 -32l14 -66 l-42 -54h-70zM372 12l14 66l64 32l62 -32l14 -66l-42 -54h-70zM472 12l14 66l64 32l62 -32l14 -66l-42 -54h-70zM572 12l14 66l64 32l62 -32l14 -66l-42 -54h-70zM672 12l14 66l64 32l62 -32l14 -66l-42 -54h-70z" />
<glyph unicode="M" d="M122 26l14 68l64 30l62 -30l14 -68l-42 -52h-70zM122 126l14 68l64 30l62 -30l14 -68l-42 -54h-70zM122 226l14 68l64 30l62 -30l14 -68l-42 -54h-70zM122 326l14 68l64 30l62 -30l14 -68l-42 -54h-70zM122 426l14 68l64 30l62 -30l14 -68l-42 -54h-70zM122 526l14 68 l64 30l62 -30l14 -68l-42 -54h-70zM122 626l14 68l64 30l62 -30l14 -68l-42 -54h-70zM122 726l14 68l64 30l62 -30l14 -68l-42 -54h-70zM122 826l14 68l64 30l62 -30l14 -68l-42 -54h-70zM122 922l14 66l64 32l62 -32l14 -66l-42 -56h-70zM206 894l16 68l62 30l64 -30 l14 -68l-42 -54h-70zM244 810l16 68l62 30l62 -30l16 -68l-44 -54h-68zM280 716l14 68l64 30l62 -30l16 -68l-44 -54h-70zM314 622l16 68l62 30l64 -30l14 -68l-42 -54h-70zM350 528l16 68l62 30l62 -30l16 -68l-44 -54h-68zM386 434l14 68l64 30l62 -30l16 -68l-44 -54h-70 zM420 340l16 68l62 30l64 -30l14 -68l-42 -54h-70zM456 246l16 68l62 30l62 -30l16 -68l-44 -54h-68zM492 152l14 68l64 30l62 -30l16 -68l-44 -54h-70zM516 98l14 66l64 32l62 -32l14 -66l-42 -56h-70zM582 22l14 66l64 30l62 -30l14 -66l-42 -54h-70zM614 114l16 66l62 30 l64 -30l14 -66l-42 -56h-70zM650 208l14 68l64 30l62 -30l16 -68l-44 -54h-70zM684 304l16 68l62 30l62 -30l16 -68l-44 -54h-68zM720 400l14 68l64 30l62 -30l16 -68l-44 -54h-70zM754 494l14 68l64 30l62 -30l16 -68l-44 -54h-70zM788 588l14 68l64 30l62 -30l16 -68 l-44 -54h-70zM822 682l16 68l62 30l62 -30l16 -68l-44 -54h-68zM856 776l16 68l62 30l64 -30l14 -68l-42 -54h-70zM892 872l14 66l64 32l62 -32l14 -66l-42 -56h-70zM976 922l16 66l62 32l62 -32l16 -66l-44 -56h-68zM992 42l14 66l64 32l62 -32l14 -66l-42 -54h-70z M992 142l14 66l64 32l62 -32l14 -66l-42 -56h-70zM992 242l14 66l64 32l62 -32l14 -66l-42 -56h-70zM992 342l14 66l64 32l62 -32l14 -66l-42 -56h-70zM992 442l14 66l64 32l62 -32l14 -66l-42 -56h-70zM992 542l14 66l64 32l62 -32l14 -66l-42 -56h-70zM992 642l14 66 l64 32l62 -32l14 -66l-42 -56h-70zM992 742l14 66l64 32l62 -32l14 -66l-42 -56h-70zM992 842l14 66l64 32l62 -32l14 -66l-42 -56h-70z" />
<glyph unicode="N" d="M122 46l14 68l64 30l62 -30l14 -68l-42 -52h-70zM122 146l14 68l64 30l62 -30l14 -68l-42 -54h-70zM122 246l14 68l64 30l62 -30l14 -68l-42 -54h-70zM122 346l14 68l64 30l62 -30l14 -68l-42 -54h-70zM122 446l14 68l64 30l62 -30l14 -68l-42 -54h-70zM122 546l14 68 l64 30l62 -30l14 -68l-42 -54h-70zM122 646l14 68l64 30l62 -30l14 -68l-42 -54h-70zM122 746l14 68l64 30l62 -30l14 -68l-42 -54h-70zM122 846l14 68l64 30l62 -30l14 -68l-42 -54h-70zM142 922l14 66l64 32l62 -32l14 -66l-42 -56h-70zM232 852l14 66l64 32l62 -32 l14 -66l-42 -56h-70zM276 766l16 66l62 32l62 -32l16 -66l-44 -56h-68zM324 674l16 68l62 30l62 -30l16 -68l-44 -54h-68zM372 598l14 66l62 30l64 -30l14 -66l-42 -56h-70zM424 512l16 68l62 30l62 -30l16 -68l-42 -54h-70zM478 426l16 68l62 30l62 -30l16 -68l-44 -54h-70 zM532 342l14 66l62 30l64 -30l14 -66l-42 -56h-70zM584 256l16 68l62 30l62 -30l16 -68l-42 -54h-70zM638 170l16 68l62 30l62 -30l16 -68l-44 -54h-70zM692 86l14 66l62 30l64 -30l14 -66l-42 -56h-70zM752 22l14 66l64 32l62 -32l14 -66l-42 -54h-70zM792 122l14 66l64 32 l62 -32l14 -66l-42 -56h-70zM792 122l14 66l64 32l62 -32l14 -66l-42 -56h-70zM792 222l14 66l64 32l62 -32l14 -66l-42 -56h-70zM792 316l14 68l64 30l62 -30l14 -68l-42 -54h-70zM792 416l14 68l64 30l62 -30l14 -68l-42 -54h-70zM792 516l14 68l64 30l62 -30l14 -68 l-42 -54h-70zM792 616l14 68l64 30l62 -30l14 -68l-42 -54h-70zM792 716l14 68l64 30l62 -30l14 -68l-42 -54h-70zM792 816l14 68l64 30l62 -30l14 -68l-42 -54h-70zM792 916l14 68l64 30l62 -30l14 -68l-42 -54h-70z" />
<glyph unicode="O" d="M62 426l16 68l62 30l62 -30l16 -68l-44 -54h-68zM62 522l16 68l62 30l64 -30l14 -68l-42 -54h-70zM74 328l16 68l62 30l64 -30l14 -68l-42 -54h-70zM76 620l16 68l62 30l62 -30l16 -68l-44 -54h-68zM104 234l16 66l62 30l64 -30l14 -66l-42 -56h-70zM106 714l16 66l62 32 l64 -32l14 -66l-42 -54h-70zM158 148l14 68l64 30l62 -30l14 -68l-42 -54h-70zM160 798l16 68l62 30l62 -30l16 -68l-44 -54h-68zM224 84l16 66l62 32l64 -32l14 -66l-42 -56h-70zM230 868l16 68l62 30l62 -30l16 -68l-42 -54h-70zM282 942l14 66l64 32l62 -32l14 -66 l-42 -56h-70zM282 942l14 66l64 32l62 -32l14 -66l-42 -56h-70zM314 38l14 66l64 30l62 -30l16 -66l-44 -54h-70zM346 942l16 66l62 32l62 -32l16 -66l-44 -56h-68zM412 14l16 68l62 30l64 -30l14 -68l-42 -52h-70zM414 938l16 68l62 30l62 -30l16 -68l-44 -54h-68zM476 942 l16 66l62 32l62 -32l16 -66l-44 -56h-68zM508 12l16 68l62 30l62 -30l16 -68l-42 -52h-70zM542 912l14 66l64 32l62 -32l14 -66l-42 -56h-70zM602 26l16 68l62 30l64 -30l14 -68l-42 -52h-70zM668 900l16 68l62 30l62 -30l16 -68l-44 -54h-68zM696 64l16 68l62 30l64 -30 l14 -68l-42 -54h-70zM750 844l14 68l64 30l62 -30l16 -68l-44 -54h-70zM774 124l16 68l62 30l64 -30l14 -68l-42 -54h-70zM810 774l16 68l62 30l64 -30l14 -68l-42 -54h-70zM832 202l14 66l64 32l62 -32l16 -66l-44 -54h-70zM858 684l14 68l64 30l62 -30l16 -68l-44 -54h-70 zM868 294l16 68l62 30l64 -30l14 -68l-42 -54h-70zM882 586l16 66l62 30l64 -30l14 -66l-42 -56h-70zM888 394l14 68l64 30l62 -30l16 -68l-44 -54h-70zM890 488l16 68l62 30l64 -30l14 -68l-42 -54h-70z" />
<glyph unicode="P" d="M122 42l14 66l64 32l62 -32l14 -66l-42 -54h-70zM122 142l14 66l64 32l62 -32l14 -66l-42 -56h-70zM122 242l14 66l64 32l62 -32l14 -66l-42 -56h-70zM122 342l14 66l64 32l62 -32l14 -66l-42 -56h-70zM122 442l14 66l64 32l62 -32l14 -66l-42 -56h-70zM122 542l14 66 l64 32l62 -32l14 -66l-42 -56h-70zM122 642l14 66l64 32l62 -32l14 -66l-42 -56h-70zM122 742l14 66l64 32l62 -32l14 -66l-42 -56h-70zM122 842l14 66l64 32l62 -32l14 -66l-42 -56h-70zM136 922l16 66l62 32l62 -32l16 -66l-44 -56h-68zM202 432l14 66l64 32l62 -32 l14 -66l-42 -56h-70zM236 922l16 66l62 32l62 -32l16 -66l-44 -56h-68zM306 412l16 66l62 32l62 -32l16 -66l-44 -56h-68zM336 922l16 66l62 32l62 -32l16 -66l-44 -56h-68zM406 412l16 66l62 32l62 -32l16 -66l-44 -56h-68zM432 922l14 66l64 32l62 -32l14 -66l-42 -56h-70 zM432 922l14 66l64 32l62 -32l14 -66l-42 -56h-70zM504 418l16 68l62 30l62 -30l16 -68l-44 -54h-68zM532 908l16 68l62 30l64 -30l14 -68l-42 -54h-70zM596 450l16 68l62 30l64 -30l14 -68l-42 -54h-70zM624 866l14 66l64 32l62 -32l16 -66l-44 -54h-70zM668 514l16 66 l62 32l62 -32l16 -66l-44 -56h-68zM682 796l16 68l62 30l62 -30l16 -68l-44 -54h-68zM706 604l14 68l64 30l62 -30l16 -68l-44 -54h-70zM710 698l16 68l62 30l62 -30l16 -68l-44 -54h-70z" />
<glyph unicode="Q" d="M62 466l14 68l64 30l62 -30l16 -68l-44 -54h-70zM66 560l16 68l62 30l62 -30l16 -68l-44 -54h-68zM68 366l16 68l62 30l64 -30l14 -68l-42 -54h-70zM86 658l16 66l62 30l62 -30l16 -66l-44 -56h-70zM94 266l14 68l64 30l62 -30l16 -68l-44 -54h-70zM126 748l14 68l64 30 l62 -30l16 -68l-44 -54h-70zM138 174l16 68l62 30l62 -30l16 -68l-44 -54h-70zM180 822l16 68l62 30l62 -30l16 -68l-44 -54h-68zM196 104l16 68l62 30l64 -30l14 -68l-42 -54h-70zM260 888l16 66l62 32l62 -32l16 -66l-44 -54h-68zM280 48l16 68l62 30l64 -30l14 -68 l-42 -52h-70zM352 926l16 68l62 30l62 -30l16 -68l-42 -54h-70zM376 18l14 68l64 30l62 -30l16 -68l-44 -52h-70zM450 940l16 68l62 30l62 -30l16 -68l-44 -54h-70zM456 -12l16 66l62 30l62 -30l16 -66l-44 -54h-68zM478 -90l16 68l62 28l64 -28l14 -68l-42 -54h-70z M514 -172l16 68l62 30l64 -30l14 -68l-42 -54h-70zM538 12l14 68l64 30l62 -30l16 -68l-44 -52h-70zM542 938l16 66l62 30l64 -30l14 -66l-42 -56h-70zM592 -236l14 66l64 30l62 -30l14 -66l-42 -56h-70zM636 32l14 68l64 30l62 -30l16 -68l-44 -52h-70zM640 912l14 68 l64 30l62 -30l16 -68l-44 -54h-70zM684 -256l16 68l62 30l62 -30l16 -68l-44 -54h-68zM724 76l16 68l62 30l64 -30l14 -68l-42 -54h-70zM726 864l14 68l64 30l62 -30l16 -68l-44 -54h-70zM778 -254l16 68l62 30l64 -30l14 -68l-42 -54h-70zM794 144l16 68l62 30l62 -30 l16 -68l-44 -54h-68zM796 794l14 68l62 30l64 -30l14 -68l-42 -54h-70zM842 228l16 66l62 30l64 -30l14 -66l-42 -56h-70zM848 710l14 66l64 32l62 -32l16 -66l-44 -56h-70zM870 -226l14 66l64 30l62 -30l16 -66l-44 -56h-70zM874 322l16 68l62 30l64 -30l14 -68l-42 -54 h-70zM878 614l14 68l64 30l62 -30l16 -68l-44 -54h-70zM890 422l14 68l64 30l62 -30l16 -68l-44 -54h-70zM890 516l16 68l62 30l62 -30l16 -68l-44 -54h-68z" />
<glyph unicode="R" d="M152 22l14 66l64 32l62 -32l14 -66l-42 -54h-70zM152 122l14 66l64 32l62 -32l14 -66l-42 -56h-70zM152 222l14 66l64 32l62 -32l14 -66l-42 -56h-70zM152 322l14 66l64 32l62 -32l14 -66l-42 -56h-70zM152 546l14 68l64 30l62 -30l14 -68l-42 -54h-70zM152 646l14 68 l64 30l62 -30l14 -68l-42 -54h-70zM152 746l14 68l64 30l62 -30l14 -68l-42 -54h-70zM152 846l14 68l64 30l62 -30l14 -68l-42 -54h-70zM162 412l14 68l64 30l62 -30l16 -68l-44 -54h-70zM176 922l16 66l62 32l62 -32l16 -66l-44 -56h-68zM246 432l16 66l62 32l62 -32 l16 -66l-44 -56h-68zM276 922l16 66l62 32l62 -32l16 -66l-44 -56h-68zM346 432l16 66l62 32l62 -32l16 -66l-44 -56h-68zM376 922l16 66l62 32l62 -32l16 -66l-44 -56h-68zM442 430l16 68l62 30l64 -30l14 -68l-42 -54h-70zM474 920l14 68l64 30l62 -30l16 -68l-44 -54h-70 zM542 412l14 66l64 32l62 -32l14 -66l-42 -56h-70zM574 904l16 68l62 30l62 -30l16 -68l-44 -54h-68zM592 480l16 68l62 30l64 -30l14 -68l-42 -54h-70zM634 358l16 68l62 30l62 -30l16 -68l-44 -54h-70zM660 860l16 68l62 30l64 -30l14 -68l-42 -54h-70zM678 518l14 68 l64 30l62 -30l16 -68l-44 -54h-70zM692 306l16 66l62 30l64 -30l14 -66l-42 -56h-70zM712 214l14 68l64 30l62 -30l16 -68l-44 -54h-70zM720 788l16 66l62 30l62 -30l16 -66l-44 -56h-68zM722 116l16 68l62 30l62 -30l16 -68l-44 -54h-68zM730 596l16 68l62 30l62 -30 l16 -68l-44 -54h-70zM740 686l16 68l62 30l64 -30l14 -68l-42 -54h-70zM742 22l14 66l64 32l62 -32l14 -66l-42 -54h-70z" />
<glyph unicode="S" d="M72 670l16 68l62 30l62 -30l16 -68l-44 -54h-68zM82 124l16 68l62 30l62 -30l16 -68l-44 -54h-68zM82 758l16 68l62 30l64 -30l14 -68l-42 -54h-70zM104 572l16 68l62 30l62 -30l16 -68l-44 -54h-68zM138 840l14 68l64 30l62 -30l16 -68l-44 -54h-70zM162 66l16 68l62 30 l62 -30l16 -68l-44 -54h-68zM176 514l14 68l64 30l62 -30l16 -68l-44 -54h-70zM216 900l16 68l62 30l62 -30l16 -68l-44 -54h-70zM252 30l16 66l62 32l64 -32l14 -66l-42 -54h-70zM272 484l16 68l62 30l64 -30l14 -68l-42 -54h-70zM308 932l16 68l62 30l62 -30l16 -68 l-44 -54h-70zM348 14l16 68l62 30l62 -30l16 -68l-44 -52h-68zM364 462l16 68l62 30l62 -30l16 -68l-42 -54h-70zM402 942l14 66l64 32l62 -32l14 -66l-42 -56h-70zM444 12l16 68l62 30l64 -30l14 -68l-42 -52h-70zM462 436l16 68l62 30l62 -30l16 -68l-44 -54h-68zM500 930 l16 68l62 30l64 -30l14 -68l-42 -54h-70zM542 28l14 68l64 30l62 -30l16 -68l-44 -52h-70zM554 416l14 68l64 30l62 -30l16 -68l-44 -54h-70zM596 892l16 68l62 30l64 -30l14 -68l-42 -54h-70zM634 68l14 68l64 30l62 -30l16 -68l-44 -54h-70zM644 376l16 68l62 30l62 -30 l16 -68l-42 -54h-70zM676 832l16 68l62 30l64 -30l14 -68l-42 -54h-70zM706 132l14 68l64 30l62 -30l16 -68l-44 -54h-70zM732 320l16 66l62 30l62 -30l16 -66l-42 -56h-70zM740 222l14 68l64 30l62 -30l16 -68l-44 -54h-70z" />
<glyph unicode="T" d="M12 902l14 66l64 32l62 -32l14 -66l-42 -56h-70zM112 902l14 66l64 32l62 -32l14 -66l-42 -56h-70zM212 902l14 66l64 32l62 -32l14 -66l-42 -56h-70zM312 902l14 66l64 32l62 -32l14 -66l-42 -56h-70zM352 36l14 68l64 30l62 -30l14 -68l-42 -52h-70zM352 136l14 68 l64 30l62 -30l14 -68l-42 -54h-70zM352 236l14 68l64 30l62 -30l14 -68l-42 -54h-70zM352 336l14 68l64 30l62 -30l14 -68l-42 -54h-70zM352 436l14 68l64 30l62 -30l14 -68l-42 -54h-70zM352 536l14 68l64 30l62 -30l14 -68l-42 -54h-70zM352 636l14 68l64 30l62 -30 l14 -68l-42 -54h-70zM352 736l14 68l64 30l62 -30l14 -68l-42 -54h-70zM352 836l14 68l64 30l62 -30l14 -68l-42 -54h-70zM382 922l14 66l64 32l62 -32l14 -66l-42 -56h-70zM482 922l14 66l64 32l62 -32l14 -66l-42 -56h-70zM582 922l14 66l64 32l62 -32l14 -66l-42 -56h-70 zM682 922l14 66l64 32l62 -32l14 -66l-42 -56h-70z" />
<glyph unicode="U" d="M102 342l14 66l64 32l62 -32l14 -66l-42 -56h-70zM102 442l14 66l64 32l62 -32l14 -66l-42 -56h-70zM102 542l14 66l64 32l62 -32l14 -66l-42 -56h-70zM102 642l14 66l64 32l62 -32l14 -66l-42 -56h-70zM102 742l14 66l64 32l62 -32l14 -66l-42 -56h-70zM102 842l14 66 l64 32l62 -32l14 -66l-42 -56h-70zM108 250l16 66l62 32l64 -32l14 -66l-42 -56h-70zM116 922l16 66l62 32l62 -32l16 -66l-44 -56h-68zM142 154l16 66l62 32l62 -32l16 -66l-44 -56h-70zM204 80l16 68l62 30l62 -30l16 -68l-44 -54h-68zM288 36l16 68l62 30l62 -30l16 -68 l-44 -52h-68zM390 14l14 68l64 30l62 -30l16 -68l-44 -52h-70zM480 12l16 68l62 30l64 -30l14 -68l-42 -52h-70zM580 26l16 68l62 30l62 -30l16 -68l-44 -52h-68zM670 66l16 66l62 30l62 -30l16 -66l-44 -56h-70zM740 136l14 66l64 30l62 -30l16 -66l-44 -56h-70zM778 226 l16 66l62 30l62 -30l16 -66l-44 -56h-68zM790 324l16 68l62 30l64 -30l14 -68l-42 -54h-70zM792 422l14 66l64 32l62 -32l14 -66l-42 -56h-70zM792 522l14 66l64 32l62 -32l14 -66l-42 -56h-70zM792 622l14 66l64 32l62 -32l14 -66l-42 -56h-70zM792 722l14 66l64 32l62 -32 l14 -66l-42 -56h-70zM792 822l14 66l64 32l62 -32l14 -66l-42 -56h-70zM792 922l14 66l64 32l62 -32l14 -66l-42 -56h-70z" />
<glyph unicode="V" d="M22 916l16 68l62 30l64 -30l14 -68l-42 -54h-70zM60 824l14 66l64 32l62 -32l16 -66l-44 -56h-70zM96 730l14 68l64 30l62 -30l16 -68l-44 -54h-70zM132 636l16 68l62 30l62 -30l16 -68l-44 -54h-70zM168 544l16 68l62 30l62 -30l16 -68l-44 -54h-68zM204 450l16 68 l62 30l62 -30l16 -68l-44 -54h-68zM240 356l16 68l62 30l62 -30l16 -68l-42 -54h-70zM276 264l16 68l62 30l64 -30l14 -68l-42 -54h-70zM312 170l16 68l62 30l64 -30l14 -68l-42 -54h-70zM350 78l14 66l64 30l62 -30l16 -66l-44 -56h-70zM406 22l16 66l62 32l62 -32l16 -66 l-44 -54h-68zM462 78l16 68l62 30l62 -30l16 -68l-44 -54h-68zM498 172l16 66l62 32l62 -32l16 -66l-44 -56h-70zM534 264l14 68l64 30l62 -30l16 -68l-44 -54h-70zM568 358l16 68l62 30l64 -30l14 -68l-42 -54h-70zM604 452l16 68l62 30l62 -30l16 -68l-44 -54h-68z M640 546l14 68l64 30l62 -30l16 -68l-44 -54h-70zM674 640l16 68l62 30l64 -30l14 -68l-42 -54h-70zM710 734l16 68l62 30l62 -30l16 -68l-44 -54h-68zM746 828l16 68l62 30l62 -30l16 -68l-44 -54h-70zM782 922l14 66l64 32l62 -32l14 -66l-42 -56h-70z" />
<glyph unicode="W" d="M40 888l16 68l62 30l64 -30l14 -68l-42 -54h-70zM68 792l16 66l62 32l64 -32l14 -66l-42 -56h-70zM96 694l16 68l62 30l62 -30l16 -68l-42 -54h-70zM124 598l16 68l62 30l62 -30l16 -68l-44 -54h-68zM152 502l16 68l62 30l62 -30l16 -68l-44 -54h-68zM180 406l16 68 l62 30l62 -30l16 -68l-44 -54h-68zM208 310l16 68l62 30l62 -30l16 -68l-44 -54h-70zM236 214l14 68l64 30l62 -30l16 -68l-44 -54h-70zM264 118l14 68l64 30l62 -30l16 -68l-44 -54h-70zM292 22l14 66l64 32l62 -32l14 -66l-42 -54h-70zM322 46l14 68l64 30l62 -30l14 -68 l-42 -52h-70zM384 80l16 68l62 30l62 -30l16 -68l-44 -54h-70zM410 178l16 68l62 30l62 -30l16 -68l-44 -54h-68zM436 274l16 68l62 30l62 -30l16 -68l-44 -54h-68zM462 370l16 68l62 30l62 -30l16 -68l-44 -54h-68zM488 468l16 66l62 32l62 -32l16 -66l-44 -56h-68z M514 564l16 68l62 30l62 -30l16 -68l-42 -54h-70zM540 660l16 68l62 30l62 -30l16 -68l-42 -54h-70zM572 768l16 68l62 30l62 -30l16 -68l-44 -54h-68zM594 862l16 68l62 30l64 -30l14 -68l-42 -54h-70zM636 922l16 66l62 32l62 -32l16 -66l-44 -56h-68zM666 882l16 66 l62 32l62 -32l16 -66l-44 -56h-68zM694 792l16 68l62 30l62 -30l16 -68l-42 -54h-70zM716 694l16 68l62 30l64 -30l14 -68l-42 -54h-70zM740 602l14 68l64 30l62 -30l16 -68l-44 -54h-70zM764 510l16 68l62 30l64 -30l14 -68l-42 -54h-70zM792 414l16 68l62 30l62 -30 l16 -68l-44 -54h-68zM818 316l16 68l62 30l64 -30l14 -68l-42 -54h-70zM846 220l16 68l62 30l62 -30l16 -68l-44 -54h-70zM872 122l16 68l62 30l64 -30l14 -68l-42 -54h-70zM900 26l16 68l62 30l62 -30l16 -68l-44 -52h-70zM952 42l14 66l64 32l62 -32l14 -66l-42 -54h-70z M994 114l14 68l64 30l62 -30l16 -68l-44 -54h-70zM1020 212l16 66l62 32l64 -32l14 -66l-42 -56h-70zM1048 308l16 68l62 30l62 -30l16 -68l-44 -54h-68zM1076 404l14 68l64 30l62 -30l16 -68l-44 -54h-70zM1102 502l16 66l62 30l62 -30l16 -66l-42 -56h-70zM1130 598l16 68 l62 30l62 -30l16 -68l-44 -54h-70zM1156 694l16 68l62 30l64 -30l14 -68l-42 -54h-70zM1184 790l16 68l62 30l62 -30l16 -68l-44 -54h-68zM1210 882l16 68l62 30l62 -30l16 -68l-44 -54h-68z" />
<glyph unicode="X" d="M56 22l16 66l62 32l62 -32l16 -66l-44 -54h-68zM74 916l16 68l62 30l62 -30l16 -68l-44 -54h-68zM114 90l16 66l62 30l64 -30l14 -66l-42 -56h-70zM128 832l16 68l62 30l62 -30l16 -68l-44 -54h-68zM168 174l16 68l62 30l64 -30l14 -68l-42 -54h-70zM180 752l16 68l62 30 l62 -30l16 -68l-44 -54h-68zM224 258l14 68l64 30l62 -30l16 -68l-44 -54h-70zM234 666l16 68l62 30l64 -30l14 -68l-42 -54h-70zM274 340l16 66l62 30l64 -30l14 -66l-42 -56h-70zM290 582l14 68l64 30l62 -30l16 -68l-44 -54h-70zM332 416l14 68l64 30l62 -30l14 -68 l-42 -54h-70zM342 502l14 66l64 32l62 -32l14 -66l-42 -56h-70zM398 466l16 68l62 30l62 -30l16 -68l-44 -54h-68zM416 570l16 68l62 30l64 -30l14 -68l-42 -54h-70zM450 386l16 68l62 30l64 -30l14 -68l-42 -54h-70zM470 650l16 66l62 30l62 -30l16 -66l-44 -56h-70z M504 306l14 68l64 30l62 -30l16 -68l-44 -54h-70zM526 732l14 68l64 30l62 -30l16 -68l-44 -54h-70zM558 222l16 68l62 30l62 -30l16 -68l-42 -54h-70zM582 816l14 68l64 30l62 -30l16 -68l-44 -54h-70zM614 138l16 68l62 30l62 -30l16 -68l-44 -54h-70zM638 900l14 68 l64 30l62 -30l16 -68l-44 -54h-70zM668 54l16 68l62 30l64 -30l14 -68l-42 -54h-70zM692 22l14 66l64 32l62 -32l14 -66l-42 -54h-70z" />
<glyph unicode="Y" d="M60 904l16 68l62 30l64 -30l14 -68l-42 -54h-70zM110 816l16 68l62 30l62 -30l16 -68l-42 -54h-70zM158 732l14 68l64 30l62 -30l16 -68l-44 -54h-70zM208 646l14 66l64 32l62 -32l14 -66l-42 -56h-70zM256 558l16 68l62 30l64 -30l14 -68l-42 -54h-70zM306 470l16 68 l62 30l62 -30l16 -68l-44 -54h-68zM362 22l14 66l64 32l62 -32l14 -66l-42 -54h-70zM362 116l14 68l64 30l62 -30l14 -68l-42 -54h-70zM362 216l14 68l64 30l62 -30l14 -68l-42 -54h-70zM362 316l14 68l64 30l62 -30l14 -68l-42 -54h-70zM382 398l14 68l64 30l62 -30l14 -68 l-42 -54h-70zM432 486l14 68l64 30l62 -30l14 -68l-42 -54h-70zM482 572l14 68l64 30l62 -30l14 -68l-42 -54h-70zM532 660l14 68l64 30l62 -30l14 -68l-42 -54h-70zM582 748l14 66l64 30l62 -30l14 -66l-42 -56h-70zM632 834l14 68l64 30l62 -30l14 -68l-42 -54h-70z M682 922l14 66l64 32l62 -32l14 -66l-42 -56h-70z" />
<glyph unicode="Z" d="M52 22l14 66l64 32l62 -32l14 -66l-42 -54h-70zM60 94l16 68l62 30l62 -30l16 -68l-44 -54h-68zM112 922l14 66l64 32l62 -32l14 -66l-42 -56h-70zM124 172l14 68l64 30l62 -30l16 -68l-44 -54h-70zM152 22l14 66l64 32l62 -32l14 -66l-42 -54h-70zM186 250l16 68l62 30 l62 -30l16 -68l-42 -54h-70zM212 922l14 66l64 32l62 -32l14 -66l-42 -56h-70zM250 328l16 68l62 30l62 -30l16 -68l-44 -54h-70zM252 22l14 66l64 32l62 -32l14 -66l-42 -54h-70zM312 406l16 68l62 30l64 -30l14 -68l-42 -54h-70zM312 922l14 66l64 32l62 -32l14 -66 l-42 -56h-70zM352 22l14 66l64 32l62 -32l14 -66l-42 -54h-70zM376 484l16 66l62 30l62 -30l16 -66l-44 -56h-68zM412 922l14 66l64 32l62 -32l14 -66l-42 -56h-70zM440 560l14 68l64 30l62 -30l16 -68l-44 -54h-70zM452 22l14 66l64 32l62 -32l14 -66l-42 -54h-70zM502 638 l16 68l62 30l62 -30l16 -68l-42 -54h-70zM512 922l14 66l64 32l62 -32l14 -66l-42 -56h-70zM552 22l14 66l64 32l62 -32l14 -66l-42 -54h-70zM566 716l16 68l62 30l62 -30l16 -68l-44 -54h-70zM612 922l14 66l64 32l62 -32l14 -66l-42 -56h-70zM628 794l16 68l62 30l64 -30 l14 -68l-42 -54h-70zM652 22l14 66l64 32l62 -32l14 -66l-42 -54h-70zM658 874l16 68l62 30l62 -30l16 -68l-44 -54h-68zM712 922l14 66l64 32l62 -32l14 -66l-42 -56h-70zM732 36l14 68l64 30l62 -30l14 -68l-42 -52h-70z" />
<glyph unicode="^" d="M150 718l16 68l62 30l62 -30l16 -68l-44 -54h-70zM210 798l14 68l64 30l62 -30l16 -68l-44 -54h-70zM270 880l14 66l64 30l62 -30l16 -66l-44 -56h-70zM334 912l16 68l62 30l64 -30l14 -68l-42 -54h-70zM394 834l16 68l62 30l62 -30l16 -68l-44 -54h-68zM452 752l16 68 l62 30l62 -30l16 -68l-44 -54h-68zM510 670l14 68l64 30l62 -30l16 -68l-44 -54h-70z" />
<glyph unicode="a" d="M52 182l16 68l62 30l62 -30l16 -68l-44 -54h-68zM68 90l16 68l62 30l62 -30l16 -68l-44 -54h-70zM82 566l14 68l64 30l62 -30l14 -68l-42 -54h-70zM92 272l14 66l64 32l62 -32l14 -66l-42 -56h-70zM126 634l16 68l62 30l62 -30l16 -68l-44 -54h-68zM138 32l14 68l64 30 l62 -30l16 -68l-44 -52h-70zM178 316l14 68l64 30l62 -30l16 -68l-44 -54h-70zM208 682l16 68l62 30l62 -30l16 -68l-44 -54h-68zM234 12l16 68l62 30l62 -30l16 -68l-42 -52h-70zM270 340l16 68l62 30l62 -30l16 -68l-44 -54h-68zM304 700l16 68l62 30l64 -30l14 -68 l-42 -54h-70zM330 20l16 66l62 30l64 -30l14 -66l-42 -54h-70zM368 354l16 68l62 30l64 -30l14 -68l-42 -54h-70zM398 694l16 68l62 30l62 -30l16 -68l-44 -54h-70zM416 54l16 66l62 30l62 -30l16 -66l-44 -54h-68zM462 82l14 66l64 32l62 -32l14 -66l-42 -56h-70zM466 378 l16 68l62 30l62 -30l16 -68l-42 -54h-70zM488 652l16 68l62 30l62 -30l16 -68l-42 -54h-70zM522 154l14 68l64 30l62 -30l14 -68l-42 -54h-70zM542 76l16 68l62 30l64 -30l14 -68l-42 -54h-70zM550 582l16 68l62 30l64 -30l14 -68l-42 -54h-70zM570 340l16 68l62 30l62 -30 l16 -68l-44 -54h-68zM572 252l14 66l64 32l62 -32l14 -66l-42 -56h-70zM572 392l14 66l64 32l62 -32l14 -66l-42 -56h-70zM572 482l14 66l64 32l62 -32l14 -66l-42 -56h-70zM610 14l16 68l62 30l64 -30l14 -68l-42 -52h-70zM672 22l14 66l64 32l62 -32l14 -66l-42 -54h-70z M672 22l14 66l64 32l62 -32l14 -66l-42 -54h-70z" />
<glyph unicode="b" horiz-adv-x="968" d="M90 34l16 66l62 32l62 -32l16 -66l-44 -52h-68zM126 1032l16 66l62 32l62 -32l16 -66l-44 -56h-68zM132 346l14 68l64 30l62 -30l16 -68l-44 -54h-70zM132 642l14 66l64 32l62 -32l14 -66l-42 -56h-70zM132 742l14 66l64 32l62 -32l14 -66l-42 -56h-70zM132 842l14 66 l64 32l62 -32l14 -66l-42 -56h-70zM132 942l14 66l64 32l62 -32l14 -66l-42 -56h-70zM140 250l16 68l62 30l62 -30l16 -68l-42 -54h-70zM140 440l14 68l64 30l62 -30l16 -68l-44 -54h-70zM150 114l16 68l62 30l62 -30l16 -68l-44 -54h-70zM172 536l14 66l64 30l62 -30 l16 -66l-44 -56h-70zM174 152l16 68l62 30l64 -30l14 -68l-42 -54h-70zM210 194l14 68l64 30l62 -30l16 -68l-44 -54h-70zM228 610l14 68l64 30l62 -30l16 -68l-44 -54h-70zM236 78l14 68l64 30l62 -30l14 -68l-42 -54h-70zM276 52l14 68l64 30l62 -30l16 -68l-44 -52h-70z M302 672l14 66l64 32l62 -32l14 -66l-42 -56h-70zM360 18l16 66l62 30l64 -30l14 -66l-42 -54h-70zM394 700l16 68l62 30l62 -30l16 -68l-44 -54h-68zM422 702l14 66l64 32l62 -32l14 -66l-42 -56h-70zM422 702l14 66l64 32l62 -32l14 -66l-42 -56h-70zM456 12l16 68l62 30 l62 -30l16 -68l-42 -52h-70zM520 684l16 68l62 30l62 -30l16 -68l-44 -54h-70zM550 40l16 68l62 30l64 -30l14 -68l-42 -52h-70zM604 630l16 68l62 30l64 -30l14 -68l-42 -54h-70zM632 102l14 66l64 32l62 -32l14 -66l-42 -56h-70zM668 556l14 68l64 30l62 -30l16 -68 l-44 -54h-70zM686 178l14 66l64 30l62 -30l16 -66l-44 -56h-70zM706 468l16 68l62 30l62 -30l16 -68l-42 -54h-70zM714 272l16 68l62 30l64 -30l14 -68l-42 -54h-70zM720 368l16 68l62 30l64 -30l14 -68l-42 -54h-70z" />
<glyph unicode="c" d="M36 56l16 66l62 32l62 -32l16 -66l-44 -52h-68zM52 352l14 66l64 32l62 -32l14 -66l-42 -56h-70zM60 262l14 68l64 30l62 -30l14 -68l-42 -54h-70zM62 454l16 68l62 30l62 -30l16 -68l-44 -54h-68zM94 166l14 66l64 30l62 -30l16 -66l-44 -56h-70zM96 136l16 68l62 30 l62 -30l16 -68l-44 -54h-70zM98 546l16 66l62 30l62 -30l16 -66l-44 -56h-70zM150 92l16 68l62 30l62 -30l16 -68l-44 -54h-68zM156 216l14 68l64 30l62 -30l16 -68l-44 -54h-70zM156 618l16 68l62 30l62 -30l16 -68l-44 -54h-68zM234 36l16 68l62 30l62 -30l16 -68l-44 -52 h-68zM240 678l16 66l62 30l64 -30l14 -66l-42 -56h-70zM328 14l16 66l62 30l62 -30l16 -66l-44 -54h-68zM334 700l16 68l62 30l62 -30l16 -68l-44 -54h-68zM372 702l14 66l64 32l62 -32l14 -66l-42 -56h-70zM424 14l16 68l62 30l62 -30l16 -68l-44 -52h-68zM472 684l16 68 l62 30l62 -30l16 -68l-44 -54h-70zM520 40l16 68l62 30l64 -30l14 -68l-42 -52h-70zM556 632l16 68l62 30l62 -30l16 -68l-42 -54h-70zM592 104l16 68l62 30l62 -30l16 -68l-44 -54h-68zM606 558l16 68l62 30l62 -30l16 -68l-44 -54h-68z" />
<glyph unicode="d" d="M52 352l14 66l62 32l64 -32l14 -66l-42 -56h-70zM60 444l16 68l62 30l62 -30l16 -68l-44 -54h-70zM62 248l16 68l62 30l62 -30l16 -68l-44 -54h-68zM92 536l16 68l62 30l62 -30l16 -68l-44 -54h-70zM98 158l16 66l62 32l62 -32l16 -66l-44 -56h-70zM148 614l16 68l62 30 l62 -30l16 -68l-44 -54h-68zM158 84l14 68l64 30l62 -30l16 -68l-44 -54h-70zM228 672l16 68l62 30l62 -30l16 -68l-42 -54h-70zM242 30l16 68l62 30l62 -30l16 -68l-44 -52h-68zM322 698l16 68l62 30l62 -30l16 -68l-44 -54h-68zM340 12l16 68l62 30l64 -30l14 -68l-42 -52 h-70zM418 696l16 68l62 30l64 -30l14 -68l-42 -54h-70zM460 38l16 68l62 30l62 -30l16 -68l-44 -52h-70zM504 656l16 66l62 30l62 -30l16 -66l-44 -56h-68zM540 622l16 68l62 30l62 -30l16 -68l-44 -54h-70zM544 92l16 68l62 30l64 -30l14 -68l-42 -54h-70zM598 550l16 66 l62 30l62 -30l16 -66l-42 -56h-70zM602 170l16 68l62 30l62 -30l16 -68l-44 -54h-70zM632 264l16 68l62 30l64 -30l14 -68l-42 -54h-70zM632 456l16 68l62 30l62 -30l16 -68l-44 -54h-68zM642 362l14 66l64 30l62 -30l14 -66l-42 -56h-70zM642 1032l14 66l64 32l62 -32 l14 -66l-42 -56h-70zM646 140l16 68l62 30l62 -30l16 -68l-44 -54h-68zM652 46l14 68l64 30l62 -30l14 -68l-42 -52h-70zM672 566l14 68l64 30l62 -30l14 -68l-42 -54h-70zM672 666l14 68l64 30l62 -30l14 -68l-42 -54h-70zM672 766l14 68l64 30l62 -30l14 -68l-42 -54h-70z M672 866l14 68l64 30l62 -30l14 -68l-42 -54h-70zM672 966l14 68l64 30l62 -30l14 -68l-42 -54h-70z" />
<glyph unicode="e" d="M52 330l14 66l64 30l62 -30l16 -66l-44 -56h-70zM66 228l16 68l62 30l64 -30l14 -68l-42 -54h-70zM78 516l16 68l62 30l64 -30l14 -68l-42 -54h-70zM84 448l16 68l62 30l62 -30l16 -68l-44 -54h-68zM110 138l16 68l62 30l62 -30l16 -68l-44 -54h-70zM126 382l16 68l62 30 l62 -30l16 -68l-44 -54h-68zM132 602l14 66l62 32l64 -32l14 -66l-42 -56h-70zM176 68l16 68l62 30l64 -30l14 -68l-42 -54h-70zM196 362l16 66l62 32l62 -32l16 -66l-44 -56h-68zM204 662l16 68l62 30l64 -30l14 -68l-42 -54h-70zM264 24l16 68l62 30l64 -30l14 -68 l-42 -52h-70zM296 362l16 66l62 32l62 -32l16 -66l-44 -56h-68zM302 696l14 68l64 30l62 -30l16 -68l-44 -54h-70zM366 12l14 66l64 32l62 -32l16 -66l-44 -54h-70zM392 700l14 68l64 30l62 -30l16 -68l-44 -54h-70zM396 362l16 66l62 32l62 -32l16 -66l-44 -56h-68zM460 20 l14 68l64 30l62 -30l16 -68l-44 -52h-70zM490 672l16 68l62 30l64 -30l14 -68l-42 -54h-70zM496 362l16 66l62 32l62 -32l16 -66l-44 -56h-68zM548 56l16 68l62 30l64 -30l14 -68l-42 -54h-70zM568 614l16 68l62 30l62 -30l16 -68l-44 -54h-68zM596 362l16 66l62 32l62 -32 l16 -66l-44 -56h-68zM602 122l14 66l64 32l62 -32l14 -66l-42 -56h-70zM606 396l16 68l62 30l62 -30l16 -68l-44 -54h-68zM610 490l14 66l64 30l62 -30l16 -66l-44 -56h-70zM624 536l16 68l62 30l62 -30l16 -68l-44 -54h-68z" />
<glyph unicode="f" d="M46 658l16 66l62 32l62 -32l16 -66l-44 -56h-68zM138 666l16 68l62 30l62 -30l16 -68l-44 -54h-68zM162 542l14 68l64 30l62 -30l14 -68l-42 -54h-70zM162 748l14 66l64 32l62 -32l14 -66l-42 -56h-70zM162 844l14 68l64 30l62 -30l16 -68l-44 -54h-70zM190 936l16 68 l62 30l62 -30l16 -68l-42 -54h-70zM192 12l14 68l64 30l62 -30l14 -68l-42 -52h-70zM192 112l14 68l64 30l62 -30l14 -68l-42 -54h-70zM192 212l14 68l64 30l62 -30l14 -68l-42 -54h-70zM192 312l14 68l64 30l62 -30l14 -68l-42 -54h-70zM192 412l14 68l64 30l62 -30l14 -68 l-42 -54h-70zM192 512l14 68l64 30l62 -30l14 -68l-42 -54h-70zM242 658l14 66l64 32l62 -32l14 -66l-42 -56h-70zM270 994l14 66l64 30l62 -30l16 -66l-44 -56h-70zM342 658l14 66l64 32l62 -32l14 -66l-42 -56h-70zM362 1008l14 66l64 32l62 -32l14 -66l-42 -56h-70z M422 988l14 66l64 32l62 -32l14 -66l-42 -56h-70zM442 658l14 66l64 32l62 -32l14 -66l-42 -56h-70z" />
<glyph unicode="g" d="M52 340l14 66l64 30l62 -30l16 -66l-44 -56h-70zM56 434l16 68l62 30l64 -30l14 -68l-42 -54h-70zM66 244l16 68l62 30l62 -30l16 -68l-44 -54h-70zM88 -178l14 68l64 30l62 -30l16 -68l-44 -54h-70zM88 528l14 68l64 30l62 -30l16 -68l-44 -54h-70zM108 152l14 68l64 30 l62 -30l16 -68l-44 -54h-70zM144 606l16 66l62 30l64 -30l14 -66l-42 -56h-70zM154 -210l14 68l64 30l62 -30l16 -68l-44 -54h-70zM172 82l14 68l64 30l62 -30l16 -68l-44 -54h-70zM222 668l16 68l62 30l62 -30l16 -68l-44 -54h-68zM244 -260l14 68l64 30l62 -30l16 -68 l-44 -54h-70zM260 34l14 68l64 30l62 -30l16 -68l-44 -52h-70zM318 700l16 66l62 32l62 -32l16 -66l-44 -56h-68zM352 22l14 66l64 30l62 -30l14 -66l-42 -54h-70zM352 -286l14 66l64 30l62 -30l14 -66l-42 -56h-70zM410 698l14 66l64 30l62 -30l16 -66l-44 -56h-70z M434 -272l14 68l64 30l62 -30l16 -68l-44 -54h-70zM460 56l16 66l62 30l64 -30l14 -66l-42 -56h-70zM476 -274l14 68l64 30l62 -30l16 -68l-44 -54h-70zM502 664l16 68l62 30l64 -30l14 -68l-42 -54h-70zM550 102l16 68l62 30l62 -30l16 -68l-44 -54h-68zM570 -232l16 66 l62 30l62 -30l16 -66l-44 -56h-70zM572 592l14 66l64 30l62 -30l14 -66l-42 -56h-70zM590 160l16 68l62 30l62 -30l16 -68l-44 -54h-68zM594 560l14 68l64 30l62 -30l16 -68l-44 -54h-70zM630 468l16 68l62 30l62 -30l16 -68l-44 -54h-68zM634 -164l16 66l62 30l62 -30 l16 -66l-44 -56h-68zM634 274l16 68l62 30l62 -30l16 -68l-42 -54h-70zM640 368l16 66l62 30l64 -30l14 -66l-42 -56h-70zM644 580l14 68l64 30l62 -30l16 -68l-44 -54h-70zM660 672l16 66l62 32l62 -32l16 -66l-44 -56h-68zM670 -72l16 68l62 28l62 -28l16 -68l-44 -54h-68 zM680 24l16 66l62 32l64 -32l14 -66l-42 -54h-70zM682 122l14 66l64 32l62 -32l14 -66l-42 -56h-70zM682 222l14 66l64 32l62 -32l14 -66l-42 -56h-70zM682 622l14 66l64 32l62 -32l14 -66l-42 -56h-70z" />
<glyph unicode="h" d="M102 22l14 66l64 32l62 -32l14 -66l-42 -54h-70zM102 122l14 66l64 32l62 -32l14 -66l-42 -56h-70zM102 222l14 66l64 32l62 -32l14 -66l-42 -56h-70zM102 322l14 66l64 32l62 -32l14 -66l-42 -56h-70zM102 422l14 66l64 32l62 -32l14 -66l-42 -56h-70zM102 622l14 66 l64 32l62 -32l14 -66l-42 -56h-70zM102 722l14 66l64 32l62 -32l14 -66l-42 -56h-70zM102 822l14 66l64 32l62 -32l14 -66l-42 -56h-70zM102 922l14 66l64 32l62 -32l14 -66l-42 -56h-70zM102 1022l14 66l64 32l62 -32l14 -66l-42 -56h-70zM142 476l16 68l62 30l62 -30 l16 -68l-42 -54h-70zM182 572l14 66l64 32l62 -32l14 -66l-42 -56h-70zM242 632l14 66l64 32l62 -32l14 -66l-42 -56h-70zM242 632l14 66l64 32l62 -32l14 -66l-42 -56h-70zM324 686l16 68l62 30l64 -30l14 -68l-42 -54h-70zM422 702l14 66l64 32l62 -32l14 -66l-42 -56h-70 zM514 686l16 68l62 30l62 -30l16 -68l-42 -54h-70zM602 632l14 66l64 32l62 -32l14 -66l-42 -56h-70zM656 554l14 68l64 30l62 -30l16 -68l-44 -54h-70zM672 62l14 66l64 32l62 -32l14 -66l-42 -56h-70zM672 162l14 66l64 32l62 -32l14 -66l-42 -56h-70zM672 262l14 66 l64 32l62 -32l14 -66l-42 -56h-70zM672 362l14 66l64 32l62 -32l14 -66l-42 -56h-70zM672 462l14 66l64 32l62 -32l14 -66l-42 -56h-70z" />
<glyph unicode="i" d="M-14 682l14 66l64 32l62 -32l14 -66l-42 -56h-70zM46 620l16 68l62 30l62 -30l16 -68l-44 -54h-68zM72 944l16 68l62 30l64 -30l14 -68l-42 -54h-70zM102 22l14 66l64 32l62 -32l14 -66l-42 -54h-70zM102 122l14 66l64 32l62 -32l14 -66l-42 -56h-70zM102 222l14 66 l64 32l62 -32l14 -66l-42 -56h-70zM102 322l14 66l64 32l62 -32l14 -66l-42 -56h-70zM102 422l14 66l64 32l62 -32l14 -66l-42 -56h-70zM102 522l14 66l64 32l62 -32l14 -66l-42 -56h-70zM102 622l14 66l64 32l62 -32l14 -66l-42 -56h-70zM116 1002l16 66l62 32l62 -32 l16 -66l-44 -56h-68zM132 682l14 66l64 32l62 -32l14 -66l-42 -56h-70zM142 912l14 66l64 32l62 -32l14 -66l-42 -56h-70zM142 912l14 66l64 32l62 -32l14 -66l-42 -56h-70z" />
<glyph unicode="j" d="M-168 -252l14 68l62 30l62 -30l14 -68l-40 -54h-70zM-84 -266l16 66l60 32l64 -32l14 -66l-42 -56h-68zM-2 -270l16 68l62 30l62 -30l16 -68l-44 -54h-70zM72 -210l16 66l62 32l62 -32l16 -66l-44 -54h-68zM72 944l16 68l62 30l64 -30l14 -68l-42 -54h-70zM98 -118l16 68 l62 30l62 -30l16 -68l-44 -54h-68zM100 -16l14 64l64 32l62 -32l14 -64l-42 -56h-70zM102 32l14 66l64 32l62 -32l14 -66l-42 -54h-70zM102 132l14 66l64 32l62 -32l14 -66l-42 -56h-70zM102 232l14 66l64 32l62 -32l14 -66l-42 -56h-70zM102 332l14 66l64 32l62 -32l14 -66 l-42 -56h-70zM102 432l14 66l64 32l62 -32l14 -66l-42 -56h-70zM102 532l14 66l64 32l62 -32l14 -66l-42 -56h-70zM102 632l14 66l64 32l62 -32l14 -66l-42 -56h-70zM116 1002l16 66l62 32l62 -32l16 -66l-44 -56h-68zM142 912l14 66l64 32l62 -32l14 -66l-42 -56h-70z" />
<glyph unicode="k" d="M102 26l14 68l64 30l62 -30l14 -68l-42 -52h-70zM102 126l14 68l64 30l62 -30l14 -68l-42 -54h-70zM102 226l14 68l64 30l62 -30l14 -68l-42 -54h-70zM102 326l14 68l64 30l62 -30l14 -68l-42 -54h-70zM102 426l14 68l64 30l62 -30l14 -68l-42 -54h-70zM102 526l14 68 l64 30l62 -30l14 -68l-42 -54h-70zM102 626l14 68l64 30l62 -30l14 -68l-42 -54h-70zM102 726l14 68l64 30l62 -30l14 -68l-42 -54h-70zM102 826l14 68l64 30l62 -30l14 -68l-42 -54h-70zM102 926l14 68l64 30l62 -30l14 -68l-42 -54h-70zM102 1026l14 68l64 30l62 -30 l14 -68l-42 -54h-70zM162 294l16 68l62 30l62 -30l16 -68l-44 -54h-68zM240 320l16 68l62 30l64 -30l14 -68l-42 -54h-70zM312 388l16 68l62 30l62 -30l16 -68l-42 -54h-70zM372 472l14 66l64 32l62 -32l16 -66l-44 -54h-70zM430 340l16 68l62 30l62 -30l16 -68l-44 -54h-68 zM442 542l16 68l62 30l62 -30l16 -68l-44 -54h-68zM488 258l14 68l64 30l62 -30l16 -68l-44 -54h-70zM514 614l14 68l64 30l62 -30l16 -68l-44 -54h-70zM544 174l16 68l62 30l64 -30l14 -68l-42 -54h-70zM582 682l14 66l64 32l62 -32l14 -66l-42 -56h-70zM602 92l16 68 l62 30l62 -30l16 -68l-44 -54h-68zM646 22l16 66l62 32l62 -32l16 -66l-44 -54h-68z" />
<glyph unicode="l" d="M92 176l14 68l64 30l62 -30l14 -68l-42 -54h-70zM92 276l14 68l64 30l62 -30l14 -68l-42 -54h-70zM92 376l14 68l64 30l62 -30l14 -68l-42 -54h-70zM92 476l14 68l64 30l62 -30l14 -68l-42 -54h-70zM92 576l14 68l64 30l62 -30l14 -68l-42 -54h-70zM92 676l14 68l64 30 l62 -30l14 -68l-42 -54h-70zM92 776l14 68l64 30l62 -30l14 -68l-42 -54h-70zM92 876l14 68l64 30l62 -30l14 -68l-42 -54h-70zM92 976l14 68l64 30l62 -30l14 -68l-42 -54h-70zM104 82l16 68l62 30l62 -30l16 -68l-44 -54h-70zM172 20l16 66l62 32l62 -32l16 -66l-44 -54 h-68zM264 12l14 66l64 32l62 -32l16 -66l-44 -54h-70z" />
<glyph unicode="m" horiz-adv-x="1420" d="M102 26l14 68l64 30l62 -30l14 -68l-42 -52h-70zM102 126l14 68l64 30l62 -30l14 -68l-42 -54h-70zM102 226l14 68l64 30l62 -30l14 -68l-42 -54h-70zM102 326l14 68l64 30l62 -30l14 -68l-42 -54h-70zM102 426l14 68l64 30l62 -30l14 -68l-42 -54h-70zM102 626l14 68 l64 30l62 -30l14 -68l-42 -54h-70zM136 576l16 68l62 30l62 -30l16 -68l-44 -54h-68zM182 562l14 66l64 32l62 -32l14 -66l-42 -56h-70zM240 622l14 68l64 30l62 -30l16 -68l-44 -54h-70zM298 658l16 68l62 30l62 -30l16 -68l-44 -54h-68zM396 682l16 66l62 30l62 -30 l16 -66l-44 -56h-68zM486 666l16 68l62 30l62 -30l16 -68l-44 -54h-68zM566 616l16 66l62 30l64 -30l14 -66l-42 -56h-70zM612 528l14 68l64 30l62 -30l16 -68l-44 -54h-70zM622 32l14 66l64 32l62 -32l14 -66l-42 -54h-70zM622 132l14 66l64 32l62 -32l14 -66l-42 -56h-70z M622 232l14 66l64 32l62 -32l14 -66l-42 -56h-70zM622 332l14 66l64 32l62 -32l14 -66l-42 -56h-70zM622 432l14 66l64 32l62 -32l14 -66l-42 -56h-70zM644 558l16 68l62 30l64 -30l14 -68l-42 -54h-70zM712 582l14 66l64 32l62 -32l14 -66l-42 -56h-70zM768 636l16 68 l62 30l62 -30l16 -68l-44 -54h-68zM860 676l16 68l62 30l64 -30l14 -68l-42 -54h-70zM956 678l16 68l62 30l64 -30l14 -68l-42 -54h-70zM1056 668l14 68l64 30l62 -30l16 -68l-44 -54h-70zM1126 606l16 66l62 32l62 -32l16 -66l-44 -56h-68zM1166 514l16 66l62 30l64 -30 l14 -66l-42 -56h-70zM1172 22l14 66l64 32l62 -32l14 -66l-42 -54h-70zM1172 122l14 66l64 32l62 -32l14 -66l-42 -56h-70zM1172 222l14 66l64 32l62 -32l14 -66l-42 -56h-70zM1172 322l14 66l64 32l62 -32l14 -66l-42 -56h-70zM1172 422l14 66l64 32l62 -32l14 -66l-42 -56 h-70z" />
<glyph unicode="n" d="M102 26l14 68l64 30l62 -30l14 -68l-42 -52h-70zM102 126l14 68l64 30l62 -30l14 -68l-42 -54h-70zM102 226l14 68l64 30l62 -30l14 -68l-42 -54h-70zM102 326l14 68l64 30l62 -30l14 -68l-42 -54h-70zM102 426l14 68l64 30l62 -30l14 -68l-42 -54h-70zM102 626l14 68 l64 30l62 -30l14 -68l-42 -54h-70zM122 666l14 68l64 30l62 -30l14 -68l-42 -54h-70zM136 576l16 68l62 30l62 -30l16 -68l-44 -54h-68zM140 466l16 68l62 30l64 -30l14 -68l-42 -54h-70zM182 562l14 66l64 32l62 -32l14 -66l-42 -56h-70zM240 626l16 68l62 30l62 -30 l16 -68l-44 -54h-68zM328 670l16 68l62 30l64 -30l14 -68l-42 -54h-70zM422 682l16 66l62 30l62 -30l16 -66l-44 -56h-68zM520 658l16 68l62 30l64 -30l14 -68l-42 -54h-70zM592 598l14 68l64 30l62 -30l16 -68l-44 -54h-70zM630 508l16 68l62 30l64 -30l14 -68l-42 -54h-70 zM642 112l14 66l64 32l62 -32l14 -66l-42 -56h-70zM642 212l14 66l64 32l62 -32l14 -66l-42 -56h-70zM642 312l14 66l64 32l62 -32l14 -66l-42 -56h-70zM642 412l14 66l64 32l62 -32l14 -66l-42 -56h-70zM646 22l16 66l62 32l62 -32l16 -66l-44 -54h-68z" />
<glyph unicode="o" d="M52 394l16 68l62 30l64 -30l14 -68l-42 -54h-70zM54 298l16 66l62 32l62 -32l16 -66l-44 -56h-68zM72 492l16 68l62 30l64 -30l14 -68l-42 -54h-70zM76 202l16 68l62 30l62 -30l16 -68l-44 -54h-68zM120 578l16 68l62 30l62 -30l16 -68l-44 -54h-68zM126 118l16 68l62 30 l62 -30l16 -68l-44 -54h-68zM186 646l16 68l62 30l64 -30l14 -68l-42 -54h-70zM200 52l14 68l64 30l62 -30l16 -68l-44 -52h-70zM222 702l14 66l64 32l62 -32l14 -66l-42 -56h-70zM290 18l14 68l64 30l62 -30l16 -68l-44 -52h-70zM328 702l16 66l62 32l64 -32l14 -66 l-42 -56h-70zM382 12l16 68l62 30l62 -30l16 -68l-44 -52h-68zM412 698l16 68l62 30l64 -30l14 -68l-42 -54h-70zM484 30l16 68l62 30l62 -30l16 -68l-44 -52h-68zM502 682l14 66l64 32l62 -32l14 -66l-42 -56h-70zM568 78l16 68l62 30l64 -30l14 -68l-42 -54h-70zM584 608 l16 68l62 30l64 -30l14 -68l-42 -54h-70zM632 154l16 68l62 30l62 -30l16 -68l-44 -54h-68zM644 530l14 68l64 30l62 -30l16 -68l-44 -54h-70zM668 242l16 68l62 30l64 -30l14 -68l-42 -54h-70zM674 436l16 68l62 30l62 -30l16 -68l-44 -54h-68zM680 340l16 68l62 30l64 -30 l14 -68l-42 -54h-70z" />
<glyph unicode="p" d="M102 176l14 68l64 30l62 -30l14 -68l-42 -54h-70zM102 676l14 68l64 30l62 -30l14 -68l-42 -54h-70zM122 616l14 68l64 30l62 -30l14 -68l-42 -54h-70zM132 6l14 68l64 30l62 -30l14 -68l-42 -52h-70zM132 -92l14 68l64 28l62 -28l14 -68l-42 -54h-70zM132 100l16 68 l62 30l62 -30l16 -68l-44 -54h-68zM132 -192l14 68l64 30l62 -30l14 -68l-42 -54h-70zM132 -286l14 66l64 30l62 -30l14 -66l-42 -56h-70zM132 346l14 68l64 30l62 -30l16 -68l-44 -54h-70zM138 440l16 68l62 30l64 -30l14 -68l-42 -54h-70zM142 244l14 68l64 30l62 -30 l16 -68l-44 -54h-70zM166 552l14 68l64 30l62 -30l16 -68l-44 -54h-70zM170 532l16 68l62 30l64 -30l14 -68l-42 -54h-70zM174 152l16 68l62 30l64 -30l14 -68l-42 -54h-70zM228 608l16 68l62 30l62 -30l16 -68l-44 -54h-68zM236 78l14 68l64 30l62 -30l14 -68l-42 -54h-70z M268 60l14 68l64 30l62 -30l16 -68l-44 -54h-70zM300 666l14 68l64 30l62 -30l16 -68l-44 -54h-70zM354 20l16 66l62 32l62 -32l16 -66l-44 -52h-70zM394 700l16 66l62 30l64 -30l14 -66l-42 -56h-70zM432 702l14 66l64 32l62 -32l14 -66l-42 -56h-70zM446 12l16 68l62 30 l64 -30l14 -68l-42 -52h-70zM530 682l16 66l62 30l64 -30l14 -66l-42 -56h-70zM542 36l16 68l62 30l64 -30l14 -68l-42 -52h-70zM610 624l16 68l62 30l64 -30l14 -68l-42 -54h-70zM624 94l16 68l62 30l64 -30l14 -68l-42 -54h-70zM672 548l16 68l62 30l62 -30l16 -68 l-44 -54h-68zM682 168l14 68l64 30l62 -30l14 -68l-42 -54h-70zM708 460l16 68l62 30l64 -30l14 -68l-42 -54h-70zM714 266l16 68l62 30l62 -30l16 -68l-44 -54h-68zM720 356l16 68l62 30l64 -30l14 -68l-42 -54h-70zM770 252l14 68l64 30l62 -30l14 -68l-42 -54h-70z" />
<glyph unicode="q" d="M52 318l16 68l62 30l62 -30l16 -68l-44 -54h-68zM54 414l16 68l62 30l64 -30l14 -68l-42 -54h-70zM70 220l16 68l62 30l62 -30l16 -68l-44 -54h-68zM78 508l16 68l62 30l62 -30l16 -68l-42 -54h-70zM114 132l16 68l62 30l64 -30l14 -68l-42 -54h-70zM132 596l16 68l62 30 l62 -30l16 -68l-44 -54h-68zM182 64l16 66l62 30l62 -30l16 -66l-44 -56h-68zM204 658l16 68l62 30l62 -30l16 -68l-44 -54h-68zM268 22l16 68l62 30l62 -30l16 -68l-42 -52h-70zM294 694l16 68l62 30l62 -30l16 -68l-44 -54h-68zM362 22l14 66l64 32l62 -32l14 -66l-42 -54 h-70zM388 700l14 68l64 30l62 -30l16 -68l-44 -54h-70zM462 38l14 66l64 30l62 -30l16 -66l-44 -54h-70zM482 662l14 66l64 30l62 -30l14 -66l-42 -56h-70zM548 88l16 68l62 30l62 -30l16 -68l-44 -54h-70zM550 602l16 66l62 30l64 -30l14 -66l-42 -56h-70zM600 546l16 68 l62 30l62 -30l16 -68l-44 -54h-70zM602 164l16 68l62 30l62 -30l16 -68l-44 -54h-70zM632 260l16 66l62 30l64 -30l14 -66l-42 -56h-70zM632 452l16 68l62 30l62 -30l16 -68l-44 -54h-70zM642 352l14 66l64 32l62 -32l14 -66l-42 -56h-70zM652 632l14 66l64 32l62 -32 l14 -66l-42 -56h-70zM652 682l14 66l64 32l62 -32l14 -66l-42 -56h-70zM666 -286l16 66l62 30l62 -30l16 -66l-44 -56h-68zM672 2l14 66l64 32l62 -32l14 -66l-42 -54h-70zM672 -96l14 66l64 30l62 -30l14 -66l-42 -56h-70zM672 102l14 66l64 32l62 -32l14 -66l-42 -56h-70z M672 -196l14 66l64 32l62 -32l14 -66l-42 -56h-70zM672 202l14 66l64 32l62 -32l14 -66l-42 -56h-70zM672 602l14 66l64 32l62 -32l14 -66l-42 -56h-70z" />
<glyph unicode="r" d="M102 26l14 68l64 30l62 -30l14 -68l-42 -52h-70zM102 126l14 68l64 30l62 -30l14 -68l-42 -54h-70zM102 226l14 68l64 30l62 -30l14 -68l-42 -54h-70zM102 326l14 68l64 30l62 -30l14 -68l-42 -54h-70zM102 426l14 68l64 30l62 -30l14 -68l-42 -54h-70zM102 526l14 68 l64 30l62 -30l14 -68l-42 -54h-70zM102 626l14 68l64 30l62 -30l14 -68l-42 -54h-70zM146 572l16 66l62 32l62 -32l16 -66l-44 -56h-68zM182 562l14 66l64 32l62 -32l14 -66l-42 -56h-70zM232 622l14 66l64 32l62 -32l14 -66l-42 -56h-70zM314 662l16 68l62 30l64 -30 l14 -68l-42 -54h-70zM406 702l14 66l64 30l62 -30l16 -66l-44 -56h-70z" />
<glyph unicode="s" d="M54 116l16 68l62 30l62 -30l16 -68l-44 -54h-68zM102 522l14 66l64 32l62 -32l14 -66l-42 -56h-70zM124 634l14 68l64 30l62 -30l16 -68l-44 -54h-70zM132 56l16 68l62 30l62 -30l16 -68l-44 -54h-68zM132 430l16 68l62 30l64 -30l14 -68l-42 -54h-70zM206 684l16 68 l62 30l64 -30l14 -68l-42 -54h-70zM214 386l14 68l64 30l62 -30l16 -68l-44 -54h-70zM218 22l16 68l62 30l64 -30l14 -68l-42 -52h-70zM306 368l16 68l62 30l62 -30l16 -68l-44 -54h-68zM306 702l14 66l64 30l62 -30l16 -66l-44 -56h-70zM322 12l14 66l64 32l62 -32l14 -66 l-42 -54h-70zM356 12l14 68l64 30l62 -30l16 -68l-44 -52h-70zM394 694l16 68l62 30l64 -30l14 -68l-42 -54h-70zM406 346l16 68l62 30l62 -30l16 -68l-44 -54h-68zM454 32l14 66l64 32l62 -32l16 -66l-44 -52h-70zM490 654l16 68l62 30l62 -30l16 -68l-44 -54h-68zM496 320 l14 68l64 30l62 -30l16 -68l-44 -54h-70zM534 80l16 68l62 30l62 -30l16 -68l-44 -54h-68zM568 256l16 68l62 30l62 -30l16 -68l-44 -54h-70zM578 164l16 66l62 30l64 -30l14 -66l-42 -56h-70z" />
<glyph unicode="t" d="M12 674l14 68l64 30l62 -30l14 -68l-42 -54h-70zM102 682l14 66l64 32l62 -32l14 -66l-42 -56h-70zM162 128l16 68l62 30l64 -30l14 -68l-42 -54h-70zM162 222l14 66l64 32l62 -32l14 -66l-42 -56h-70zM162 322l14 66l64 32l62 -32l14 -66l-42 -56h-70zM162 422l14 66 l64 32l62 -32l14 -66l-42 -56h-70zM162 522l14 66l64 32l62 -32l14 -66l-42 -56h-70zM162 622l14 66l64 32l62 -32l14 -66l-42 -56h-70zM192 766l14 68l64 30l62 -30l14 -68l-42 -54h-70zM192 866l14 68l64 30l62 -30l14 -68l-42 -54h-70zM202 42l14 66l62 32l64 -32l14 -66 l-42 -54h-70zM216 688l14 68l64 30l62 -30l16 -68l-44 -54h-70zM296 12l16 68l62 30l64 -30l14 -68l-42 -52h-70zM312 682l14 66l64 32l62 -32l14 -66l-42 -56h-70zM386 16l16 66l62 32l62 -32l16 -66l-44 -52h-68zM412 682l14 66l64 32l62 -32l14 -66l-42 -56h-70zM456 58 l16 68l62 30l64 -30l14 -68l-42 -54h-70z" />
<glyph unicode="u" d="M92 232l14 66l64 32l62 -32l14 -66l-42 -56h-70zM92 332l14 66l64 32l62 -32l14 -66l-42 -56h-70zM92 432l14 66l64 32l62 -32l14 -66l-42 -56h-70zM92 532l14 66l64 32l62 -32l14 -66l-42 -56h-70zM92 632l14 66l64 32l62 -32l14 -66l-42 -56h-70zM106 138l16 68l62 30 l64 -30l14 -68l-42 -54h-70zM122 672l14 66l64 32l62 -32l14 -66l-42 -56h-70zM164 58l16 68l62 30l62 -30l16 -68l-44 -54h-68zM250 20l16 68l62 30l62 -30l16 -68l-44 -52h-68zM348 12l16 68l62 30l62 -30l16 -68l-44 -52h-68zM444 28l16 68l62 30l62 -30l16 -68l-44 -52 h-68zM532 82l14 66l64 32l62 -32l14 -66l-42 -56h-70zM622 118l16 68l62 30l64 -30l14 -68l-42 -54h-70zM622 226l14 68l64 30l62 -30l16 -68l-44 -54h-70zM632 322l14 66l64 32l62 -32l14 -66l-42 -56h-70zM632 416l14 68l64 30l62 -30l14 -68l-42 -54h-70zM632 516l14 68 l64 30l62 -30l14 -68l-42 -54h-70zM632 616l14 68l64 30l62 -30l14 -68l-42 -54h-70zM640 26l16 68l62 30l62 -30l16 -68l-44 -52h-68zM662 682l14 66l64 32l62 -32l14 -66l-42 -56h-70z" />
<glyph unicode="v" d="M46 668l16 66l62 30l62 -30l16 -66l-44 -56h-68zM80 572l16 68l62 30l64 -30l14 -68l-42 -54h-70zM116 478l14 68l64 30l62 -30l16 -68l-44 -54h-70zM150 384l16 68l62 30l62 -30l16 -68l-44 -54h-68zM184 290l16 66l62 30l64 -30l14 -66l-42 -56h-70zM220 194l14 68 l64 30l62 -30l16 -68l-44 -54h-70zM254 100l16 68l62 30l62 -30l16 -68l-44 -54h-68zM292 22l14 66l64 32l62 -32l14 -66l-42 -54h-70zM322 58l14 66l64 30l62 -30l14 -66l-42 -56h-70zM368 124l14 68l64 30l62 -30l16 -68l-44 -54h-70zM404 218l14 66l64 30l62 -30l16 -66 l-44 -56h-70zM438 306l14 68l64 30l62 -30l16 -68l-44 -54h-70zM474 400l14 68l64 30l62 -30l16 -68l-44 -54h-70zM510 494l14 68l64 30l62 -30l16 -68l-44 -54h-70zM546 588l14 68l64 30l62 -30l16 -68l-44 -54h-70zM582 682l14 66l64 32l62 -32l14 -66l-42 -56h-70z M582 682l14 66l64 32l62 -32l14 -66l-42 -56h-70z" />
<glyph unicode="w" horiz-adv-x="1284" d="M24 672l16 68l62 30l62 -30l16 -68l-42 -54h-70zM56 582l16 68l62 30l62 -30l16 -68l-44 -54h-68zM88 486l16 68l62 30l64 -30l14 -68l-42 -54h-70zM122 392l16 68l62 30l62 -30l16 -68l-44 -54h-68zM156 296l14 68l64 30l62 -30l16 -68l-44 -54h-70zM188 202l16 68 l62 30l62 -30l16 -68l-44 -54h-68zM222 106l14 68l64 30l62 -30l16 -68l-44 -54h-70zM256 22l16 66l62 32l62 -32l16 -66l-44 -54h-68zM316 68l16 68l62 30l64 -30l14 -68l-42 -54h-70zM348 164l16 68l62 30l64 -30l14 -68l-42 -54h-70zM380 258l16 68l62 30l62 -30l16 -68 l-44 -54h-68zM412 354l16 68l62 30l62 -30l16 -68l-44 -54h-68zM444 448l14 68l64 30l62 -30l16 -68l-44 -54h-70zM476 544l14 68l64 30l62 -30l16 -68l-44 -54h-70zM518 672l16 68l62 30l62 -30l16 -68l-44 -54h-68zM522 612l14 66l64 32l62 -32l14 -66l-42 -56h-70z M586 576l16 68l62 30l62 -30l16 -68l-44 -54h-68zM620 482l14 68l64 30l62 -30l16 -68l-44 -54h-70zM652 386l16 68l62 30l64 -30l14 -68l-42 -54h-70zM686 292l16 68l62 30l62 -30l16 -68l-44 -54h-68zM720 196l14 68l64 30l62 -30l16 -68l-44 -54h-70zM752 106l14 68 l64 30l62 -30l14 -68l-42 -54h-70zM786 22l16 66l62 32l62 -32l16 -66l-44 -54h-68zM854 60l16 66l62 30l62 -30l16 -66l-44 -56h-68zM888 154l14 68l64 30l62 -30l16 -68l-44 -54h-70zM920 250l16 66l62 30l62 -30l16 -66l-42 -56h-70zM954 344l14 68l64 30l62 -30l16 -68 l-44 -54h-70zM986 440l16 66l62 30l64 -30l14 -66l-42 -56h-70zM1020 534l16 68l62 30l62 -30l16 -68l-44 -54h-70zM1032 682l14 66l64 32l62 -32l14 -66l-42 -56h-70zM1052 628l16 68l62 30l64 -30l14 -68l-42 -54h-70z" />
<glyph unicode="x" d="M90 34l16 66l62 32l62 -32l16 -66l-44 -52h-68zM92 682l14 66l64 32l62 -32l14 -66l-42 -56h-70zM114 620l16 68l62 30l62 -30l16 -68l-44 -54h-68zM150 114l16 68l62 30l62 -30l16 -68l-44 -54h-70zM172 538l16 68l62 30l62 -30l16 -68l-44 -54h-70zM210 194l14 68 l64 30l62 -30l16 -68l-44 -54h-70zM230 456l14 66l64 30l62 -30l16 -66l-44 -56h-70zM270 276l14 66l64 30l62 -30l16 -66l-44 -56h-70zM282 382l14 66l64 32l62 -32l14 -66l-42 -56h-70zM334 308l16 68l62 30l64 -30l14 -68l-42 -54h-70zM390 434l16 68l62 30l62 -30 l16 -68l-44 -54h-70zM394 230l16 68l62 30l62 -30l16 -68l-44 -54h-68zM450 514l14 68l64 30l62 -30l16 -68l-44 -54h-70zM452 148l16 68l62 30l62 -30l16 -68l-44 -54h-68zM508 596l16 68l62 30l64 -30l14 -68l-42 -54h-70zM510 66l14 68l64 30l62 -30l16 -68l-44 -54h-70z M568 678l16 66l62 30l62 -30l16 -66l-44 -56h-68zM582 22l14 66l64 32l62 -32l14 -66l-42 -54h-70z" />
<glyph unicode="y" d="M-26 -246l14 66l62 30l62 -30l14 -66l-42 -56h-70zM32 682l14 66l64 32l62 -32l14 -66l-42 -56h-70zM40 612l16 68l62 30l62 -30l16 -68l-44 -54h-68zM42 -284l14 68l64 30l62 -30l16 -68l-44 -54h-70zM80 520l14 66l64 30l62 -30l16 -66l-44 -56h-70zM116 432l16 66 l62 30l62 -30l16 -66l-44 -56h-68zM136 -282l16 68l62 30l64 -30l14 -68l-42 -54h-70zM156 338l14 68l64 30l62 -30l16 -68l-44 -54h-70zM194 246l16 68l62 30l62 -30l16 -68l-44 -54h-68zM216 -232l16 68l62 30l64 -30l14 -68l-42 -54h-70zM232 154l16 66l62 32l64 -32 l14 -66l-42 -54h-70zM270 -144l14 66l64 30l62 -30l16 -66l-44 -56h-70zM272 60l16 68l62 30l62 -30l16 -68l-44 -54h-68zM306 -56l16 64l62 32l62 -32l16 -64l-44 -54h-68zM344 34l16 68l62 30l62 -30l16 -68l-44 -52h-68zM382 126l16 68l62 30l62 -30l16 -68l-44 -54h-68z M420 218l16 68l62 30l62 -30l16 -68l-44 -54h-68zM458 312l16 66l62 32l62 -32l16 -66l-42 -56h-70zM496 404l16 68l62 30l64 -30l14 -68l-42 -54h-70zM534 496l16 68l62 30l64 -30l14 -68l-42 -54h-70zM572 588l16 68l62 30l64 -30l14 -68l-42 -54h-70zM612 682l14 66 l64 32l62 -32l14 -66l-42 -56h-70z" />
<glyph unicode="z" d="M52 22l14 66l64 32l62 -32l14 -66l-42 -54h-70zM92 62l16 68l62 30l62 -30l16 -68l-44 -54h-68zM112 682l14 66l64 32l62 -32l14 -66l-42 -56h-70zM128 136l16 68l62 30l62 -30l16 -68l-44 -54h-68zM136 22l16 66l62 32l62 -32l16 -66l-44 -54h-68zM176 672l16 66l62 32 l62 -32l16 -66l-44 -56h-68zM202 202l14 66l62 30l64 -30l14 -66l-42 -56h-70zM236 22l16 66l62 32l62 -32l16 -66l-44 -54h-68zM266 278l16 68l62 30l62 -30l16 -68l-44 -54h-68zM276 672l16 66l62 32l62 -32l16 -66l-44 -56h-68zM330 356l16 66l62 30l64 -30l14 -66 l-42 -56h-70zM336 22l16 66l62 32l62 -32l16 -66l-44 -54h-68zM372 672l14 66l64 32l62 -32l14 -66l-42 -56h-70zM392 428l16 68l62 30l64 -30l14 -68l-42 -54h-70zM436 22l16 66l62 32l62 -32l16 -66l-44 -54h-68zM458 506l16 66l62 30l62 -30l16 -66l-44 -56h-70zM472 672 l14 66l64 32l62 -32l14 -66l-42 -56h-70zM522 582l16 68l62 30l64 -30l14 -68l-42 -54h-70zM532 632l14 66l64 32l62 -32l14 -66l-42 -56h-70zM562 32l14 66l64 32l62 -32l14 -66l-42 -54h-70zM582 656l14 68l64 30l62 -30l14 -68l-42 -54h-70z" />
<glyph unicode="~" d="M60 768l16 66l62 30l62 -30l16 -66l-44 -56h-70zM118 840l16 68l62 30l62 -30l16 -68l-44 -54h-68zM202 900l16 66l62 30l64 -30l14 -66l-42 -56h-70zM296 922l16 68l62 30l62 -30l16 -68l-44 -54h-68zM334 924l14 66l64 32l62 -32l14 -66l-42 -56h-70zM384 830l16 68 l62 30l62 -30l16 -68l-44 -54h-68zM434 906l16 68l62 30l62 -30l16 -68l-44 -54h-70zM468 774l16 68l62 30l62 -30l16 -68l-44 -52h-68zM518 854l16 68l62 30l62 -30l16 -68l-42 -54h-70zM562 752l16 66l62 30l62 -30l16 -66l-44 -54h-68zM568 780l16 68l62 30l62 -30 l16 -68l-44 -54h-68zM658 752l16 68l62 30l62 -30l16 -68l-44 -52h-68zM754 778l16 68l62 30l64 -30l14 -68l-42 -52h-70zM826 842l16 68l62 30l62 -30l16 -68l-44 -54h-68z" />
<glyph unicode="&#xa0;" />
<glyph unicode="&#xa8;" d="M72 856l16 68l62 30l64 -30l14 -68l-42 -54h-70zM116 914l16 66l62 32l62 -32l16 -66l-44 -56h-68zM142 824l14 66l64 32l62 -32l14 -66l-42 -56h-70zM142 824l14 66l64 32l62 -32l14 -66l-42 -56h-70zM488 856l16 68l62 30l64 -30l14 -68l-42 -54h-70zM532 914l16 66 l62 32l62 -32l16 -66l-44 -56h-68zM558 824l14 66l64 32l62 -32l14 -66l-42 -56h-70zM558 824l14 66l64 32l62 -32l14 -66l-42 -56h-70z" />
<glyph unicode="&#xad;" d="M272 482l14 66l64 32l62 -32l14 -66l-42 -54h-70zM372 482l14 66l64 32l62 -32l14 -66l-42 -54h-70zM472 482l14 66l64 32l62 -32l14 -66l-42 -54h-70zM572 482l14 66l64 32l62 -32l14 -66l-42 -54h-70zM672 482l14 66l64 32l62 -32l14 -66l-42 -54h-70z" />
<glyph unicode="&#xb0;" d="M72 944l16 68l62 30l64 -30l14 -68l-42 -54h-70zM116 1002l16 66l62 32l62 -32l16 -66l-44 -56h-68zM130 858l14 66l64 32l62 -32l14 -66l-42 -56h-70zM206 816l14 66l64 32l62 -32l14 -66l-42 -56h-70zM210 1036l14 66l64 32l62 -32l14 -66l-42 -56h-70zM282 988l16 66 l62 32l62 -32l16 -66l-44 -56h-68zM284 836l16 68l62 30l64 -30l14 -68l-42 -54h-70zM312 912l14 66l64 32l62 -32l14 -66l-42 -56h-70z" />
<glyph unicode="&#xc0;" d="M52 26l16 68l62 30l64 -30l14 -68l-42 -52h-70zM86 120l16 68l62 30l64 -30l14 -68l-42 -54h-70zM118 210l16 68l62 30l64 -30l14 -68l-42 -54h-70zM168 288l16 68l62 30l62 -30l16 -68l-44 -54h-70zM186 356l16 68l62 30l62 -30l16 -68l-42 -54h-70zM216 448l16 68 l62 30l62 -30l16 -68l-44 -54h-70zM250 542l16 68l62 30l64 -30l14 -68l-42 -54h-70zM262 292l14 66l64 32l62 -32l14 -66l-42 -56h-70zM284 632l16 68l62 30l62 -30l16 -68l-44 -54h-68zM320 726l14 68l64 30l62 -30l16 -68l-44 -54h-70zM324 1140l16 68l62 30l64 -30 l14 -68l-42 -54h-70zM348 818l16 68l62 30l62 -30l16 -68l-44 -54h-70zM362 292l14 66l64 32l62 -32l14 -66l-42 -56h-70zM368 912l14 68l64 30l62 -30l16 -68l-44 -54h-70zM384 1062l16 68l62 30l62 -30l16 -68l-44 -54h-68zM442 980l16 68l62 30l62 -30l16 -68l-44 -54 h-68zM452 872l14 66l64 30l62 -30l14 -66l-42 -56h-70zM462 292l14 66l64 32l62 -32l14 -66l-42 -56h-70zM486 774l14 68l64 30l62 -30l16 -68l-44 -54h-70zM500 898l14 68l64 30l62 -30l16 -68l-44 -54h-70zM516 688l16 68l62 30l64 -30l14 -68l-42 -54h-70zM552 594l16 68 l62 30l62 -30l16 -68l-44 -54h-68zM562 292l14 66l64 32l62 -32l14 -66l-42 -56h-70zM572 854l14 66l64 32l62 -32l14 -66l-42 -54h-70zM588 500l14 68l64 30l62 -30l16 -68l-44 -54h-70zM622 404l16 68l62 30l62 -30l16 -68l-44 -54h-68zM626 336l16 68l62 30l62 -30 l16 -68l-44 -54h-68zM654 288l16 68l62 30l62 -30l16 -68l-42 -54h-70zM704 210l14 68l64 30l62 -30l16 -68l-44 -54h-70zM738 116l14 68l64 30l62 -30l16 -68l-44 -54h-70zM772 22l14 66l64 32l62 -32l14 -66l-42 -54h-70zM772 22l14 66l64 32l62 -32l14 -66l-42 -54h-70z " />
<glyph unicode="&#xc1;" d="M52 26l16 68l62 30l64 -30l14 -68l-42 -52h-70zM86 120l16 68l62 30l64 -30l14 -68l-42 -54h-70zM118 210l16 68l62 30l64 -30l14 -68l-42 -54h-70zM168 288l16 68l62 30l62 -30l16 -68l-44 -54h-70zM186 356l16 68l62 30l62 -30l16 -68l-42 -54h-70zM216 448l16 68 l62 30l62 -30l16 -68l-44 -54h-70zM232 868l16 66l62 32l62 -32l16 -66l-44 -52h-68zM250 542l16 68l62 30l64 -30l14 -68l-42 -54h-70zM262 292l14 66l64 32l62 -32l14 -66l-42 -56h-70zM284 632l16 68l62 30l62 -30l16 -68l-44 -54h-68zM292 948l16 68l62 30l62 -30 l16 -68l-44 -54h-70zM320 726l14 68l64 30l62 -30l16 -68l-44 -54h-70zM348 818l16 68l62 30l62 -30l16 -68l-44 -54h-70zM352 1028l14 68l64 30l62 -30l16 -68l-44 -54h-70zM362 292l14 66l64 32l62 -32l14 -66l-42 -56h-70zM368 912l14 68l64 30l62 -30l16 -68l-44 -54 h-70zM412 1110l14 66l64 30l62 -30l16 -66l-44 -56h-70zM452 872l14 66l64 30l62 -30l14 -66l-42 -56h-70zM462 292l14 66l64 32l62 -32l14 -66l-42 -56h-70zM476 1142l16 68l62 30l64 -30l14 -68l-42 -54h-70zM486 774l14 68l64 30l62 -30l16 -68l-44 -54h-70zM516 688 l16 68l62 30l64 -30l14 -68l-42 -54h-70zM552 594l16 68l62 30l62 -30l16 -68l-44 -54h-68zM562 292l14 66l64 32l62 -32l14 -66l-42 -56h-70zM588 500l14 68l64 30l62 -30l16 -68l-44 -54h-70zM622 404l16 68l62 30l62 -30l16 -68l-44 -54h-68zM626 336l16 68l62 30l62 -30 l16 -68l-44 -54h-68zM654 288l16 68l62 30l62 -30l16 -68l-42 -54h-70zM704 210l14 68l64 30l62 -30l16 -68l-44 -54h-70zM738 116l14 68l64 30l62 -30l16 -68l-44 -54h-70zM772 22l14 66l64 32l62 -32l14 -66l-42 -54h-70zM772 22l14 66l64 32l62 -32l14 -66l-42 -54h-70z " />
<glyph unicode="&#xc2;" d="M52 26l16 68l62 30l64 -30l14 -68l-42 -52h-70zM86 120l16 68l62 30l64 -30l14 -68l-42 -54h-70zM118 210l16 68l62 30l64 -30l14 -68l-42 -54h-70zM168 288l16 68l62 30l62 -30l16 -68l-44 -54h-70zM186 356l16 68l62 30l62 -30l16 -68l-42 -54h-70zM210 950l16 68 l62 30l62 -30l16 -68l-44 -54h-70zM216 448l16 68l62 30l62 -30l16 -68l-44 -54h-70zM250 542l16 68l62 30l64 -30l14 -68l-42 -54h-70zM262 292l14 66l64 32l62 -32l14 -66l-42 -56h-70zM270 1030l14 68l64 30l62 -30l16 -68l-44 -54h-70zM284 632l16 68l62 30l62 -30 l16 -68l-44 -54h-68zM320 726l14 68l64 30l62 -30l16 -68l-44 -54h-70zM330 1112l14 66l64 30l62 -30l16 -66l-44 -56h-70zM348 818l16 68l62 30l62 -30l16 -68l-44 -54h-70zM362 292l14 66l64 32l62 -32l14 -66l-42 -56h-70zM368 912l14 68l64 30l62 -30l16 -68l-44 -54 h-70zM394 1144l16 68l62 30l64 -30l14 -68l-42 -54h-70zM452 872l14 66l64 30l62 -30l14 -66l-42 -56h-70zM454 1066l16 68l62 30l62 -30l16 -68l-44 -54h-68zM462 292l14 66l64 32l62 -32l14 -66l-42 -56h-70zM486 774l14 68l64 30l62 -30l16 -68l-44 -54h-70zM512 984 l16 68l62 30l62 -30l16 -68l-44 -54h-68zM516 688l16 68l62 30l64 -30l14 -68l-42 -54h-70zM552 594l16 68l62 30l62 -30l16 -68l-44 -54h-68zM562 292l14 66l64 32l62 -32l14 -66l-42 -56h-70zM570 902l14 68l64 30l62 -30l16 -68l-44 -54h-70zM588 500l14 68l64 30l62 -30 l16 -68l-44 -54h-70zM622 404l16 68l62 30l62 -30l16 -68l-44 -54h-68zM626 336l16 68l62 30l62 -30l16 -68l-44 -54h-68zM654 288l16 68l62 30l62 -30l16 -68l-42 -54h-70zM704 210l14 68l64 30l62 -30l16 -68l-44 -54h-70zM738 116l14 68l64 30l62 -30l16 -68l-44 -54h-70 zM772 22l14 66l64 32l62 -32l14 -66l-42 -54h-70zM772 22l14 66l64 32l62 -32l14 -66l-42 -54h-70z" />
<glyph unicode="&#xc3;" d="M6 986l16 66l62 30l62 -30l16 -66l-44 -56h-70zM52 26l16 68l62 30l64 -30l14 -68l-42 -52h-70zM64 1058l16 68l62 30l62 -30l16 -68l-44 -54h-68zM86 120l16 68l62 30l64 -30l14 -68l-42 -54h-70zM118 210l16 68l62 30l64 -30l14 -68l-42 -54h-70zM148 1118l16 66l62 30 l64 -30l14 -66l-42 -56h-70zM168 288l16 68l62 30l62 -30l16 -68l-44 -54h-70zM186 356l16 68l62 30l62 -30l16 -68l-42 -54h-70zM216 448l16 68l62 30l62 -30l16 -68l-44 -54h-70zM242 1140l16 68l62 30l62 -30l16 -68l-44 -54h-68zM250 542l16 68l62 30l64 -30l14 -68 l-42 -54h-70zM262 292l14 66l64 32l62 -32l14 -66l-42 -56h-70zM280 1142l14 66l64 32l62 -32l14 -66l-42 -56h-70zM284 632l16 68l62 30l62 -30l16 -68l-44 -54h-68zM320 726l14 68l64 30l62 -30l16 -68l-44 -54h-70zM330 1048l16 68l62 30l62 -30l16 -68l-44 -54h-68z M348 818l16 68l62 30l62 -30l16 -68l-44 -54h-70zM362 292l14 66l64 32l62 -32l14 -66l-42 -56h-70zM368 912l14 68l64 30l62 -30l16 -68l-44 -54h-70zM380 1124l16 68l62 30l62 -30l16 -68l-44 -54h-70zM414 992l16 68l62 30l62 -30l16 -68l-44 -52h-68zM452 872l14 66 l64 30l62 -30l14 -66l-42 -56h-70zM462 292l14 66l64 32l62 -32l14 -66l-42 -56h-70zM464 1072l16 68l62 30l62 -30l16 -68l-42 -54h-70zM486 774l14 68l64 30l62 -30l16 -68l-44 -54h-70zM508 970l16 66l62 30l62 -30l16 -66l-44 -54h-68zM514 998l16 68l62 30l62 -30 l16 -68l-44 -54h-68zM516 688l16 68l62 30l64 -30l14 -68l-42 -54h-70zM552 594l16 68l62 30l62 -30l16 -68l-44 -54h-68zM562 292l14 66l64 32l62 -32l14 -66l-42 -56h-70zM588 500l14 68l64 30l62 -30l16 -68l-44 -54h-70zM604 970l16 68l62 30l62 -30l16 -68l-44 -52h-68 zM622 404l16 68l62 30l62 -30l16 -68l-44 -54h-68zM626 336l16 68l62 30l62 -30l16 -68l-44 -54h-68zM654 288l16 68l62 30l62 -30l16 -68l-42 -54h-70zM700 996l16 68l62 30l64 -30l14 -68l-42 -52h-70zM704 210l14 68l64 30l62 -30l16 -68l-44 -54h-70zM738 116l14 68 l64 30l62 -30l16 -68l-44 -54h-70zM772 22l14 66l64 32l62 -32l14 -66l-42 -54h-70zM772 22l14 66l64 32l62 -32l14 -66l-42 -54h-70zM772 1060l16 68l62 30l62 -30l16 -68l-44 -54h-68z" />
<glyph unicode="&#xc4;" d="M52 26l16 68l62 30l64 -30l14 -68l-42 -52h-70zM86 120l16 68l62 30l64 -30l14 -68l-42 -54h-70zM118 210l16 68l62 30l64 -30l14 -68l-42 -54h-70zM142 1066l16 68l62 30l64 -30l14 -68l-42 -54h-70zM168 288l16 68l62 30l62 -30l16 -68l-44 -54h-70zM186 356l16 68 l62 30l62 -30l16 -68l-42 -54h-70zM186 1124l16 66l62 32l62 -32l16 -66l-44 -56h-68zM212 1034l14 66l64 32l62 -32l14 -66l-42 -56h-70zM212 1034l14 66l64 32l62 -32l14 -66l-42 -56h-70zM216 448l16 68l62 30l62 -30l16 -68l-44 -54h-70zM250 542l16 68l62 30l64 -30 l14 -68l-42 -54h-70zM262 292l14 66l64 32l62 -32l14 -66l-42 -56h-70zM284 632l16 68l62 30l62 -30l16 -68l-44 -54h-68zM320 726l14 68l64 30l62 -30l16 -68l-44 -54h-70zM348 818l16 68l62 30l62 -30l16 -68l-44 -54h-70zM362 292l14 66l64 32l62 -32l14 -66l-42 -56h-70 zM368 912l14 68l64 30l62 -30l16 -68l-44 -54h-70zM452 872l14 66l64 30l62 -30l14 -66l-42 -56h-70zM462 292l14 66l64 32l62 -32l14 -66l-42 -56h-70zM486 774l14 68l64 30l62 -30l16 -68l-44 -54h-70zM516 688l16 68l62 30l64 -30l14 -68l-42 -54h-70zM552 594l16 68 l62 30l62 -30l16 -68l-44 -54h-68zM558 1066l16 68l62 30l64 -30l14 -68l-42 -54h-70zM562 292l14 66l64 32l62 -32l14 -66l-42 -56h-70zM588 500l14 68l64 30l62 -30l16 -68l-44 -54h-70zM602 1124l16 66l62 32l62 -32l16 -66l-44 -56h-68zM622 404l16 68l62 30l62 -30 l16 -68l-44 -54h-68zM626 336l16 68l62 30l62 -30l16 -68l-44 -54h-68zM628 1034l14 66l64 32l62 -32l14 -66l-42 -56h-70zM628 1034l14 66l64 32l62 -32l14 -66l-42 -56h-70zM654 288l16 68l62 30l62 -30l16 -68l-42 -54h-70zM704 210l14 68l64 30l62 -30l16 -68l-44 -54 h-70zM738 116l14 68l64 30l62 -30l16 -68l-44 -54h-70zM772 22l14 66l64 32l62 -32l14 -66l-42 -54h-70zM772 22l14 66l64 32l62 -32l14 -66l-42 -54h-70z" />
<glyph unicode="&#xc5;" d="M52 26l16 68l62 30l64 -30l14 -68l-42 -52h-70zM86 120l16 68l62 30l64 -30l14 -68l-42 -54h-70zM118 210l16 68l62 30l64 -30l14 -68l-42 -54h-70zM168 288l16 68l62 30l62 -30l16 -68l-44 -54h-70zM186 356l16 68l62 30l62 -30l16 -68l-42 -54h-70zM216 448l16 68 l62 30l62 -30l16 -68l-44 -54h-70zM250 542l16 68l62 30l64 -30l14 -68l-42 -54h-70zM262 292l14 66l64 32l62 -32l14 -66l-42 -56h-70zM284 632l16 68l62 30l62 -30l16 -68l-44 -54h-68zM320 726l14 68l64 30l62 -30l16 -68l-44 -54h-70zM348 818l16 68l62 30l62 -30 l16 -68l-44 -54h-70zM362 292l14 66l64 32l62 -32l14 -66l-42 -56h-70zM368 912l14 68l64 30l62 -30l16 -68l-44 -54h-70zM452 872l14 66l64 30l62 -30l14 -66l-42 -56h-70zM462 292l14 66l64 32l62 -32l14 -66l-42 -56h-70zM486 774l14 68l64 30l62 -30l16 -68l-44 -54h-70 zM516 688l16 68l62 30l64 -30l14 -68l-42 -54h-70zM552 594l16 68l62 30l62 -30l16 -68l-44 -54h-68zM562 292l14 66l64 32l62 -32l14 -66l-42 -56h-70zM588 500l14 68l64 30l62 -30l16 -68l-44 -54h-70zM622 404l16 68l62 30l62 -30l16 -68l-44 -54h-68zM626 336l16 68 l62 30l62 -30l16 -68l-44 -54h-68zM654 288l16 68l62 30l62 -30l16 -68l-42 -54h-70zM704 210l14 68l64 30l62 -30l16 -68l-44 -54h-70zM738 116l14 68l64 30l62 -30l16 -68l-44 -54h-70zM772 22l14 66l64 32l62 -32l14 -66l-42 -54h-70zM772 22l14 66l64 32l62 -32l14 -66 l-42 -54h-70z" />
<glyph unicode="&#xc6;" d="M52 26l16 68l62 30l64 -30l14 -68l-42 -52h-70zM86 120l16 68l62 30l64 -30l14 -68l-42 -54h-70zM118 210l16 68l62 30l64 -30l14 -68l-42 -54h-70zM168 288l16 68l62 30l62 -30l16 -68l-44 -54h-70zM186 356l16 68l62 30l62 -30l16 -68l-42 -54h-70zM216 448l16 68 l62 30l62 -30l16 -68l-44 -54h-70zM250 542l16 68l62 30l64 -30l14 -68l-42 -54h-70zM262 292l14 66l64 32l62 -32l14 -66l-42 -56h-70zM284 632l16 68l62 30l62 -30l16 -68l-44 -54h-68zM320 726l14 68l64 30l62 -30l16 -68l-44 -54h-70zM348 818l16 68l62 30l62 -30 l16 -68l-44 -54h-70zM362 292l14 66l64 32l62 -32l14 -66l-42 -56h-70zM368 912l14 68l64 30l62 -30l16 -68l-44 -54h-70zM462 292l14 66l64 32l62 -32l14 -66l-42 -56h-70zM524 122l14 66l64 32l62 -32l14 -66l-42 -56h-70zM524 222l14 66l64 32l62 -32l14 -66l-42 -56h-70 zM524 322l14 66l64 32l62 -32l14 -66l-42 -56h-70zM524 422l14 66l64 32l62 -32l14 -66l-42 -56h-70zM524 522l14 66l64 32l62 -32l14 -66l-42 -56h-70zM524 622l14 66l64 32l62 -32l14 -66l-42 -56h-70zM524 722l14 66l64 32l62 -32l14 -66l-42 -56h-70zM524 822l14 66 l64 32l62 -32l14 -66l-42 -56h-70zM524 922l14 66l64 32l62 -32l14 -66l-42 -56h-70zM554 22l14 66l64 32l62 -32l14 -66l-42 -54h-70zM624 922l14 66l64 32l62 -32l14 -66l-42 -56h-70zM628 492l16 66l62 32l62 -32l16 -66l-44 -56h-68zM654 22l14 66l64 32l62 -32l14 -66 l-42 -54h-70zM724 922l14 66l64 32l62 -32l14 -66l-42 -56h-70zM728 492l16 66l62 32l62 -32l16 -66l-44 -56h-68zM754 22l14 66l64 32l62 -32l14 -66l-42 -54h-70zM824 922l14 66l64 32l62 -32l14 -66l-42 -56h-70zM828 492l16 66l62 32l62 -32l16 -66l-44 -56h-68zM854 22 l14 66l64 32l62 -32l14 -66l-42 -54h-70zM924 922l14 66l64 32l62 -32l14 -66l-42 -56h-70zM928 492l16 66l62 32l62 -32l16 -66l-44 -56h-68zM954 22l14 66l64 32l62 -32l14 -66l-42 -54h-70zM1004 472l14 66l64 32l62 -32l14 -66l-42 -56h-70zM1024 922l14 66l64 32 l62 -32l14 -66l-42 -56h-70zM1054 22l14 66l64 32l62 -32l14 -66l-42 -54h-70zM1124 922l14 66l64 32l62 -32l14 -66l-42 -56h-70zM1154 22l14 66l64 32l62 -32l14 -66l-42 -54h-70z" />
<glyph unicode="&#xc7;" d="M54 794l16 68l62 30l64 -30l14 -68l-42 -54h-70zM62 442l14 68l64 30l62 -30l16 -68l-44 -54h-70zM64 538l16 68l62 30l62 -30l16 -68l-44 -54h-68zM72 342l16 68l62 30l62 -30l16 -68l-44 -54h-68zM80 634l14 68l64 30l62 -30l16 -68l-44 -54h-70zM100 246l16 68l62 30 l62 -30l16 -68l-44 -54h-70zM114 730l16 68l62 30l64 -30l14 -68l-42 -54h-70zM150 158l14 68l64 30l62 -30l16 -68l-44 -54h-70zM172 812l14 66l64 30l62 -30l14 -66l-42 -56h-70zM202 712l16 68l62 30l64 -30l14 -68l-42 -54h-70zM214 92l16 68l62 30l62 -30l16 -68 l-44 -54h-70zM242 876l16 68l62 30l62 -30l16 -68l-44 -54h-68zM300 42l14 68l64 30l62 -30l16 -68l-44 -52h-70zM330 920l16 68l62 30l64 -30l14 -68l-42 -54h-70zM396 18l16 66l62 30l64 -30l14 -66l-42 -54h-70zM430 940l16 68l62 30l62 -30l16 -68l-44 -54h-68zM492 12 l14 66l64 32l62 -32l16 -66l-44 -52h-70zM524 938l14 68l64 30l62 -30l16 -68l-44 -54h-70zM588 24l16 68l62 30l64 -30l14 -68l-42 -52h-70zM622 918l14 68l64 30l62 -30l16 -68l-44 -54h-70zM684 62l16 68l62 30l62 -30l16 -68l-44 -54h-68zM708 876l14 66l64 30l62 -30 l16 -66l-44 -56h-70zM760 122l14 68l64 30l62 -30l16 -68l-44 -54h-70zM778 806l16 66l62 32l62 -32l16 -66l-42 -54h-70zM812 206l14 68l64 30l62 -30l14 -68l-42 -54h-70z" />
<glyph unicode="&#xc8;" d="M122 122l14 66l64 32l62 -32l14 -66l-42 -56h-70zM122 222l14 66l64 32l62 -32l14 -66l-42 -56h-70zM122 322l14 66l64 32l62 -32l14 -66l-42 -56h-70zM122 422l14 66l64 32l62 -32l14 -66l-42 -56h-70zM122 522l14 66l64 32l62 -32l14 -66l-42 -56h-70zM122 622l14 66 l64 32l62 -32l14 -66l-42 -56h-70zM122 722l14 66l64 32l62 -32l14 -66l-42 -56h-70zM122 822l14 66l64 32l62 -32l14 -66l-42 -56h-70zM122 922l14 66l64 32l62 -32l14 -66l-42 -56h-70zM152 22l14 66l64 32l62 -32l14 -66l-42 -54h-70zM222 922l14 66l64 32l62 -32l14 -66 l-42 -56h-70zM226 492l16 66l62 32l62 -32l16 -66l-44 -56h-68zM252 22l14 66l64 32l62 -32l14 -66l-42 -54h-70zM322 922l14 66l64 32l62 -32l14 -66l-42 -56h-70zM324 1140l16 68l62 30l64 -30l14 -68l-42 -54h-70zM326 492l16 66l62 32l62 -32l16 -66l-44 -56h-68z M352 22l14 66l64 32l62 -32l14 -66l-42 -54h-70zM384 1062l16 68l62 30l62 -30l16 -68l-44 -54h-68zM422 922l14 66l64 32l62 -32l14 -66l-42 -56h-70zM426 492l16 66l62 32l62 -32l16 -66l-44 -56h-68zM442 980l16 68l62 30l62 -30l16 -68l-44 -54h-68zM452 22l14 66l64 32 l62 -32l14 -66l-42 -54h-70zM500 898l14 68l64 30l62 -30l16 -68l-44 -54h-70zM522 922l14 66l64 32l62 -32l14 -66l-42 -56h-70zM526 492l16 66l62 32l62 -32l16 -66l-44 -56h-68zM552 22l14 66l64 32l62 -32l14 -66l-42 -54h-70zM572 854l14 66l64 32l62 -32l14 -66 l-42 -54h-70zM602 472l14 66l64 32l62 -32l14 -66l-42 -56h-70zM622 922l14 66l64 32l62 -32l14 -66l-42 -56h-70zM652 22l14 66l64 32l62 -32l14 -66l-42 -54h-70zM722 922l14 66l64 32l62 -32l14 -66l-42 -56h-70zM752 22l14 66l64 32l62 -32l14 -66l-42 -54h-70z" />
<glyph unicode="&#xc9;" d="M122 122l14 66l64 32l62 -32l14 -66l-42 -56h-70zM122 222l14 66l64 32l62 -32l14 -66l-42 -56h-70zM122 322l14 66l64 32l62 -32l14 -66l-42 -56h-70zM122 422l14 66l64 32l62 -32l14 -66l-42 -56h-70zM122 522l14 66l64 32l62 -32l14 -66l-42 -56h-70zM122 622l14 66 l64 32l62 -32l14 -66l-42 -56h-70zM122 722l14 66l64 32l62 -32l14 -66l-42 -56h-70zM122 822l14 66l64 32l62 -32l14 -66l-42 -56h-70zM122 922l14 66l64 32l62 -32l14 -66l-42 -56h-70zM152 22l14 66l64 32l62 -32l14 -66l-42 -54h-70zM222 922l14 66l64 32l62 -32l14 -66 l-42 -56h-70zM226 492l16 66l62 32l62 -32l16 -66l-44 -56h-68zM232 868l16 66l62 32l62 -32l16 -66l-44 -52h-68zM252 22l14 66l64 32l62 -32l14 -66l-42 -54h-70zM292 948l16 68l62 30l62 -30l16 -68l-44 -54h-70zM322 922l14 66l64 32l62 -32l14 -66l-42 -56h-70z M326 492l16 66l62 32l62 -32l16 -66l-44 -56h-68zM352 22l14 66l64 32l62 -32l14 -66l-42 -54h-70zM352 1028l14 68l64 30l62 -30l16 -68l-44 -54h-70zM412 1110l14 66l64 30l62 -30l16 -66l-44 -56h-70zM422 922l14 66l64 32l62 -32l14 -66l-42 -56h-70zM426 492l16 66 l62 32l62 -32l16 -66l-44 -56h-68zM452 22l14 66l64 32l62 -32l14 -66l-42 -54h-70zM476 1142l16 68l62 30l64 -30l14 -68l-42 -54h-70zM522 922l14 66l64 32l62 -32l14 -66l-42 -56h-70zM526 492l16 66l62 32l62 -32l16 -66l-44 -56h-68zM552 22l14 66l64 32l62 -32l14 -66 l-42 -54h-70zM602 472l14 66l64 32l62 -32l14 -66l-42 -56h-70zM622 922l14 66l64 32l62 -32l14 -66l-42 -56h-70zM652 22l14 66l64 32l62 -32l14 -66l-42 -54h-70zM722 922l14 66l64 32l62 -32l14 -66l-42 -56h-70zM752 22l14 66l64 32l62 -32l14 -66l-42 -54h-70z" />
<glyph unicode="&#xca;" d="M122 122l14 66l64 32l62 -32l14 -66l-42 -56h-70zM122 222l14 66l64 32l62 -32l14 -66l-42 -56h-70zM122 322l14 66l64 32l62 -32l14 -66l-42 -56h-70zM122 422l14 66l64 32l62 -32l14 -66l-42 -56h-70zM122 522l14 66l64 32l62 -32l14 -66l-42 -56h-70zM122 622l14 66 l64 32l62 -32l14 -66l-42 -56h-70zM122 722l14 66l64 32l62 -32l14 -66l-42 -56h-70zM122 822l14 66l64 32l62 -32l14 -66l-42 -56h-70zM122 922l14 66l64 32l62 -32l14 -66l-42 -56h-70zM152 22l14 66l64 32l62 -32l14 -66l-42 -54h-70zM210 950l16 68l62 30l62 -30l16 -68 l-44 -54h-70zM222 922l14 66l64 32l62 -32l14 -66l-42 -56h-70zM226 492l16 66l62 32l62 -32l16 -66l-44 -56h-68zM252 22l14 66l64 32l62 -32l14 -66l-42 -54h-70zM270 1030l14 68l64 30l62 -30l16 -68l-44 -54h-70zM322 922l14 66l64 32l62 -32l14 -66l-42 -56h-70z M326 492l16 66l62 32l62 -32l16 -66l-44 -56h-68zM330 1112l14 66l64 30l62 -30l16 -66l-44 -56h-70zM352 22l14 66l64 32l62 -32l14 -66l-42 -54h-70zM394 1144l16 68l62 30l64 -30l14 -68l-42 -54h-70zM422 922l14 66l64 32l62 -32l14 -66l-42 -56h-70zM426 492l16 66 l62 32l62 -32l16 -66l-44 -56h-68zM452 22l14 66l64 32l62 -32l14 -66l-42 -54h-70zM454 1066l16 68l62 30l62 -30l16 -68l-44 -54h-68zM512 984l16 68l62 30l62 -30l16 -68l-44 -54h-68zM522 922l14 66l64 32l62 -32l14 -66l-42 -56h-70zM526 492l16 66l62 32l62 -32 l16 -66l-44 -56h-68zM552 22l14 66l64 32l62 -32l14 -66l-42 -54h-70zM570 902l14 68l64 30l62 -30l16 -68l-44 -54h-70zM602 472l14 66l64 32l62 -32l14 -66l-42 -56h-70zM622 922l14 66l64 32l62 -32l14 -66l-42 -56h-70zM652 22l14 66l64 32l62 -32l14 -66l-42 -54h-70z M722 922l14 66l64 32l62 -32l14 -66l-42 -56h-70zM752 22l14 66l64 32l62 -32l14 -66l-42 -54h-70z" />
<glyph unicode="&#xcb;" d="M122 122l14 66l64 32l62 -32l14 -66l-42 -56h-70zM122 222l14 66l64 32l62 -32l14 -66l-42 -56h-70zM122 322l14 66l64 32l62 -32l14 -66l-42 -56h-70zM122 422l14 66l64 32l62 -32l14 -66l-42 -56h-70zM122 522l14 66l64 32l62 -32l14 -66l-42 -56h-70zM122 622l14 66 l64 32l62 -32l14 -66l-42 -56h-70zM122 722l14 66l64 32l62 -32l14 -66l-42 -56h-70zM122 822l14 66l64 32l62 -32l14 -66l-42 -56h-70zM122 922l14 66l64 32l62 -32l14 -66l-42 -56h-70zM142 1066l16 68l62 30l64 -30l14 -68l-42 -54h-70zM152 22l14 66l64 32l62 -32 l14 -66l-42 -54h-70zM186 1124l16 66l62 32l62 -32l16 -66l-44 -56h-68zM212 1034l14 66l64 32l62 -32l14 -66l-42 -56h-70zM212 1034l14 66l64 32l62 -32l14 -66l-42 -56h-70zM222 922l14 66l64 32l62 -32l14 -66l-42 -56h-70zM226 492l16 66l62 32l62 -32l16 -66l-44 -56 h-68zM252 22l14 66l64 32l62 -32l14 -66l-42 -54h-70zM322 922l14 66l64 32l62 -32l14 -66l-42 -56h-70zM326 492l16 66l62 32l62 -32l16 -66l-44 -56h-68zM352 22l14 66l64 32l62 -32l14 -66l-42 -54h-70zM422 922l14 66l64 32l62 -32l14 -66l-42 -56h-70zM426 492l16 66 l62 32l62 -32l16 -66l-44 -56h-68zM452 22l14 66l64 32l62 -32l14 -66l-42 -54h-70zM522 922l14 66l64 32l62 -32l14 -66l-42 -56h-70zM526 492l16 66l62 32l62 -32l16 -66l-44 -56h-68zM552 22l14 66l64 32l62 -32l14 -66l-42 -54h-70zM558 1066l16 68l62 30l64 -30l14 -68 l-42 -54h-70zM602 472l14 66l64 32l62 -32l14 -66l-42 -56h-70zM602 1124l16 66l62 32l62 -32l16 -66l-44 -56h-68zM622 922l14 66l64 32l62 -32l14 -66l-42 -56h-70zM628 1034l14 66l64 32l62 -32l14 -66l-42 -56h-70zM628 1034l14 66l64 32l62 -32l14 -66l-42 -56h-70z M652 22l14 66l64 32l62 -32l14 -66l-42 -54h-70zM722 922l14 66l64 32l62 -32l14 -66l-42 -56h-70zM752 22l14 66l64 32l62 -32l14 -66l-42 -54h-70z" />
<glyph unicode="&#xcc;" d="M82 1140l16 68l62 30l64 -30l14 -68l-42 -54h-70zM142 1062l16 68l62 30l62 -30l16 -68l-44 -54h-68zM152 22l14 66l64 32l62 -32l14 -66l-42 -54h-70zM152 122l14 66l64 32l62 -32l14 -66l-42 -56h-70zM152 222l14 66l64 32l62 -32l14 -66l-42 -56h-70zM152 322l14 66 l64 32l62 -32l14 -66l-42 -56h-70zM152 422l14 66l64 32l62 -32l14 -66l-42 -56h-70zM152 522l14 66l64 32l62 -32l14 -66l-42 -56h-70zM152 622l14 66l64 32l62 -32l14 -66l-42 -56h-70zM152 722l14 66l64 32l62 -32l14 -66l-42 -56h-70zM152 822l14 66l64 32l62 -32 l14 -66l-42 -56h-70zM152 922l14 66l64 32l62 -32l14 -66l-42 -56h-70zM200 980l16 68l62 30l62 -30l16 -68l-44 -54h-68zM258 898l14 68l64 30l62 -30l16 -68l-44 -54h-70zM330 854l14 66l64 32l62 -32l14 -66l-42 -54h-70z" />
<glyph unicode="&#xcd;" d="M36 868l16 66l62 32l62 -32l16 -66l-44 -52h-68zM96 948l16 68l62 30l62 -30l16 -68l-44 -54h-70zM152 22l14 66l64 32l62 -32l14 -66l-42 -54h-70zM152 122l14 66l64 32l62 -32l14 -66l-42 -56h-70zM152 222l14 66l64 32l62 -32l14 -66l-42 -56h-70zM152 322l14 66 l64 32l62 -32l14 -66l-42 -56h-70zM152 422l14 66l64 32l62 -32l14 -66l-42 -56h-70zM152 522l14 66l64 32l62 -32l14 -66l-42 -56h-70zM152 622l14 66l64 32l62 -32l14 -66l-42 -56h-70zM152 722l14 66l64 32l62 -32l14 -66l-42 -56h-70zM152 822l14 66l64 32l62 -32 l14 -66l-42 -56h-70zM152 922l14 66l64 32l62 -32l14 -66l-42 -56h-70zM156 1028l14 68l64 30l62 -30l16 -68l-44 -54h-70zM216 1110l14 66l64 30l62 -30l16 -66l-44 -56h-70zM280 1142l16 68l62 30l64 -30l14 -68l-42 -54h-70z" />
<glyph unicode="&#xce;" d="M2 950l16 68l62 30l62 -30l16 -68l-44 -54h-70zM62 1030l14 68l64 30l62 -30l16 -68l-44 -54h-70zM122 1112l14 66l64 30l62 -30l16 -66l-44 -56h-70zM152 22l14 66l64 32l62 -32l14 -66l-42 -54h-70zM152 122l14 66l64 32l62 -32l14 -66l-42 -56h-70zM152 222l14 66 l64 32l62 -32l14 -66l-42 -56h-70zM152 322l14 66l64 32l62 -32l14 -66l-42 -56h-70zM152 422l14 66l64 32l62 -32l14 -66l-42 -56h-70zM152 522l14 66l64 32l62 -32l14 -66l-42 -56h-70zM152 622l14 66l64 32l62 -32l14 -66l-42 -56h-70zM152 722l14 66l64 32l62 -32 l14 -66l-42 -56h-70zM152 822l14 66l64 32l62 -32l14 -66l-42 -56h-70zM152 922l14 66l64 32l62 -32l14 -66l-42 -56h-70zM186 1144l16 68l62 30l64 -30l14 -68l-42 -54h-70zM246 1066l16 68l62 30l62 -30l16 -68l-44 -54h-68zM304 984l16 68l62 30l62 -30l16 -68l-44 -54 h-68zM362 902l14 68l64 30l62 -30l16 -68l-44 -54h-70z" />
<glyph unicode="&#xcf;" d="M-92 1066l16 68l62 30l64 -30l14 -68l-42 -54h-70zM-48 1124l16 66l62 32l62 -32l16 -66l-44 -56h-68zM-22 1034l14 66l64 32l62 -32l14 -66l-42 -56h-70zM-22 1034l14 66l64 32l62 -32l14 -66l-42 -56h-70zM152 22l14 66l64 32l62 -32l14 -66l-42 -54h-70zM152 122 l14 66l64 32l62 -32l14 -66l-42 -56h-70zM152 222l14 66l64 32l62 -32l14 -66l-42 -56h-70zM152 322l14 66l64 32l62 -32l14 -66l-42 -56h-70zM152 422l14 66l64 32l62 -32l14 -66l-42 -56h-70zM152 522l14 66l64 32l62 -32l14 -66l-42 -56h-70zM152 622l14 66l64 32l62 -32 l14 -66l-42 -56h-70zM152 722l14 66l64 32l62 -32l14 -66l-42 -56h-70zM152 822l14 66l64 32l62 -32l14 -66l-42 -56h-70zM152 922l14 66l64 32l62 -32l14 -66l-42 -56h-70zM324 1066l16 68l62 30l64 -30l14 -68l-42 -54h-70zM368 1124l16 66l62 32l62 -32l16 -66l-44 -56 h-68zM394 1034l14 66l64 32l62 -32l14 -66l-42 -56h-70zM394 1034l14 66l64 32l62 -32l14 -66l-42 -56h-70z" />
<glyph unicode="&#xd1;" d="M6 986l16 66l62 30l62 -30l16 -66l-44 -56h-70zM64 1058l16 68l62 30l62 -30l16 -68l-44 -54h-68zM122 46l14 68l64 30l62 -30l14 -68l-42 -52h-70zM122 146l14 68l64 30l62 -30l14 -68l-42 -54h-70zM122 246l14 68l64 30l62 -30l14 -68l-42 -54h-70zM122 346l14 68 l64 30l62 -30l14 -68l-42 -54h-70zM122 446l14 68l64 30l62 -30l14 -68l-42 -54h-70zM122 546l14 68l64 30l62 -30l14 -68l-42 -54h-70zM122 646l14 68l64 30l62 -30l14 -68l-42 -54h-70zM122 746l14 68l64 30l62 -30l14 -68l-42 -54h-70zM122 846l14 68l64 30l62 -30 l14 -68l-42 -54h-70zM142 922l14 66l64 32l62 -32l14 -66l-42 -56h-70zM148 1118l16 66l62 30l64 -30l14 -66l-42 -56h-70zM232 852l14 66l64 32l62 -32l14 -66l-42 -56h-70zM242 1140l16 68l62 30l62 -30l16 -68l-44 -54h-68zM276 766l16 66l62 32l62 -32l16 -66l-44 -56 h-68zM280 1142l14 66l64 32l62 -32l14 -66l-42 -56h-70zM324 674l16 68l62 30l62 -30l16 -68l-44 -54h-68zM330 1048l16 68l62 30l62 -30l16 -68l-44 -54h-68zM372 598l14 66l62 30l64 -30l14 -66l-42 -56h-70zM380 1124l16 68l62 30l62 -30l16 -68l-44 -54h-70zM414 992 l16 68l62 30l62 -30l16 -68l-44 -52h-68zM424 512l16 68l62 30l62 -30l16 -68l-42 -54h-70zM464 1072l16 68l62 30l62 -30l16 -68l-42 -54h-70zM478 426l16 68l62 30l62 -30l16 -68l-44 -54h-70zM508 970l16 66l62 30l62 -30l16 -66l-44 -54h-68zM514 998l16 68l62 30 l62 -30l16 -68l-44 -54h-68zM532 342l14 66l62 30l64 -30l14 -66l-42 -56h-70zM584 256l16 68l62 30l62 -30l16 -68l-42 -54h-70zM604 970l16 68l62 30l62 -30l16 -68l-44 -52h-68zM638 170l16 68l62 30l62 -30l16 -68l-44 -54h-70zM692 86l14 66l62 30l64 -30l14 -66 l-42 -56h-70zM700 996l16 68l62 30l64 -30l14 -68l-42 -52h-70zM752 22l14 66l64 32l62 -32l14 -66l-42 -54h-70zM772 1060l16 68l62 30l62 -30l16 -68l-44 -54h-68zM792 122l14 66l64 32l62 -32l14 -66l-42 -56h-70zM792 122l14 66l64 32l62 -32l14 -66l-42 -56h-70z M792 222l14 66l64 32l62 -32l14 -66l-42 -56h-70zM792 316l14 68l64 30l62 -30l14 -68l-42 -54h-70zM792 416l14 68l64 30l62 -30l14 -68l-42 -54h-70zM792 516l14 68l64 30l62 -30l14 -68l-42 -54h-70zM792 616l14 68l64 30l62 -30l14 -68l-42 -54h-70zM792 716l14 68 l64 30l62 -30l14 -68l-42 -54h-70zM792 816l14 68l64 30l62 -30l14 -68l-42 -54h-70zM792 916l14 68l64 30l62 -30l14 -68l-42 -54h-70z" />
<glyph unicode="&#xd2;" d="M62 426l16 68l62 30l62 -30l16 -68l-44 -54h-68zM62 522l16 68l62 30l64 -30l14 -68l-42 -54h-70zM74 328l16 68l62 30l64 -30l14 -68l-42 -54h-70zM76 620l16 68l62 30l62 -30l16 -68l-44 -54h-68zM104 234l16 66l62 30l64 -30l14 -66l-42 -56h-70zM106 714l16 66l62 32 l64 -32l14 -66l-42 -54h-70zM158 148l14 68l64 30l62 -30l14 -68l-42 -54h-70zM160 798l16 68l62 30l62 -30l16 -68l-44 -54h-68zM224 84l16 66l62 32l64 -32l14 -66l-42 -56h-70zM230 868l16 68l62 30l62 -30l16 -68l-42 -54h-70zM282 942l14 66l64 32l62 -32l14 -66 l-42 -56h-70zM282 942l14 66l64 32l62 -32l14 -66l-42 -56h-70zM314 38l14 66l64 30l62 -30l16 -66l-44 -54h-70zM324 1140l16 68l62 30l64 -30l14 -68l-42 -54h-70zM346 942l16 66l62 32l62 -32l16 -66l-44 -56h-68zM384 1062l16 68l62 30l62 -30l16 -68l-44 -54h-68z M412 14l16 68l62 30l64 -30l14 -68l-42 -52h-70zM414 938l16 68l62 30l62 -30l16 -68l-44 -54h-68zM442 980l16 68l62 30l62 -30l16 -68l-44 -54h-68zM476 942l16 66l62 32l62 -32l16 -66l-44 -56h-68zM500 898l14 68l64 30l62 -30l16 -68l-44 -54h-70zM508 12l16 68l62 30 l62 -30l16 -68l-42 -52h-70zM542 912l14 66l64 32l62 -32l14 -66l-42 -56h-70zM572 854l14 66l64 32l62 -32l14 -66l-42 -54h-70zM602 26l16 68l62 30l64 -30l14 -68l-42 -52h-70zM668 900l16 68l62 30l62 -30l16 -68l-44 -54h-68zM696 64l16 68l62 30l64 -30l14 -68 l-42 -54h-70zM750 844l14 68l64 30l62 -30l16 -68l-44 -54h-70zM774 124l16 68l62 30l64 -30l14 -68l-42 -54h-70zM810 774l16 68l62 30l64 -30l14 -68l-42 -54h-70zM832 202l14 66l64 32l62 -32l16 -66l-44 -54h-70zM858 684l14 68l64 30l62 -30l16 -68l-44 -54h-70z M868 294l16 68l62 30l64 -30l14 -68l-42 -54h-70zM882 586l16 66l62 30l64 -30l14 -66l-42 -56h-70zM888 394l14 68l64 30l62 -30l16 -68l-44 -54h-70zM890 488l16 68l62 30l64 -30l14 -68l-42 -54h-70z" />
<glyph unicode="&#xd3;" d="M62 426l16 68l62 30l62 -30l16 -68l-44 -54h-68zM62 522l16 68l62 30l64 -30l14 -68l-42 -54h-70zM74 328l16 68l62 30l64 -30l14 -68l-42 -54h-70zM76 620l16 68l62 30l62 -30l16 -68l-44 -54h-68zM104 234l16 66l62 30l64 -30l14 -66l-42 -56h-70zM106 714l16 66l62 32 l64 -32l14 -66l-42 -54h-70zM158 148l14 68l64 30l62 -30l14 -68l-42 -54h-70zM160 798l16 68l62 30l62 -30l16 -68l-44 -54h-68zM224 84l16 66l62 32l64 -32l14 -66l-42 -56h-70zM230 868l16 68l62 30l62 -30l16 -68l-42 -54h-70zM282 942l14 66l64 32l62 -32l14 -66 l-42 -56h-70zM282 942l14 66l64 32l62 -32l14 -66l-42 -56h-70zM314 38l14 66l64 30l62 -30l16 -66l-44 -54h-70zM326 868l16 66l62 32l62 -32l16 -66l-44 -52h-68zM346 942l16 66l62 32l62 -32l16 -66l-44 -56h-68zM386 948l16 68l62 30l62 -30l16 -68l-44 -54h-70zM412 14 l16 68l62 30l64 -30l14 -68l-42 -52h-70zM414 938l16 68l62 30l62 -30l16 -68l-44 -54h-68zM446 1028l14 68l64 30l62 -30l16 -68l-44 -54h-70zM476 942l16 66l62 32l62 -32l16 -66l-44 -56h-68zM506 1110l14 66l64 30l62 -30l16 -66l-44 -56h-70zM508 12l16 68l62 30 l62 -30l16 -68l-42 -52h-70zM542 912l14 66l64 32l62 -32l14 -66l-42 -56h-70zM570 1142l16 68l62 30l64 -30l14 -68l-42 -54h-70zM602 26l16 68l62 30l64 -30l14 -68l-42 -52h-70zM668 900l16 68l62 30l62 -30l16 -68l-44 -54h-68zM696 64l16 68l62 30l64 -30l14 -68 l-42 -54h-70zM750 844l14 68l64 30l62 -30l16 -68l-44 -54h-70zM774 124l16 68l62 30l64 -30l14 -68l-42 -54h-70zM810 774l16 68l62 30l64 -30l14 -68l-42 -54h-70zM832 202l14 66l64 32l62 -32l16 -66l-44 -54h-70zM858 684l14 68l64 30l62 -30l16 -68l-44 -54h-70z M868 294l16 68l62 30l64 -30l14 -68l-42 -54h-70zM882 586l16 66l62 30l64 -30l14 -66l-42 -56h-70zM888 394l14 68l64 30l62 -30l16 -68l-44 -54h-70zM890 488l16 68l62 30l64 -30l14 -68l-42 -54h-70z" />
<glyph unicode="&#xd4;" d="M62 426l16 68l62 30l62 -30l16 -68l-44 -54h-68zM62 522l16 68l62 30l64 -30l14 -68l-42 -54h-70zM74 328l16 68l62 30l64 -30l14 -68l-42 -54h-70zM76 620l16 68l62 30l62 -30l16 -68l-44 -54h-68zM104 234l16 66l62 30l64 -30l14 -66l-42 -56h-70zM106 714l16 66l62 32 l64 -32l14 -66l-42 -54h-70zM158 148l14 68l64 30l62 -30l14 -68l-42 -54h-70zM160 798l16 68l62 30l62 -30l16 -68l-44 -54h-68zM224 84l16 66l62 32l64 -32l14 -66l-42 -56h-70zM230 868l16 68l62 30l62 -30l16 -68l-42 -54h-70zM268 950l16 68l62 30l62 -30l16 -68 l-44 -54h-70zM282 942l14 66l64 32l62 -32l14 -66l-42 -56h-70zM282 942l14 66l64 32l62 -32l14 -66l-42 -56h-70zM314 38l14 66l64 30l62 -30l16 -66l-44 -54h-70zM328 1030l14 68l64 30l62 -30l16 -68l-44 -54h-70zM346 942l16 66l62 32l62 -32l16 -66l-44 -56h-68z M388 1112l14 66l64 30l62 -30l16 -66l-44 -56h-70zM412 14l16 68l62 30l64 -30l14 -68l-42 -52h-70zM414 938l16 68l62 30l62 -30l16 -68l-44 -54h-68zM452 1144l16 68l62 30l64 -30l14 -68l-42 -54h-70zM476 942l16 66l62 32l62 -32l16 -66l-44 -56h-68zM508 12l16 68 l62 30l62 -30l16 -68l-42 -52h-70zM512 1066l16 68l62 30l62 -30l16 -68l-44 -54h-68zM542 912l14 66l64 32l62 -32l14 -66l-42 -56h-70zM570 984l16 68l62 30l62 -30l16 -68l-44 -54h-68zM602 26l16 68l62 30l64 -30l14 -68l-42 -52h-70zM628 902l14 68l64 30l62 -30 l16 -68l-44 -54h-70zM668 900l16 68l62 30l62 -30l16 -68l-44 -54h-68zM696 64l16 68l62 30l64 -30l14 -68l-42 -54h-70zM750 844l14 68l64 30l62 -30l16 -68l-44 -54h-70zM774 124l16 68l62 30l64 -30l14 -68l-42 -54h-70zM810 774l16 68l62 30l64 -30l14 -68l-42 -54h-70z M832 202l14 66l64 32l62 -32l16 -66l-44 -54h-70zM858 684l14 68l64 30l62 -30l16 -68l-44 -54h-70zM868 294l16 68l62 30l64 -30l14 -68l-42 -54h-70zM882 586l16 66l62 30l64 -30l14 -66l-42 -56h-70zM888 394l14 68l64 30l62 -30l16 -68l-44 -54h-70zM890 488l16 68 l62 30l64 -30l14 -68l-42 -54h-70z" />
<glyph unicode="&#xd5;" d="M6 986l16 66l62 30l62 -30l16 -66l-44 -56h-70zM62 426l16 68l62 30l62 -30l16 -68l-44 -54h-68zM62 522l16 68l62 30l64 -30l14 -68l-42 -54h-70zM64 1058l16 68l62 30l62 -30l16 -68l-44 -54h-68zM74 328l16 68l62 30l64 -30l14 -68l-42 -54h-70zM76 620l16 68l62 30 l62 -30l16 -68l-44 -54h-68zM104 234l16 66l62 30l64 -30l14 -66l-42 -56h-70zM106 714l16 66l62 32l64 -32l14 -66l-42 -54h-70zM148 1118l16 66l62 30l64 -30l14 -66l-42 -56h-70zM158 148l14 68l64 30l62 -30l14 -68l-42 -54h-70zM160 798l16 68l62 30l62 -30l16 -68 l-44 -54h-68zM224 84l16 66l62 32l64 -32l14 -66l-42 -56h-70zM230 868l16 68l62 30l62 -30l16 -68l-42 -54h-70zM242 1140l16 68l62 30l62 -30l16 -68l-44 -54h-68zM280 1142l14 66l64 32l62 -32l14 -66l-42 -56h-70zM282 942l14 66l64 32l62 -32l14 -66l-42 -56h-70z M282 942l14 66l64 32l62 -32l14 -66l-42 -56h-70zM314 38l14 66l64 30l62 -30l16 -66l-44 -54h-70zM330 1048l16 68l62 30l62 -30l16 -68l-44 -54h-68zM346 942l16 66l62 32l62 -32l16 -66l-44 -56h-68zM380 1124l16 68l62 30l62 -30l16 -68l-44 -54h-70zM412 14l16 68 l62 30l64 -30l14 -68l-42 -52h-70zM414 938l16 68l62 30l62 -30l16 -68l-44 -54h-68zM414 992l16 68l62 30l62 -30l16 -68l-44 -52h-68zM464 1072l16 68l62 30l62 -30l16 -68l-42 -54h-70zM476 942l16 66l62 32l62 -32l16 -66l-44 -56h-68zM508 12l16 68l62 30l62 -30 l16 -68l-42 -52h-70zM508 970l16 66l62 30l62 -30l16 -66l-44 -54h-68zM514 998l16 68l62 30l62 -30l16 -68l-44 -54h-68zM542 912l14 66l64 32l62 -32l14 -66l-42 -56h-70zM602 26l16 68l62 30l64 -30l14 -68l-42 -52h-70zM604 970l16 68l62 30l62 -30l16 -68l-44 -52h-68z M668 900l16 68l62 30l62 -30l16 -68l-44 -54h-68zM696 64l16 68l62 30l64 -30l14 -68l-42 -54h-70zM700 996l16 68l62 30l64 -30l14 -68l-42 -52h-70zM750 844l14 68l64 30l62 -30l16 -68l-44 -54h-70zM772 1060l16 68l62 30l62 -30l16 -68l-44 -54h-68zM774 124l16 68 l62 30l64 -30l14 -68l-42 -54h-70zM810 774l16 68l62 30l64 -30l14 -68l-42 -54h-70zM832 202l14 66l64 32l62 -32l16 -66l-44 -54h-70zM858 684l14 68l64 30l62 -30l16 -68l-44 -54h-70zM868 294l16 68l62 30l64 -30l14 -68l-42 -54h-70zM882 586l16 66l62 30l64 -30 l14 -66l-42 -56h-70zM888 394l14 68l64 30l62 -30l16 -68l-44 -54h-70zM890 488l16 68l62 30l64 -30l14 -68l-42 -54h-70z" />
<glyph unicode="&#xd6;" d="M62 426l16 68l62 30l62 -30l16 -68l-44 -54h-68zM62 522l16 68l62 30l64 -30l14 -68l-42 -54h-70zM74 328l16 68l62 30l64 -30l14 -68l-42 -54h-70zM76 620l16 68l62 30l62 -30l16 -68l-44 -54h-68zM104 234l16 66l62 30l64 -30l14 -66l-42 -56h-70zM106 714l16 66l62 32 l64 -32l14 -66l-42 -54h-70zM158 148l14 68l64 30l62 -30l14 -68l-42 -54h-70zM160 798l16 68l62 30l62 -30l16 -68l-44 -54h-68zM202 1066l16 68l62 30l64 -30l14 -68l-42 -54h-70zM224 84l16 66l62 32l64 -32l14 -66l-42 -56h-70zM230 868l16 68l62 30l62 -30l16 -68 l-42 -54h-70zM246 1124l16 66l62 32l62 -32l16 -66l-44 -56h-68zM272 1034l14 66l64 32l62 -32l14 -66l-42 -56h-70zM272 1034l14 66l64 32l62 -32l14 -66l-42 -56h-70zM282 942l14 66l64 32l62 -32l14 -66l-42 -56h-70zM282 942l14 66l64 32l62 -32l14 -66l-42 -56h-70z M314 38l14 66l64 30l62 -30l16 -66l-44 -54h-70zM346 942l16 66l62 32l62 -32l16 -66l-44 -56h-68zM412 14l16 68l62 30l64 -30l14 -68l-42 -52h-70zM414 938l16 68l62 30l62 -30l16 -68l-44 -54h-68zM476 942l16 66l62 32l62 -32l16 -66l-44 -56h-68zM508 12l16 68l62 30 l62 -30l16 -68l-42 -52h-70zM542 912l14 66l64 32l62 -32l14 -66l-42 -56h-70zM602 26l16 68l62 30l64 -30l14 -68l-42 -52h-70zM618 1066l16 68l62 30l64 -30l14 -68l-42 -54h-70zM662 1124l16 66l62 32l62 -32l16 -66l-44 -56h-68zM668 900l16 68l62 30l62 -30l16 -68 l-44 -54h-68zM688 1034l14 66l64 32l62 -32l14 -66l-42 -56h-70zM688 1034l14 66l64 32l62 -32l14 -66l-42 -56h-70zM696 64l16 68l62 30l64 -30l14 -68l-42 -54h-70zM750 844l14 68l64 30l62 -30l16 -68l-44 -54h-70zM774 124l16 68l62 30l64 -30l14 -68l-42 -54h-70z M810 774l16 68l62 30l64 -30l14 -68l-42 -54h-70zM832 202l14 66l64 32l62 -32l16 -66l-44 -54h-70zM858 684l14 68l64 30l62 -30l16 -68l-44 -54h-70zM868 294l16 68l62 30l64 -30l14 -68l-42 -54h-70zM882 586l16 66l62 30l64 -30l14 -66l-42 -56h-70zM888 394l14 68 l64 30l62 -30l16 -68l-44 -54h-70zM890 488l16 68l62 30l64 -30l14 -68l-42 -54h-70z" />
<glyph unicode="&#xd8;" d="M62 426l16 68l62 30l62 -30l16 -68l-44 -54h-68zM62 522l16 68l62 30l64 -30l14 -68l-42 -54h-70zM74 328l16 68l62 30l64 -30l14 -68l-42 -54h-70zM76 620l16 68l62 30l62 -30l16 -68l-44 -54h-68zM86 22l14 66l64 32l62 -32l14 -66l-42 -54h-70zM94 94l16 68l62 30 l62 -30l16 -68l-44 -54h-68zM104 234l16 66l62 30l64 -30l14 -66l-42 -56h-70zM106 714l16 66l62 32l64 -32l14 -66l-42 -54h-70zM158 148l14 68l64 30l62 -30l14 -68l-42 -54h-70zM158 172l14 68l64 30l62 -30l16 -68l-44 -54h-70zM160 798l16 68l62 30l62 -30l16 -68 l-44 -54h-68zM220 250l16 68l62 30l62 -30l16 -68l-42 -54h-70zM224 84l16 66l62 32l64 -32l14 -66l-42 -56h-70zM230 868l16 68l62 30l62 -30l16 -68l-42 -54h-70zM282 942l14 66l64 32l62 -32l14 -66l-42 -56h-70zM282 942l14 66l64 32l62 -32l14 -66l-42 -56h-70z M284 328l16 68l62 30l62 -30l16 -68l-44 -54h-70zM314 38l14 66l64 30l62 -30l16 -66l-44 -54h-70zM346 406l16 68l62 30l64 -30l14 -68l-42 -54h-70zM346 942l16 66l62 32l62 -32l16 -66l-44 -56h-68zM410 484l16 66l62 30l62 -30l16 -66l-44 -56h-68zM412 14l16 68l62 30 l64 -30l14 -68l-42 -52h-70zM414 938l16 68l62 30l62 -30l16 -68l-44 -54h-68zM474 560l14 68l64 30l62 -30l16 -68l-44 -54h-70zM476 942l16 66l62 32l62 -32l16 -66l-44 -56h-68zM508 12l16 68l62 30l62 -30l16 -68l-42 -52h-70zM536 638l16 68l62 30l62 -30l16 -68 l-42 -54h-70zM542 912l14 66l64 32l62 -32l14 -66l-42 -56h-70zM600 716l16 68l62 30l62 -30l16 -68l-44 -54h-70zM602 26l16 68l62 30l64 -30l14 -68l-42 -52h-70zM662 794l16 68l62 30l64 -30l14 -68l-42 -54h-70zM668 900l16 68l62 30l62 -30l16 -68l-44 -54h-68z M692 874l16 68l62 30l62 -30l16 -68l-44 -54h-68zM696 64l16 68l62 30l64 -30l14 -68l-42 -54h-70zM746 922l14 66l64 32l62 -32l14 -66l-42 -56h-70zM750 844l14 68l64 30l62 -30l16 -68l-44 -54h-70zM774 124l16 68l62 30l64 -30l14 -68l-42 -54h-70zM810 774l16 68l62 30 l64 -30l14 -68l-42 -54h-70zM832 202l14 66l64 32l62 -32l16 -66l-44 -54h-70zM858 684l14 68l64 30l62 -30l16 -68l-44 -54h-70zM868 294l16 68l62 30l64 -30l14 -68l-42 -54h-70zM882 586l16 66l62 30l64 -30l14 -66l-42 -56h-70zM888 394l14 68l64 30l62 -30l16 -68 l-44 -54h-70zM890 488l16 68l62 30l64 -30l14 -68l-42 -54h-70z" />
<glyph unicode="&#xd9;" d="M102 342l14 66l64 32l62 -32l14 -66l-42 -56h-70zM102 442l14 66l64 32l62 -32l14 -66l-42 -56h-70zM102 542l14 66l64 32l62 -32l14 -66l-42 -56h-70zM102 642l14 66l64 32l62 -32l14 -66l-42 -56h-70zM102 742l14 66l64 32l62 -32l14 -66l-42 -56h-70zM102 842l14 66 l64 32l62 -32l14 -66l-42 -56h-70zM108 250l16 66l62 32l64 -32l14 -66l-42 -56h-70zM116 922l16 66l62 32l62 -32l16 -66l-44 -56h-68zM142 154l16 66l62 32l62 -32l16 -66l-44 -56h-70zM204 80l16 68l62 30l62 -30l16 -68l-44 -54h-68zM288 36l16 68l62 30l62 -30l16 -68 l-44 -52h-68zM324 1140l16 68l62 30l64 -30l14 -68l-42 -54h-70zM384 1062l16 68l62 30l62 -30l16 -68l-44 -54h-68zM390 14l14 68l64 30l62 -30l16 -68l-44 -52h-70zM442 980l16 68l62 30l62 -30l16 -68l-44 -54h-68zM480 12l16 68l62 30l64 -30l14 -68l-42 -52h-70z M500 898l14 68l64 30l62 -30l16 -68l-44 -54h-70zM572 854l14 66l64 32l62 -32l14 -66l-42 -54h-70zM580 26l16 68l62 30l62 -30l16 -68l-44 -52h-68zM670 66l16 66l62 30l62 -30l16 -66l-44 -56h-70zM740 136l14 66l64 30l62 -30l16 -66l-44 -56h-70zM778 226l16 66l62 30 l62 -30l16 -66l-44 -56h-68zM790 324l16 68l62 30l64 -30l14 -68l-42 -54h-70zM792 422l14 66l64 32l62 -32l14 -66l-42 -56h-70zM792 522l14 66l64 32l62 -32l14 -66l-42 -56h-70zM792 622l14 66l64 32l62 -32l14 -66l-42 -56h-70zM792 722l14 66l64 32l62 -32l14 -66 l-42 -56h-70zM792 822l14 66l64 32l62 -32l14 -66l-42 -56h-70zM792 922l14 66l64 32l62 -32l14 -66l-42 -56h-70z" />
<glyph unicode="&#xda;" d="M102 342l14 66l64 32l62 -32l14 -66l-42 -56h-70zM102 442l14 66l64 32l62 -32l14 -66l-42 -56h-70zM102 542l14 66l64 32l62 -32l14 -66l-42 -56h-70zM102 642l14 66l64 32l62 -32l14 -66l-42 -56h-70zM102 742l14 66l64 32l62 -32l14 -66l-42 -56h-70zM102 842l14 66 l64 32l62 -32l14 -66l-42 -56h-70zM108 250l16 66l62 32l64 -32l14 -66l-42 -56h-70zM116 922l16 66l62 32l62 -32l16 -66l-44 -56h-68zM142 154l16 66l62 32l62 -32l16 -66l-44 -56h-70zM204 80l16 68l62 30l62 -30l16 -68l-44 -54h-68zM232 868l16 66l62 32l62 -32l16 -66 l-44 -52h-68zM288 36l16 68l62 30l62 -30l16 -68l-44 -52h-68zM292 948l16 68l62 30l62 -30l16 -68l-44 -54h-70zM352 1028l14 68l64 30l62 -30l16 -68l-44 -54h-70zM390 14l14 68l64 30l62 -30l16 -68l-44 -52h-70zM412 1110l14 66l64 30l62 -30l16 -66l-44 -56h-70z M476 1142l16 68l62 30l64 -30l14 -68l-42 -54h-70zM480 12l16 68l62 30l64 -30l14 -68l-42 -52h-70zM580 26l16 68l62 30l62 -30l16 -68l-44 -52h-68zM670 66l16 66l62 30l62 -30l16 -66l-44 -56h-70zM740 136l14 66l64 30l62 -30l16 -66l-44 -56h-70zM778 226l16 66l62 30 l62 -30l16 -66l-44 -56h-68zM790 324l16 68l62 30l64 -30l14 -68l-42 -54h-70zM792 422l14 66l64 32l62 -32l14 -66l-42 -56h-70zM792 522l14 66l64 32l62 -32l14 -66l-42 -56h-70zM792 622l14 66l64 32l62 -32l14 -66l-42 -56h-70zM792 722l14 66l64 32l62 -32l14 -66 l-42 -56h-70zM792 822l14 66l64 32l62 -32l14 -66l-42 -56h-70zM792 922l14 66l64 32l62 -32l14 -66l-42 -56h-70z" />
<glyph unicode="&#xdb;" d="M102 342l14 66l64 32l62 -32l14 -66l-42 -56h-70zM102 442l14 66l64 32l62 -32l14 -66l-42 -56h-70zM102 542l14 66l64 32l62 -32l14 -66l-42 -56h-70zM102 642l14 66l64 32l62 -32l14 -66l-42 -56h-70zM102 742l14 66l64 32l62 -32l14 -66l-42 -56h-70zM102 842l14 66 l64 32l62 -32l14 -66l-42 -56h-70zM108 250l16 66l62 32l64 -32l14 -66l-42 -56h-70zM116 922l16 66l62 32l62 -32l16 -66l-44 -56h-68zM142 154l16 66l62 32l62 -32l16 -66l-44 -56h-70zM204 80l16 68l62 30l62 -30l16 -68l-44 -54h-68zM210 950l16 68l62 30l62 -30l16 -68 l-44 -54h-70zM270 1030l14 68l64 30l62 -30l16 -68l-44 -54h-70zM288 36l16 68l62 30l62 -30l16 -68l-44 -52h-68zM330 1112l14 66l64 30l62 -30l16 -66l-44 -56h-70zM390 14l14 68l64 30l62 -30l16 -68l-44 -52h-70zM394 1144l16 68l62 30l64 -30l14 -68l-42 -54h-70z M454 1066l16 68l62 30l62 -30l16 -68l-44 -54h-68zM480 12l16 68l62 30l64 -30l14 -68l-42 -52h-70zM512 984l16 68l62 30l62 -30l16 -68l-44 -54h-68zM570 902l14 68l64 30l62 -30l16 -68l-44 -54h-70zM580 26l16 68l62 30l62 -30l16 -68l-44 -52h-68zM670 66l16 66l62 30 l62 -30l16 -66l-44 -56h-70zM740 136l14 66l64 30l62 -30l16 -66l-44 -56h-70zM778 226l16 66l62 30l62 -30l16 -66l-44 -56h-68zM790 324l16 68l62 30l64 -30l14 -68l-42 -54h-70zM792 422l14 66l64 32l62 -32l14 -66l-42 -56h-70zM792 522l14 66l64 32l62 -32l14 -66 l-42 -56h-70zM792 622l14 66l64 32l62 -32l14 -66l-42 -56h-70zM792 722l14 66l64 32l62 -32l14 -66l-42 -56h-70zM792 822l14 66l64 32l62 -32l14 -66l-42 -56h-70zM792 922l14 66l64 32l62 -32l14 -66l-42 -56h-70z" />
<glyph unicode="&#xdc;" d="M102 342l14 66l64 32l62 -32l14 -66l-42 -56h-70zM102 442l14 66l64 32l62 -32l14 -66l-42 -56h-70zM102 542l14 66l64 32l62 -32l14 -66l-42 -56h-70zM102 642l14 66l64 32l62 -32l14 -66l-42 -56h-70zM102 742l14 66l64 32l62 -32l14 -66l-42 -56h-70zM102 842l14 66 l64 32l62 -32l14 -66l-42 -56h-70zM108 250l16 66l62 32l64 -32l14 -66l-42 -56h-70zM116 922l16 66l62 32l62 -32l16 -66l-44 -56h-68zM142 154l16 66l62 32l62 -32l16 -66l-44 -56h-70zM172 1066l16 68l62 30l64 -30l14 -68l-42 -54h-70zM204 80l16 68l62 30l62 -30 l16 -68l-44 -54h-68zM216 1124l16 66l62 32l62 -32l16 -66l-44 -56h-68zM242 1034l14 66l64 32l62 -32l14 -66l-42 -56h-70zM242 1034l14 66l64 32l62 -32l14 -66l-42 -56h-70zM288 36l16 68l62 30l62 -30l16 -68l-44 -52h-68zM390 14l14 68l64 30l62 -30l16 -68l-44 -52 h-70zM480 12l16 68l62 30l64 -30l14 -68l-42 -52h-70zM580 26l16 68l62 30l62 -30l16 -68l-44 -52h-68zM588 1066l16 68l62 30l64 -30l14 -68l-42 -54h-70zM632 1124l16 66l62 32l62 -32l16 -66l-44 -56h-68zM658 1034l14 66l64 32l62 -32l14 -66l-42 -56h-70zM658 1034 l14 66l64 32l62 -32l14 -66l-42 -56h-70zM670 66l16 66l62 30l62 -30l16 -66l-44 -56h-70zM740 136l14 66l64 30l62 -30l16 -66l-44 -56h-70zM778 226l16 66l62 30l62 -30l16 -66l-44 -56h-68zM790 324l16 68l62 30l64 -30l14 -68l-42 -54h-70zM792 422l14 66l64 32l62 -32 l14 -66l-42 -56h-70zM792 522l14 66l64 32l62 -32l14 -66l-42 -56h-70zM792 622l14 66l64 32l62 -32l14 -66l-42 -56h-70zM792 722l14 66l64 32l62 -32l14 -66l-42 -56h-70zM792 822l14 66l64 32l62 -32l14 -66l-42 -56h-70zM792 922l14 66l64 32l62 -32l14 -66l-42 -56h-70 z" />
<glyph unicode="&#xdd;" d="M60 904l16 68l62 30l64 -30l14 -68l-42 -54h-70zM110 816l16 68l62 30l62 -30l16 -68l-42 -54h-70zM158 732l14 68l64 30l62 -30l16 -68l-44 -54h-70zM208 646l14 66l64 32l62 -32l14 -66l-42 -56h-70zM232 868l16 66l62 32l62 -32l16 -66l-44 -52h-68zM256 558l16 68 l62 30l64 -30l14 -68l-42 -54h-70zM292 948l16 68l62 30l62 -30l16 -68l-44 -54h-70zM306 470l16 68l62 30l62 -30l16 -68l-44 -54h-68zM352 1028l14 68l64 30l62 -30l16 -68l-44 -54h-70zM362 22l14 66l64 32l62 -32l14 -66l-42 -54h-70zM362 116l14 68l64 30l62 -30 l14 -68l-42 -54h-70zM362 216l14 68l64 30l62 -30l14 -68l-42 -54h-70zM362 316l14 68l64 30l62 -30l14 -68l-42 -54h-70zM382 398l14 68l64 30l62 -30l14 -68l-42 -54h-70zM412 1110l14 66l64 30l62 -30l16 -66l-44 -56h-70zM432 486l14 68l64 30l62 -30l14 -68l-42 -54 h-70zM476 1142l16 68l62 30l64 -30l14 -68l-42 -54h-70zM482 572l14 68l64 30l62 -30l14 -68l-42 -54h-70zM532 660l14 68l64 30l62 -30l14 -68l-42 -54h-70zM582 748l14 66l64 30l62 -30l14 -66l-42 -56h-70zM632 834l14 68l64 30l62 -30l14 -68l-42 -54h-70zM682 922 l14 66l64 32l62 -32l14 -66l-42 -56h-70z" />
<glyph unicode="&#xe0;" d="M52 182l16 68l62 30l62 -30l16 -68l-44 -54h-68zM68 90l16 68l62 30l62 -30l16 -68l-44 -54h-70zM82 566l14 68l64 30l62 -30l14 -68l-42 -54h-70zM92 272l14 66l64 32l62 -32l14 -66l-42 -56h-70zM126 634l16 68l62 30l62 -30l16 -68l-44 -54h-68zM138 32l14 68l64 30 l62 -30l16 -68l-44 -52h-70zM178 316l14 68l64 30l62 -30l16 -68l-44 -54h-70zM208 682l16 68l62 30l62 -30l16 -68l-44 -54h-68zM234 12l16 68l62 30l62 -30l16 -68l-42 -52h-70zM238 912l16 68l62 30l64 -30l14 -68l-42 -54h-70zM270 340l16 68l62 30l62 -30l16 -68 l-44 -54h-68zM298 834l16 68l62 30l62 -30l16 -68l-44 -54h-68zM304 700l16 68l62 30l64 -30l14 -68l-42 -54h-70zM330 20l16 66l62 30l64 -30l14 -66l-42 -54h-70zM356 752l16 68l62 30l62 -30l16 -68l-44 -54h-68zM368 354l16 68l62 30l64 -30l14 -68l-42 -54h-70z M398 694l16 68l62 30l62 -30l16 -68l-44 -54h-70zM414 670l14 68l64 30l62 -30l16 -68l-44 -54h-70zM416 54l16 66l62 30l62 -30l16 -66l-44 -54h-68zM462 82l14 66l64 32l62 -32l14 -66l-42 -56h-70zM466 378l16 68l62 30l62 -30l16 -68l-42 -54h-70zM486 626l14 66l64 32 l62 -32l14 -66l-42 -54h-70zM488 652l16 68l62 30l62 -30l16 -68l-42 -54h-70zM522 154l14 68l64 30l62 -30l14 -68l-42 -54h-70zM542 76l16 68l62 30l64 -30l14 -68l-42 -54h-70zM550 582l16 68l62 30l64 -30l14 -68l-42 -54h-70zM570 340l16 68l62 30l62 -30l16 -68 l-44 -54h-68zM572 252l14 66l64 32l62 -32l14 -66l-42 -56h-70zM572 392l14 66l64 32l62 -32l14 -66l-42 -56h-70zM572 482l14 66l64 32l62 -32l14 -66l-42 -56h-70zM610 14l16 68l62 30l64 -30l14 -68l-42 -52h-70zM672 22l14 66l64 32l62 -32l14 -66l-42 -54h-70zM672 22 l14 66l64 32l62 -32l14 -66l-42 -54h-70z" />
<glyph unicode="&#xe1;" d="M52 182l16 68l62 30l62 -30l16 -68l-44 -54h-68zM68 90l16 68l62 30l62 -30l16 -68l-44 -54h-70zM82 566l14 68l64 30l62 -30l14 -68l-42 -54h-70zM92 272l14 66l64 32l62 -32l14 -66l-42 -56h-70zM126 634l16 68l62 30l62 -30l16 -68l-44 -54h-68zM138 32l14 68l64 30 l62 -30l16 -68l-44 -52h-70zM178 316l14 68l64 30l62 -30l16 -68l-44 -54h-70zM208 682l16 68l62 30l62 -30l16 -68l-44 -54h-68zM222 638l16 66l62 32l62 -32l16 -66l-44 -52h-68zM234 12l16 68l62 30l62 -30l16 -68l-42 -52h-70zM270 340l16 68l62 30l62 -30l16 -68 l-44 -54h-68zM282 718l16 68l62 30l62 -30l16 -68l-44 -54h-70zM304 700l16 68l62 30l64 -30l14 -68l-42 -54h-70zM330 20l16 66l62 30l64 -30l14 -66l-42 -54h-70zM342 798l14 68l64 30l62 -30l16 -68l-44 -54h-70zM368 354l16 68l62 30l64 -30l14 -68l-42 -54h-70z M398 694l16 68l62 30l62 -30l16 -68l-44 -54h-70zM402 880l14 66l64 30l62 -30l16 -66l-44 -56h-70zM416 54l16 66l62 30l62 -30l16 -66l-44 -54h-68zM462 82l14 66l64 32l62 -32l14 -66l-42 -56h-70zM466 378l16 68l62 30l62 -30l16 -68l-42 -54h-70zM466 912l16 68l62 30 l64 -30l14 -68l-42 -54h-70zM488 652l16 68l62 30l62 -30l16 -68l-42 -54h-70zM522 154l14 68l64 30l62 -30l14 -68l-42 -54h-70zM542 76l16 68l62 30l64 -30l14 -68l-42 -54h-70zM550 582l16 68l62 30l64 -30l14 -68l-42 -54h-70zM570 340l16 68l62 30l62 -30l16 -68 l-44 -54h-68zM572 252l14 66l64 32l62 -32l14 -66l-42 -56h-70zM572 392l14 66l64 32l62 -32l14 -66l-42 -56h-70zM572 482l14 66l64 32l62 -32l14 -66l-42 -56h-70zM610 14l16 68l62 30l64 -30l14 -68l-42 -52h-70zM672 22l14 66l64 32l62 -32l14 -66l-42 -54h-70zM672 22 l14 66l64 32l62 -32l14 -66l-42 -54h-70z" />
<glyph unicode="&#xe2;" d="M52 182l16 68l62 30l62 -30l16 -68l-44 -54h-68zM68 90l16 68l62 30l62 -30l16 -68l-44 -54h-70zM82 566l14 68l64 30l62 -30l14 -68l-42 -54h-70zM92 272l14 66l64 32l62 -32l14 -66l-42 -56h-70zM126 634l16 68l62 30l62 -30l16 -68l-44 -54h-68zM138 32l14 68l64 30 l62 -30l16 -68l-44 -52h-70zM150 718l16 68l62 30l62 -30l16 -68l-44 -54h-70zM178 316l14 68l64 30l62 -30l16 -68l-44 -54h-70zM208 682l16 68l62 30l62 -30l16 -68l-44 -54h-68zM210 798l14 68l64 30l62 -30l16 -68l-44 -54h-70zM234 12l16 68l62 30l62 -30l16 -68 l-42 -52h-70zM270 340l16 68l62 30l62 -30l16 -68l-44 -54h-68zM270 880l14 66l64 30l62 -30l16 -66l-44 -56h-70zM304 700l16 68l62 30l64 -30l14 -68l-42 -54h-70zM330 20l16 66l62 30l64 -30l14 -66l-42 -54h-70zM334 912l16 68l62 30l64 -30l14 -68l-42 -54h-70z M368 354l16 68l62 30l64 -30l14 -68l-42 -54h-70zM394 834l16 68l62 30l62 -30l16 -68l-44 -54h-68zM398 694l16 68l62 30l62 -30l16 -68l-44 -54h-70zM416 54l16 66l62 30l62 -30l16 -66l-44 -54h-68zM452 752l16 68l62 30l62 -30l16 -68l-44 -54h-68zM462 82l14 66l64 32 l62 -32l14 -66l-42 -56h-70zM466 378l16 68l62 30l62 -30l16 -68l-42 -54h-70zM488 652l16 68l62 30l62 -30l16 -68l-42 -54h-70zM510 670l14 68l64 30l62 -30l16 -68l-44 -54h-70zM522 154l14 68l64 30l62 -30l14 -68l-42 -54h-70zM542 76l16 68l62 30l64 -30l14 -68 l-42 -54h-70zM550 582l16 68l62 30l64 -30l14 -68l-42 -54h-70zM570 340l16 68l62 30l62 -30l16 -68l-44 -54h-68zM572 252l14 66l64 32l62 -32l14 -66l-42 -56h-70zM572 392l14 66l64 32l62 -32l14 -66l-42 -56h-70zM572 482l14 66l64 32l62 -32l14 -66l-42 -56h-70z M610 14l16 68l62 30l64 -30l14 -68l-42 -52h-70zM672 22l14 66l64 32l62 -32l14 -66l-42 -54h-70zM672 22l14 66l64 32l62 -32l14 -66l-42 -54h-70z" />
<glyph unicode="&#xe3;" d="M-12 768l16 66l62 30l62 -30l16 -66l-44 -56h-70zM46 840l16 68l62 30l62 -30l16 -68l-44 -54h-68zM52 182l16 68l62 30l62 -30l16 -68l-44 -54h-68zM68 90l16 68l62 30l62 -30l16 -68l-44 -54h-70zM82 566l14 68l64 30l62 -30l14 -68l-42 -54h-70zM92 272l14 66l64 32 l62 -32l14 -66l-42 -56h-70zM126 634l16 68l62 30l62 -30l16 -68l-44 -54h-68zM130 900l16 66l62 30l64 -30l14 -66l-42 -56h-70zM138 32l14 68l64 30l62 -30l16 -68l-44 -52h-70zM178 316l14 68l64 30l62 -30l16 -68l-44 -54h-70zM208 682l16 68l62 30l62 -30l16 -68 l-44 -54h-68zM224 922l16 68l62 30l62 -30l16 -68l-44 -54h-68zM234 12l16 68l62 30l62 -30l16 -68l-42 -52h-70zM262 924l14 66l64 32l62 -32l14 -66l-42 -56h-70zM270 340l16 68l62 30l62 -30l16 -68l-44 -54h-68zM304 700l16 68l62 30l64 -30l14 -68l-42 -54h-70z M312 830l16 68l62 30l62 -30l16 -68l-44 -54h-68zM330 20l16 66l62 30l64 -30l14 -66l-42 -54h-70zM362 906l16 68l62 30l62 -30l16 -68l-44 -54h-70zM368 354l16 68l62 30l64 -30l14 -68l-42 -54h-70zM396 774l16 68l62 30l62 -30l16 -68l-44 -52h-68zM398 694l16 68l62 30 l62 -30l16 -68l-44 -54h-70zM416 54l16 66l62 30l62 -30l16 -66l-44 -54h-68zM446 854l16 68l62 30l62 -30l16 -68l-42 -54h-70zM462 82l14 66l64 32l62 -32l14 -66l-42 -56h-70zM466 378l16 68l62 30l62 -30l16 -68l-42 -54h-70zM488 652l16 68l62 30l62 -30l16 -68 l-42 -54h-70zM490 752l16 66l62 30l62 -30l16 -66l-44 -54h-68zM496 780l16 68l62 30l62 -30l16 -68l-44 -54h-68zM522 154l14 68l64 30l62 -30l14 -68l-42 -54h-70zM542 76l16 68l62 30l64 -30l14 -68l-42 -54h-70zM550 582l16 68l62 30l64 -30l14 -68l-42 -54h-70z M570 340l16 68l62 30l62 -30l16 -68l-44 -54h-68zM572 252l14 66l64 32l62 -32l14 -66l-42 -56h-70zM572 392l14 66l64 32l62 -32l14 -66l-42 -56h-70zM572 482l14 66l64 32l62 -32l14 -66l-42 -56h-70zM586 752l16 68l62 30l62 -30l16 -68l-44 -52h-68zM610 14l16 68l62 30 l64 -30l14 -68l-42 -52h-70zM672 22l14 66l64 32l62 -32l14 -66l-42 -54h-70zM672 22l14 66l64 32l62 -32l14 -66l-42 -54h-70zM682 778l16 68l62 30l64 -30l14 -68l-42 -52h-70zM754 842l16 68l62 30l62 -30l16 -68l-44 -54h-68z" />
<glyph unicode="&#xe4;" d="M52 182l16 68l62 30l62 -30l16 -68l-44 -54h-68zM68 90l16 68l62 30l62 -30l16 -68l-44 -54h-70zM72 856l16 68l62 30l64 -30l14 -68l-42 -54h-70zM82 566l14 68l64 30l62 -30l14 -68l-42 -54h-70zM92 272l14 66l64 32l62 -32l14 -66l-42 -56h-70zM116 914l16 66l62 32 l62 -32l16 -66l-44 -56h-68zM126 634l16 68l62 30l62 -30l16 -68l-44 -54h-68zM138 32l14 68l64 30l62 -30l16 -68l-44 -52h-70zM142 824l14 66l64 32l62 -32l14 -66l-42 -56h-70zM142 824l14 66l64 32l62 -32l14 -66l-42 -56h-70zM178 316l14 68l64 30l62 -30l16 -68 l-44 -54h-70zM208 682l16 68l62 30l62 -30l16 -68l-44 -54h-68zM234 12l16 68l62 30l62 -30l16 -68l-42 -52h-70zM270 340l16 68l62 30l62 -30l16 -68l-44 -54h-68zM304 700l16 68l62 30l64 -30l14 -68l-42 -54h-70zM330 20l16 66l62 30l64 -30l14 -66l-42 -54h-70zM368 354 l16 68l62 30l64 -30l14 -68l-42 -54h-70zM398 694l16 68l62 30l62 -30l16 -68l-44 -54h-70zM416 54l16 66l62 30l62 -30l16 -66l-44 -54h-68zM462 82l14 66l64 32l62 -32l14 -66l-42 -56h-70zM466 378l16 68l62 30l62 -30l16 -68l-42 -54h-70zM488 652l16 68l62 30l62 -30 l16 -68l-42 -54h-70zM488 856l16 68l62 30l64 -30l14 -68l-42 -54h-70zM522 154l14 68l64 30l62 -30l14 -68l-42 -54h-70zM532 914l16 66l62 32l62 -32l16 -66l-44 -56h-68zM542 76l16 68l62 30l64 -30l14 -68l-42 -54h-70zM550 582l16 68l62 30l64 -30l14 -68l-42 -54h-70z M558 824l14 66l64 32l62 -32l14 -66l-42 -56h-70zM558 824l14 66l64 32l62 -32l14 -66l-42 -56h-70zM570 340l16 68l62 30l62 -30l16 -68l-44 -54h-68zM572 252l14 66l64 32l62 -32l14 -66l-42 -56h-70zM572 392l14 66l64 32l62 -32l14 -66l-42 -56h-70zM572 482l14 66 l64 32l62 -32l14 -66l-42 -56h-70zM610 14l16 68l62 30l64 -30l14 -68l-42 -52h-70zM672 22l14 66l64 32l62 -32l14 -66l-42 -54h-70zM672 22l14 66l64 32l62 -32l14 -66l-42 -54h-70z" />
<glyph unicode="&#xe5;" d="M52 182l16 68l62 30l62 -30l16 -68l-44 -54h-68zM68 90l16 68l62 30l62 -30l16 -68l-44 -54h-70zM82 566l14 68l64 30l62 -30l14 -68l-42 -54h-70zM92 272l14 66l64 32l62 -32l14 -66l-42 -56h-70zM126 634l16 68l62 30l62 -30l16 -68l-44 -54h-68zM138 32l14 68l64 30 l62 -30l16 -68l-44 -52h-70zM178 316l14 68l64 30l62 -30l16 -68l-44 -54h-70zM208 682l16 68l62 30l62 -30l16 -68l-44 -54h-68zM234 12l16 68l62 30l62 -30l16 -68l-42 -52h-70zM270 340l16 68l62 30l62 -30l16 -68l-44 -54h-68zM304 700l16 68l62 30l64 -30l14 -68 l-42 -54h-70zM330 20l16 66l62 30l64 -30l14 -66l-42 -54h-70zM368 354l16 68l62 30l64 -30l14 -68l-42 -54h-70zM398 694l16 68l62 30l62 -30l16 -68l-44 -54h-70zM416 54l16 66l62 30l62 -30l16 -66l-44 -54h-68zM462 82l14 66l64 32l62 -32l14 -66l-42 -56h-70zM466 378 l16 68l62 30l62 -30l16 -68l-42 -54h-70zM488 652l16 68l62 30l62 -30l16 -68l-42 -54h-70zM522 154l14 68l64 30l62 -30l14 -68l-42 -54h-70zM542 76l16 68l62 30l64 -30l14 -68l-42 -54h-70zM550 582l16 68l62 30l64 -30l14 -68l-42 -54h-70zM570 340l16 68l62 30l62 -30 l16 -68l-44 -54h-68zM572 252l14 66l64 32l62 -32l14 -66l-42 -56h-70zM572 392l14 66l64 32l62 -32l14 -66l-42 -56h-70zM572 482l14 66l64 32l62 -32l14 -66l-42 -56h-70zM610 14l16 68l62 30l64 -30l14 -68l-42 -52h-70zM672 22l14 66l64 32l62 -32l14 -66l-42 -54h-70z M672 22l14 66l64 32l62 -32l14 -66l-42 -54h-70z" />
<glyph unicode="&#xe6;" d="M52 182l16 68l62 30l62 -30l16 -68l-44 -54h-68zM68 90l16 68l62 30l62 -30l16 -68l-44 -54h-70zM82 566l14 68l64 30l62 -30l14 -68l-42 -54h-70zM92 272l14 66l64 32l62 -32l14 -66l-42 -56h-70zM126 634l16 68l62 30l62 -30l16 -68l-44 -54h-68zM138 32l14 68l64 30 l62 -30l16 -68l-44 -52h-70zM178 316l14 68l64 30l62 -30l16 -68l-44 -54h-70zM208 682l16 68l62 30l62 -30l16 -68l-44 -54h-68zM234 12l16 68l62 30l62 -30l16 -68l-42 -52h-70zM270 340l16 68l62 30l62 -30l16 -68l-44 -54h-68zM304 700l16 68l62 30l64 -30l14 -68 l-42 -54h-70zM330 20l16 66l62 30l64 -30l14 -66l-42 -54h-70zM368 354l16 68l62 30l64 -30l14 -68l-42 -54h-70zM398 694l16 68l62 30l62 -30l16 -68l-44 -54h-70zM416 54l16 66l62 30l62 -30l16 -66l-44 -54h-68zM462 82l14 66l64 32l62 -32l14 -66l-42 -56h-70zM466 378 l16 68l62 30l62 -30l16 -68l-42 -54h-70zM488 652l16 68l62 30l62 -30l16 -68l-42 -54h-70zM522 154l14 68l64 30l62 -30l14 -68l-42 -54h-70zM550 582l16 68l62 30l64 -30l14 -68l-42 -54h-70zM570 330l14 66l64 30l62 -30l16 -66l-44 -56h-70zM572 392l14 66l64 32l62 -32 l14 -66l-42 -56h-70zM584 228l16 68l62 30l64 -30l14 -68l-42 -54h-70zM596 516l16 68l62 30l64 -30l14 -68l-42 -54h-70zM602 448l16 68l62 30l62 -30l16 -68l-44 -54h-68zM628 138l16 68l62 30l62 -30l16 -68l-44 -54h-70zM644 382l16 68l62 30l62 -30l16 -68l-44 -54h-68 zM650 602l14 66l62 32l64 -32l14 -66l-42 -56h-70zM694 68l16 68l62 30l64 -30l14 -68l-42 -54h-70zM714 362l16 66l62 32l62 -32l16 -66l-44 -56h-68zM722 662l16 68l62 30l64 -30l14 -68l-42 -54h-70zM782 24l16 68l62 30l64 -30l14 -68l-42 -52h-70zM814 362l16 66l62 32 l62 -32l16 -66l-44 -56h-68zM820 696l14 68l64 30l62 -30l16 -68l-44 -54h-70zM884 12l14 66l64 32l62 -32l16 -66l-44 -54h-70zM910 700l14 68l64 30l62 -30l16 -68l-44 -54h-70zM914 362l16 66l62 32l62 -32l16 -66l-44 -56h-68zM978 20l14 68l64 30l62 -30l16 -68 l-44 -52h-70zM1008 672l16 68l62 30l64 -30l14 -68l-42 -54h-70zM1014 362l16 66l62 32l62 -32l16 -66l-44 -56h-68zM1066 56l16 68l62 30l64 -30l14 -68l-42 -54h-70zM1086 614l16 68l62 30l62 -30l16 -68l-44 -54h-68zM1114 362l16 66l62 32l62 -32l16 -66l-44 -56h-68z M1120 122l14 66l64 32l62 -32l14 -66l-42 -56h-70zM1124 396l16 68l62 30l62 -30l16 -68l-44 -54h-68zM1128 490l14 66l64 30l62 -30l16 -66l-44 -56h-70zM1142 536l16 68l62 30l62 -30l16 -68l-44 -54h-68z" />
<glyph unicode="&#xe7;" d="M36 56l16 66l62 32l62 -32l16 -66l-44 -52h-68zM52 352l14 66l64 32l62 -32l14 -66l-42 -56h-70zM60 262l14 68l64 30l62 -30l14 -68l-42 -54h-70zM62 454l16 68l62 30l62 -30l16 -68l-44 -54h-68zM94 166l14 66l64 30l62 -30l16 -66l-44 -56h-70zM96 136l16 68l62 30 l62 -30l16 -68l-44 -54h-70zM98 546l16 66l62 30l62 -30l16 -66l-44 -56h-70zM150 92l16 68l62 30l62 -30l16 -68l-44 -54h-68zM156 216l14 68l64 30l62 -30l16 -68l-44 -54h-70zM156 618l16 68l62 30l62 -30l16 -68l-44 -54h-68zM234 36l16 68l62 30l62 -30l16 -68l-44 -52 h-68zM240 678l16 66l62 30l64 -30l14 -66l-42 -56h-70zM328 14l16 66l62 30l62 -30l16 -66l-44 -54h-68zM334 700l16 68l62 30l62 -30l16 -68l-44 -54h-68zM372 702l14 66l64 32l62 -32l14 -66l-42 -56h-70zM424 14l16 68l62 30l62 -30l16 -68l-44 -52h-68zM472 684l16 68 l62 30l62 -30l16 -68l-44 -54h-70zM520 40l16 68l62 30l64 -30l14 -68l-42 -52h-70zM556 632l16 68l62 30l62 -30l16 -68l-42 -54h-70zM592 104l16 68l62 30l62 -30l16 -68l-44 -54h-68zM606 558l16 68l62 30l62 -30l16 -68l-44 -54h-68z" />
<glyph unicode="&#xe8;" d="M52 330l14 66l64 30l62 -30l16 -66l-44 -56h-70zM66 228l16 68l62 30l64 -30l14 -68l-42 -54h-70zM78 516l16 68l62 30l64 -30l14 -68l-42 -54h-70zM84 448l16 68l62 30l62 -30l16 -68l-44 -54h-68zM110 138l16 68l62 30l62 -30l16 -68l-44 -54h-70zM126 382l16 68l62 30 l62 -30l16 -68l-44 -54h-68zM132 602l14 66l62 32l64 -32l14 -66l-42 -56h-70zM176 68l16 68l62 30l64 -30l14 -68l-42 -54h-70zM196 362l16 66l62 32l62 -32l16 -66l-44 -56h-68zM204 662l16 68l62 30l64 -30l14 -68l-42 -54h-70zM238 912l16 68l62 30l64 -30l14 -68 l-42 -54h-70zM264 24l16 68l62 30l64 -30l14 -68l-42 -52h-70zM296 362l16 66l62 32l62 -32l16 -66l-44 -56h-68zM298 834l16 68l62 30l62 -30l16 -68l-44 -54h-68zM302 696l14 68l64 30l62 -30l16 -68l-44 -54h-70zM356 752l16 68l62 30l62 -30l16 -68l-44 -54h-68zM366 12 l14 66l64 32l62 -32l16 -66l-44 -54h-70zM392 700l14 68l64 30l62 -30l16 -68l-44 -54h-70zM396 362l16 66l62 32l62 -32l16 -66l-44 -56h-68zM414 670l14 68l64 30l62 -30l16 -68l-44 -54h-70zM460 20l14 68l64 30l62 -30l16 -68l-44 -52h-70zM486 626l14 66l64 32l62 -32 l14 -66l-42 -54h-70zM490 672l16 68l62 30l64 -30l14 -68l-42 -54h-70zM496 362l16 66l62 32l62 -32l16 -66l-44 -56h-68zM548 56l16 68l62 30l64 -30l14 -68l-42 -54h-70zM568 614l16 68l62 30l62 -30l16 -68l-44 -54h-68zM596 362l16 66l62 32l62 -32l16 -66l-44 -56h-68z M602 122l14 66l64 32l62 -32l14 -66l-42 -56h-70zM606 396l16 68l62 30l62 -30l16 -68l-44 -54h-68zM610 490l14 66l64 30l62 -30l16 -66l-44 -56h-70zM624 536l16 68l62 30l62 -30l16 -68l-44 -54h-68z" />
<glyph unicode="&#xe9;" d="M52 330l14 66l64 30l62 -30l16 -66l-44 -56h-70zM66 228l16 68l62 30l64 -30l14 -68l-42 -54h-70zM78 516l16 68l62 30l64 -30l14 -68l-42 -54h-70zM84 448l16 68l62 30l62 -30l16 -68l-44 -54h-68zM110 138l16 68l62 30l62 -30l16 -68l-44 -54h-70zM126 382l16 68l62 30 l62 -30l16 -68l-44 -54h-68zM132 602l14 66l62 32l64 -32l14 -66l-42 -56h-70zM176 68l16 68l62 30l64 -30l14 -68l-42 -54h-70zM196 362l16 66l62 32l62 -32l16 -66l-44 -56h-68zM204 662l16 68l62 30l64 -30l14 -68l-42 -54h-70zM222 638l16 66l62 32l62 -32l16 -66 l-44 -52h-68zM264 24l16 68l62 30l64 -30l14 -68l-42 -52h-70zM282 718l16 68l62 30l62 -30l16 -68l-44 -54h-70zM296 362l16 66l62 32l62 -32l16 -66l-44 -56h-68zM302 696l14 68l64 30l62 -30l16 -68l-44 -54h-70zM342 798l14 68l64 30l62 -30l16 -68l-44 -54h-70zM366 12 l14 66l64 32l62 -32l16 -66l-44 -54h-70zM392 700l14 68l64 30l62 -30l16 -68l-44 -54h-70zM396 362l16 66l62 32l62 -32l16 -66l-44 -56h-68zM402 880l14 66l64 30l62 -30l16 -66l-44 -56h-70zM460 20l14 68l64 30l62 -30l16 -68l-44 -52h-70zM466 912l16 68l62 30l64 -30 l14 -68l-42 -54h-70zM490 672l16 68l62 30l64 -30l14 -68l-42 -54h-70zM496 362l16 66l62 32l62 -32l16 -66l-44 -56h-68zM548 56l16 68l62 30l64 -30l14 -68l-42 -54h-70zM568 614l16 68l62 30l62 -30l16 -68l-44 -54h-68zM596 362l16 66l62 32l62 -32l16 -66l-44 -56h-68z M602 122l14 66l64 32l62 -32l14 -66l-42 -56h-70zM606 396l16 68l62 30l62 -30l16 -68l-44 -54h-68zM610 490l14 66l64 30l62 -30l16 -66l-44 -56h-70zM624 536l16 68l62 30l62 -30l16 -68l-44 -54h-68z" />
<glyph unicode="&#xea;" d="M52 330l14 66l64 30l62 -30l16 -66l-44 -56h-70zM66 228l16 68l62 30l64 -30l14 -68l-42 -54h-70zM78 516l16 68l62 30l64 -30l14 -68l-42 -54h-70zM84 448l16 68l62 30l62 -30l16 -68l-44 -54h-68zM110 138l16 68l62 30l62 -30l16 -68l-44 -54h-70zM126 382l16 68l62 30 l62 -30l16 -68l-44 -54h-68zM132 602l14 66l62 32l64 -32l14 -66l-42 -56h-70zM176 68l16 68l62 30l64 -30l14 -68l-42 -54h-70zM190 718l16 68l62 30l62 -30l16 -68l-44 -54h-70zM196 362l16 66l62 32l62 -32l16 -66l-44 -56h-68zM204 662l16 68l62 30l64 -30l14 -68 l-42 -54h-70zM250 798l14 68l64 30l62 -30l16 -68l-44 -54h-70zM264 24l16 68l62 30l64 -30l14 -68l-42 -52h-70zM296 362l16 66l62 32l62 -32l16 -66l-44 -56h-68zM302 696l14 68l64 30l62 -30l16 -68l-44 -54h-70zM310 880l14 66l64 30l62 -30l16 -66l-44 -56h-70zM366 12 l14 66l64 32l62 -32l16 -66l-44 -54h-70zM374 912l16 68l62 30l64 -30l14 -68l-42 -54h-70zM392 700l14 68l64 30l62 -30l16 -68l-44 -54h-70zM396 362l16 66l62 32l62 -32l16 -66l-44 -56h-68zM434 834l16 68l62 30l62 -30l16 -68l-44 -54h-68zM460 20l14 68l64 30l62 -30 l16 -68l-44 -52h-70zM490 672l16 68l62 30l64 -30l14 -68l-42 -54h-70zM492 752l16 68l62 30l62 -30l16 -68l-44 -54h-68zM496 362l16 66l62 32l62 -32l16 -66l-44 -56h-68zM548 56l16 68l62 30l64 -30l14 -68l-42 -54h-70zM550 670l14 68l64 30l62 -30l16 -68l-44 -54h-70z M568 614l16 68l62 30l62 -30l16 -68l-44 -54h-68zM596 362l16 66l62 32l62 -32l16 -66l-44 -56h-68zM602 122l14 66l64 32l62 -32l14 -66l-42 -56h-70zM606 396l16 68l62 30l62 -30l16 -68l-44 -54h-68zM610 490l14 66l64 30l62 -30l16 -66l-44 -56h-70zM624 536l16 68 l62 30l62 -30l16 -68l-44 -54h-68z" />
<glyph unicode="&#xeb;" d="M52 330l14 66l64 30l62 -30l16 -66l-44 -56h-70zM66 228l16 68l62 30l64 -30l14 -68l-42 -54h-70zM72 856l16 68l62 30l64 -30l14 -68l-42 -54h-70zM78 516l16 68l62 30l64 -30l14 -68l-42 -54h-70zM84 448l16 68l62 30l62 -30l16 -68l-44 -54h-68zM110 138l16 68l62 30 l62 -30l16 -68l-44 -54h-70zM116 914l16 66l62 32l62 -32l16 -66l-44 -56h-68zM126 382l16 68l62 30l62 -30l16 -68l-44 -54h-68zM132 602l14 66l62 32l64 -32l14 -66l-42 -56h-70zM142 824l14 66l64 32l62 -32l14 -66l-42 -56h-70zM142 824l14 66l64 32l62 -32l14 -66 l-42 -56h-70zM176 68l16 68l62 30l64 -30l14 -68l-42 -54h-70zM196 362l16 66l62 32l62 -32l16 -66l-44 -56h-68zM204 662l16 68l62 30l64 -30l14 -68l-42 -54h-70zM264 24l16 68l62 30l64 -30l14 -68l-42 -52h-70zM296 362l16 66l62 32l62 -32l16 -66l-44 -56h-68zM302 696 l14 68l64 30l62 -30l16 -68l-44 -54h-70zM366 12l14 66l64 32l62 -32l16 -66l-44 -54h-70zM392 700l14 68l64 30l62 -30l16 -68l-44 -54h-70zM396 362l16 66l62 32l62 -32l16 -66l-44 -56h-68zM460 20l14 68l64 30l62 -30l16 -68l-44 -52h-70zM488 856l16 68l62 30l64 -30 l14 -68l-42 -54h-70zM490 672l16 68l62 30l64 -30l14 -68l-42 -54h-70zM496 362l16 66l62 32l62 -32l16 -66l-44 -56h-68zM532 914l16 66l62 32l62 -32l16 -66l-44 -56h-68zM548 56l16 68l62 30l64 -30l14 -68l-42 -54h-70zM558 824l14 66l64 32l62 -32l14 -66l-42 -56h-70z M558 824l14 66l64 32l62 -32l14 -66l-42 -56h-70zM568 614l16 68l62 30l62 -30l16 -68l-44 -54h-68zM596 362l16 66l62 32l62 -32l16 -66l-44 -56h-68zM602 122l14 66l64 32l62 -32l14 -66l-42 -56h-70zM606 396l16 68l62 30l62 -30l16 -68l-44 -54h-68zM610 490l14 66 l64 30l62 -30l16 -66l-44 -56h-70zM624 536l16 68l62 30l62 -30l16 -68l-44 -54h-68z" />
<glyph unicode="&#xec;" d="M-14 682l14 66l64 32l62 -32l14 -66l-42 -56h-70zM2 912l16 68l62 30l64 -30l14 -68l-42 -54h-70zM46 620l16 68l62 30l62 -30l16 -68l-44 -54h-68zM62 834l16 68l62 30l62 -30l16 -68l-44 -54h-68zM102 22l14 66l64 32l62 -32l14 -66l-42 -54h-70zM102 122l14 66l64 32 l62 -32l14 -66l-42 -56h-70zM102 222l14 66l64 32l62 -32l14 -66l-42 -56h-70zM102 322l14 66l64 32l62 -32l14 -66l-42 -56h-70zM102 422l14 66l64 32l62 -32l14 -66l-42 -56h-70zM102 522l14 66l64 32l62 -32l14 -66l-42 -56h-70zM102 622l14 66l64 32l62 -32l14 -66 l-42 -56h-70zM120 752l16 68l62 30l62 -30l16 -68l-44 -54h-68zM132 682l14 66l64 32l62 -32l14 -66l-42 -56h-70zM178 670l14 68l64 30l62 -30l16 -68l-44 -54h-70zM250 626l14 66l64 32l62 -32l14 -66l-42 -54h-70z" />
<glyph unicode="&#xed;" d="M-42 638l16 66l62 32l62 -32l16 -66l-44 -52h-68zM-14 682l14 66l64 32l62 -32l14 -66l-42 -56h-70zM18 718l16 68l62 30l62 -30l16 -68l-44 -54h-70zM46 620l16 68l62 30l62 -30l16 -68l-44 -54h-68zM78 798l14 68l64 30l62 -30l16 -68l-44 -54h-70zM102 22l14 66l64 32 l62 -32l14 -66l-42 -54h-70zM102 122l14 66l64 32l62 -32l14 -66l-42 -56h-70zM102 222l14 66l64 32l62 -32l14 -66l-42 -56h-70zM102 322l14 66l64 32l62 -32l14 -66l-42 -56h-70zM102 422l14 66l64 32l62 -32l14 -66l-42 -56h-70zM102 522l14 66l64 32l62 -32l14 -66 l-42 -56h-70zM102 622l14 66l64 32l62 -32l14 -66l-42 -56h-70zM132 682l14 66l64 32l62 -32l14 -66l-42 -56h-70zM138 880l14 66l64 30l62 -30l16 -66l-44 -56h-70zM202 912l16 68l62 30l64 -30l14 -68l-42 -54h-70z" />
<glyph unicode="&#xee;" d="M-68 718l16 68l62 30l62 -30l16 -68l-44 -54h-70zM-14 682l14 66l64 32l62 -32l14 -66l-42 -56h-70zM-8 798l14 68l64 30l62 -30l16 -68l-44 -54h-70zM46 620l16 68l62 30l62 -30l16 -68l-44 -54h-68zM52 880l14 66l64 30l62 -30l16 -66l-44 -56h-70zM102 22l14 66l64 32 l62 -32l14 -66l-42 -54h-70zM102 122l14 66l64 32l62 -32l14 -66l-42 -56h-70zM102 222l14 66l64 32l62 -32l14 -66l-42 -56h-70zM102 322l14 66l64 32l62 -32l14 -66l-42 -56h-70zM102 422l14 66l64 32l62 -32l14 -66l-42 -56h-70zM102 522l14 66l64 32l62 -32l14 -66 l-42 -56h-70zM102 622l14 66l64 32l62 -32l14 -66l-42 -56h-70zM116 912l16 68l62 30l64 -30l14 -68l-42 -54h-70zM132 682l14 66l64 32l62 -32l14 -66l-42 -56h-70zM176 834l16 68l62 30l62 -30l16 -68l-44 -54h-68zM234 752l16 68l62 30l62 -30l16 -68l-44 -54h-68z M292 670l14 68l64 30l62 -30l16 -68l-44 -54h-70z" />
<glyph unicode="&#xef;" d="M-162 856l16 68l62 30l64 -30l14 -68l-42 -54h-70zM-118 914l16 66l62 32l62 -32l16 -66l-44 -56h-68zM-92 824l14 66l64 32l62 -32l14 -66l-42 -56h-70zM-92 824l14 66l64 32l62 -32l14 -66l-42 -56h-70zM-14 682l14 66l64 32l62 -32l14 -66l-42 -56h-70zM46 620l16 68 l62 30l62 -30l16 -68l-44 -54h-68zM102 22l14 66l64 32l62 -32l14 -66l-42 -54h-70zM102 122l14 66l64 32l62 -32l14 -66l-42 -56h-70zM102 222l14 66l64 32l62 -32l14 -66l-42 -56h-70zM102 322l14 66l64 32l62 -32l14 -66l-42 -56h-70zM102 422l14 66l64 32l62 -32l14 -66 l-42 -56h-70zM102 522l14 66l64 32l62 -32l14 -66l-42 -56h-70zM102 622l14 66l64 32l62 -32l14 -66l-42 -56h-70zM132 682l14 66l64 32l62 -32l14 -66l-42 -56h-70zM254 856l16 68l62 30l64 -30l14 -68l-42 -54h-70zM298 914l16 66l62 32l62 -32l16 -66l-44 -56h-68z M324 824l14 66l64 32l62 -32l14 -66l-42 -56h-70zM324 824l14 66l64 32l62 -32l14 -66l-42 -56h-70z" />
<glyph unicode="&#xf1;" d="M-12 768l16 66l62 30l62 -30l16 -66l-44 -56h-70zM46 840l16 68l62 30l62 -30l16 -68l-44 -54h-68zM102 26l14 68l64 30l62 -30l14 -68l-42 -52h-70zM102 126l14 68l64 30l62 -30l14 -68l-42 -54h-70zM102 226l14 68l64 30l62 -30l14 -68l-42 -54h-70zM102 326l14 68 l64 30l62 -30l14 -68l-42 -54h-70zM102 426l14 68l64 30l62 -30l14 -68l-42 -54h-70zM102 626l14 68l64 30l62 -30l14 -68l-42 -54h-70zM122 666l14 68l64 30l62 -30l14 -68l-42 -54h-70zM130 900l16 66l62 30l64 -30l14 -66l-42 -56h-70zM136 576l16 68l62 30l62 -30 l16 -68l-44 -54h-68zM140 466l16 68l62 30l64 -30l14 -68l-42 -54h-70zM182 562l14 66l64 32l62 -32l14 -66l-42 -56h-70zM224 922l16 68l62 30l62 -30l16 -68l-44 -54h-68zM240 626l16 68l62 30l62 -30l16 -68l-44 -54h-68zM262 924l14 66l64 32l62 -32l14 -66l-42 -56h-70 zM312 830l16 68l62 30l62 -30l16 -68l-44 -54h-68zM328 670l16 68l62 30l64 -30l14 -68l-42 -54h-70zM362 906l16 68l62 30l62 -30l16 -68l-44 -54h-70zM396 774l16 68l62 30l62 -30l16 -68l-44 -52h-68zM422 682l16 66l62 30l62 -30l16 -66l-44 -56h-68zM446 854l16 68 l62 30l62 -30l16 -68l-42 -54h-70zM490 752l16 66l62 30l62 -30l16 -66l-44 -54h-68zM496 780l16 68l62 30l62 -30l16 -68l-44 -54h-68zM520 658l16 68l62 30l64 -30l14 -68l-42 -54h-70zM586 752l16 68l62 30l62 -30l16 -68l-44 -52h-68zM592 598l14 68l64 30l62 -30 l16 -68l-44 -54h-70zM630 508l16 68l62 30l64 -30l14 -68l-42 -54h-70zM642 112l14 66l64 32l62 -32l14 -66l-42 -56h-70zM642 212l14 66l64 32l62 -32l14 -66l-42 -56h-70zM642 312l14 66l64 32l62 -32l14 -66l-42 -56h-70zM642 412l14 66l64 32l62 -32l14 -66l-42 -56h-70 zM646 22l16 66l62 32l62 -32l16 -66l-44 -54h-68zM682 778l16 68l62 30l64 -30l14 -68l-42 -52h-70zM754 842l16 68l62 30l62 -30l16 -68l-44 -54h-68z" />
<glyph unicode="&#xf2;" d="M52 394l16 68l62 30l64 -30l14 -68l-42 -54h-70zM54 298l16 66l62 32l62 -32l16 -66l-44 -56h-68zM72 492l16 68l62 30l64 -30l14 -68l-42 -54h-70zM76 202l16 68l62 30l62 -30l16 -68l-44 -54h-68zM120 578l16 68l62 30l62 -30l16 -68l-44 -54h-68zM126 118l16 68l62 30 l62 -30l16 -68l-44 -54h-68zM186 646l16 68l62 30l64 -30l14 -68l-42 -54h-70zM200 52l14 68l64 30l62 -30l16 -68l-44 -52h-70zM222 702l14 66l64 32l62 -32l14 -66l-42 -56h-70zM252 912l16 68l62 30l64 -30l14 -68l-42 -54h-70zM290 18l14 68l64 30l62 -30l16 -68 l-44 -52h-70zM312 834l16 68l62 30l62 -30l16 -68l-44 -54h-68zM328 702l16 66l62 32l64 -32l14 -66l-42 -56h-70zM370 752l16 68l62 30l62 -30l16 -68l-44 -54h-68zM382 12l16 68l62 30l62 -30l16 -68l-44 -52h-68zM412 698l16 68l62 30l64 -30l14 -68l-42 -54h-70z M428 670l14 68l64 30l62 -30l16 -68l-44 -54h-70zM484 30l16 68l62 30l62 -30l16 -68l-44 -52h-68zM500 626l14 66l64 32l62 -32l14 -66l-42 -54h-70zM502 682l14 66l64 32l62 -32l14 -66l-42 -56h-70zM568 78l16 68l62 30l64 -30l14 -68l-42 -54h-70zM584 608l16 68l62 30 l64 -30l14 -68l-42 -54h-70zM632 154l16 68l62 30l62 -30l16 -68l-44 -54h-68zM644 530l14 68l64 30l62 -30l16 -68l-44 -54h-70zM668 242l16 68l62 30l64 -30l14 -68l-42 -54h-70zM674 436l16 68l62 30l62 -30l16 -68l-44 -54h-68zM680 340l16 68l62 30l64 -30l14 -68 l-42 -54h-70z" />
<glyph unicode="&#xf3;" d="M52 394l16 68l62 30l64 -30l14 -68l-42 -54h-70zM54 298l16 66l62 32l62 -32l16 -66l-44 -56h-68zM72 492l16 68l62 30l64 -30l14 -68l-42 -54h-70zM76 202l16 68l62 30l62 -30l16 -68l-44 -54h-68zM120 578l16 68l62 30l62 -30l16 -68l-44 -54h-68zM126 118l16 68l62 30 l62 -30l16 -68l-44 -54h-68zM186 646l16 68l62 30l64 -30l14 -68l-42 -54h-70zM200 52l14 68l64 30l62 -30l16 -68l-44 -52h-70zM222 702l14 66l64 32l62 -32l14 -66l-42 -56h-70zM226 638l16 66l62 32l62 -32l16 -66l-44 -52h-68zM286 718l16 68l62 30l62 -30l16 -68 l-44 -54h-70zM290 18l14 68l64 30l62 -30l16 -68l-44 -52h-70zM328 702l16 66l62 32l64 -32l14 -66l-42 -56h-70zM346 798l14 68l64 30l62 -30l16 -68l-44 -54h-70zM382 12l16 68l62 30l62 -30l16 -68l-44 -52h-68zM406 880l14 66l64 30l62 -30l16 -66l-44 -56h-70zM412 698 l16 68l62 30l64 -30l14 -68l-42 -54h-70zM470 912l16 68l62 30l64 -30l14 -68l-42 -54h-70zM484 30l16 68l62 30l62 -30l16 -68l-44 -52h-68zM502 682l14 66l64 32l62 -32l14 -66l-42 -56h-70zM568 78l16 68l62 30l64 -30l14 -68l-42 -54h-70zM584 608l16 68l62 30l64 -30 l14 -68l-42 -54h-70zM632 154l16 68l62 30l62 -30l16 -68l-44 -54h-68zM644 530l14 68l64 30l62 -30l16 -68l-44 -54h-70zM668 242l16 68l62 30l64 -30l14 -68l-42 -54h-70zM674 436l16 68l62 30l62 -30l16 -68l-44 -54h-68zM680 340l16 68l62 30l64 -30l14 -68l-42 -54h-70 z" />
<glyph unicode="&#xf4;" d="M52 394l16 68l62 30l64 -30l14 -68l-42 -54h-70zM54 298l16 66l62 32l62 -32l16 -66l-44 -56h-68zM72 492l16 68l62 30l64 -30l14 -68l-42 -54h-70zM76 202l16 68l62 30l62 -30l16 -68l-44 -54h-68zM120 578l16 68l62 30l62 -30l16 -68l-44 -54h-68zM126 118l16 68l62 30 l62 -30l16 -68l-44 -54h-68zM186 646l16 68l62 30l64 -30l14 -68l-42 -54h-70zM200 52l14 68l64 30l62 -30l16 -68l-44 -52h-70zM206 718l16 68l62 30l62 -30l16 -68l-44 -54h-70zM222 702l14 66l64 32l62 -32l14 -66l-42 -56h-70zM266 798l14 68l64 30l62 -30l16 -68 l-44 -54h-70zM290 18l14 68l64 30l62 -30l16 -68l-44 -52h-70zM326 880l14 66l64 30l62 -30l16 -66l-44 -56h-70zM328 702l16 66l62 32l64 -32l14 -66l-42 -56h-70zM382 12l16 68l62 30l62 -30l16 -68l-44 -52h-68zM390 912l16 68l62 30l64 -30l14 -68l-42 -54h-70zM412 698 l16 68l62 30l64 -30l14 -68l-42 -54h-70zM450 834l16 68l62 30l62 -30l16 -68l-44 -54h-68zM484 30l16 68l62 30l62 -30l16 -68l-44 -52h-68zM502 682l14 66l64 32l62 -32l14 -66l-42 -56h-70zM508 752l16 68l62 30l62 -30l16 -68l-44 -54h-68zM566 670l14 68l64 30l62 -30 l16 -68l-44 -54h-70zM568 78l16 68l62 30l64 -30l14 -68l-42 -54h-70zM584 608l16 68l62 30l64 -30l14 -68l-42 -54h-70zM632 154l16 68l62 30l62 -30l16 -68l-44 -54h-68zM644 530l14 68l64 30l62 -30l16 -68l-44 -54h-70zM668 242l16 68l62 30l64 -30l14 -68l-42 -54h-70z M674 436l16 68l62 30l62 -30l16 -68l-44 -54h-68zM680 340l16 68l62 30l64 -30l14 -68l-42 -54h-70z" />
<glyph unicode="&#xf5;" d="M-12 768l16 66l62 30l62 -30l16 -66l-44 -56h-70zM46 840l16 68l62 30l62 -30l16 -68l-44 -54h-68zM52 394l16 68l62 30l64 -30l14 -68l-42 -54h-70zM54 298l16 66l62 32l62 -32l16 -66l-44 -56h-68zM72 492l16 68l62 30l64 -30l14 -68l-42 -54h-70zM76 202l16 68l62 30 l62 -30l16 -68l-44 -54h-68zM120 578l16 68l62 30l62 -30l16 -68l-44 -54h-68zM126 118l16 68l62 30l62 -30l16 -68l-44 -54h-68zM130 900l16 66l62 30l64 -30l14 -66l-42 -56h-70zM186 646l16 68l62 30l64 -30l14 -68l-42 -54h-70zM200 52l14 68l64 30l62 -30l16 -68 l-44 -52h-70zM222 702l14 66l64 32l62 -32l14 -66l-42 -56h-70zM224 922l16 68l62 30l62 -30l16 -68l-44 -54h-68zM262 924l14 66l64 32l62 -32l14 -66l-42 -56h-70zM290 18l14 68l64 30l62 -30l16 -68l-44 -52h-70zM312 830l16 68l62 30l62 -30l16 -68l-44 -54h-68z M328 702l16 66l62 32l64 -32l14 -66l-42 -56h-70zM362 906l16 68l62 30l62 -30l16 -68l-44 -54h-70zM382 12l16 68l62 30l62 -30l16 -68l-44 -52h-68zM396 774l16 68l62 30l62 -30l16 -68l-44 -52h-68zM412 698l16 68l62 30l64 -30l14 -68l-42 -54h-70zM446 854l16 68l62 30 l62 -30l16 -68l-42 -54h-70zM484 30l16 68l62 30l62 -30l16 -68l-44 -52h-68zM490 752l16 66l62 30l62 -30l16 -66l-44 -54h-68zM496 780l16 68l62 30l62 -30l16 -68l-44 -54h-68zM502 682l14 66l64 32l62 -32l14 -66l-42 -56h-70zM568 78l16 68l62 30l64 -30l14 -68 l-42 -54h-70zM584 608l16 68l62 30l64 -30l14 -68l-42 -54h-70zM586 752l16 68l62 30l62 -30l16 -68l-44 -52h-68zM632 154l16 68l62 30l62 -30l16 -68l-44 -54h-68zM644 530l14 68l64 30l62 -30l16 -68l-44 -54h-70zM668 242l16 68l62 30l64 -30l14 -68l-42 -54h-70z M674 436l16 68l62 30l62 -30l16 -68l-44 -54h-68zM680 340l16 68l62 30l64 -30l14 -68l-42 -54h-70zM682 778l16 68l62 30l64 -30l14 -68l-42 -52h-70zM754 842l16 68l62 30l62 -30l16 -68l-44 -54h-68z" />
<glyph unicode="&#xf6;" d="M52 394l16 68l62 30l64 -30l14 -68l-42 -54h-70zM54 298l16 66l62 32l62 -32l16 -66l-44 -56h-68zM72 492l16 68l62 30l64 -30l14 -68l-42 -54h-70zM76 202l16 68l62 30l62 -30l16 -68l-44 -54h-68zM100 856l16 68l62 30l64 -30l14 -68l-42 -54h-70zM120 578l16 68l62 30 l62 -30l16 -68l-44 -54h-68zM126 118l16 68l62 30l62 -30l16 -68l-44 -54h-68zM144 914l16 66l62 32l62 -32l16 -66l-44 -56h-68zM170 824l14 66l64 32l62 -32l14 -66l-42 -56h-70zM170 824l14 66l64 32l62 -32l14 -66l-42 -56h-70zM186 646l16 68l62 30l64 -30l14 -68 l-42 -54h-70zM200 52l14 68l64 30l62 -30l16 -68l-44 -52h-70zM222 702l14 66l64 32l62 -32l14 -66l-42 -56h-70zM290 18l14 68l64 30l62 -30l16 -68l-44 -52h-70zM328 702l16 66l62 32l64 -32l14 -66l-42 -56h-70zM382 12l16 68l62 30l62 -30l16 -68l-44 -52h-68zM412 698 l16 68l62 30l64 -30l14 -68l-42 -54h-70zM484 30l16 68l62 30l62 -30l16 -68l-44 -52h-68zM502 682l14 66l64 32l62 -32l14 -66l-42 -56h-70zM516 856l16 68l62 30l64 -30l14 -68l-42 -54h-70zM560 914l16 66l62 32l62 -32l16 -66l-44 -56h-68zM568 78l16 68l62 30l64 -30 l14 -68l-42 -54h-70zM584 608l16 68l62 30l64 -30l14 -68l-42 -54h-70zM586 824l14 66l64 32l62 -32l14 -66l-42 -56h-70zM586 824l14 66l64 32l62 -32l14 -66l-42 -56h-70zM632 154l16 68l62 30l62 -30l16 -68l-44 -54h-68zM644 530l14 68l64 30l62 -30l16 -68l-44 -54h-70 zM668 242l16 68l62 30l64 -30l14 -68l-42 -54h-70zM674 436l16 68l62 30l62 -30l16 -68l-44 -54h-68zM680 340l16 68l62 30l64 -30l14 -68l-42 -54h-70z" />
<glyph unicode="&#xf8;" d="M52 394l16 68l62 30l64 -30l14 -68l-42 -54h-70zM54 298l16 66l62 32l62 -32l16 -66l-44 -56h-68zM72 492l16 68l62 30l64 -30l14 -68l-42 -54h-70zM76 202l16 68l62 30l62 -30l16 -68l-44 -54h-68zM120 578l16 68l62 30l62 -30l16 -68l-44 -54h-68zM126 118l16 68l62 30 l62 -30l16 -68l-44 -54h-68zM152 22l14 66l64 32l62 -32l14 -66l-42 -54h-70zM160 94l16 68l62 30l62 -30l16 -68l-44 -54h-68zM186 646l16 68l62 30l64 -30l14 -68l-42 -54h-70zM200 52l14 68l64 30l62 -30l16 -68l-44 -52h-70zM222 702l14 66l64 32l62 -32l14 -66l-42 -56 h-70zM224 172l14 68l64 30l62 -30l16 -68l-44 -54h-70zM286 250l16 68l62 30l62 -30l16 -68l-42 -54h-70zM290 18l14 68l64 30l62 -30l16 -68l-44 -52h-70zM328 702l16 66l62 32l64 -32l14 -66l-42 -56h-70zM350 328l16 68l62 30l62 -30l16 -68l-44 -54h-70zM382 12l16 68 l62 30l62 -30l16 -68l-44 -52h-68zM412 406l16 68l62 30l64 -30l14 -68l-42 -54h-70zM412 698l16 68l62 30l64 -30l14 -68l-42 -54h-70zM476 484l16 66l62 30l62 -30l16 -66l-44 -56h-68zM484 30l16 68l62 30l62 -30l16 -68l-44 -52h-68zM502 682l14 66l64 32l62 -32l14 -66 l-42 -56h-70zM540 560l14 68l64 30l62 -30l16 -68l-44 -54h-70zM568 78l16 68l62 30l64 -30l14 -68l-42 -54h-70zM584 608l16 68l62 30l64 -30l14 -68l-42 -54h-70zM602 638l16 68l62 30l62 -30l16 -68l-42 -54h-70zM632 154l16 68l62 30l62 -30l16 -68l-44 -54h-68z M644 530l14 68l64 30l62 -30l16 -68l-44 -54h-70zM666 716l16 68l62 30l62 -30l16 -68l-44 -54h-70zM668 242l16 68l62 30l64 -30l14 -68l-42 -54h-70zM674 436l16 68l62 30l62 -30l16 -68l-44 -54h-68zM680 340l16 68l62 30l64 -30l14 -68l-42 -54h-70z" />
<glyph unicode="&#xf9;" d="M92 232l14 66l64 32l62 -32l14 -66l-42 -56h-70zM92 332l14 66l64 32l62 -32l14 -66l-42 -56h-70zM92 432l14 66l64 32l62 -32l14 -66l-42 -56h-70zM92 532l14 66l64 32l62 -32l14 -66l-42 -56h-70zM92 632l14 66l64 32l62 -32l14 -66l-42 -56h-70zM106 138l16 68l62 30 l64 -30l14 -68l-42 -54h-70zM122 672l14 66l64 32l62 -32l14 -66l-42 -56h-70zM164 58l16 68l62 30l62 -30l16 -68l-44 -54h-68zM238 912l16 68l62 30l64 -30l14 -68l-42 -54h-70zM250 20l16 68l62 30l62 -30l16 -68l-44 -52h-68zM298 834l16 68l62 30l62 -30l16 -68 l-44 -54h-68zM348 12l16 68l62 30l62 -30l16 -68l-44 -52h-68zM356 752l16 68l62 30l62 -30l16 -68l-44 -54h-68zM414 670l14 68l64 30l62 -30l16 -68l-44 -54h-70zM444 28l16 68l62 30l62 -30l16 -68l-44 -52h-68zM486 626l14 66l64 32l62 -32l14 -66l-42 -54h-70zM532 82 l14 66l64 32l62 -32l14 -66l-42 -56h-70zM622 118l16 68l62 30l64 -30l14 -68l-42 -54h-70zM622 226l14 68l64 30l62 -30l16 -68l-44 -54h-70zM632 322l14 66l64 32l62 -32l14 -66l-42 -56h-70zM632 416l14 68l64 30l62 -30l14 -68l-42 -54h-70zM632 516l14 68l64 30l62 -30 l14 -68l-42 -54h-70zM632 616l14 68l64 30l62 -30l14 -68l-42 -54h-70zM640 26l16 68l62 30l62 -30l16 -68l-44 -52h-68zM662 682l14 66l64 32l62 -32l14 -66l-42 -56h-70z" />
<glyph unicode="&#xfa;" d="M92 232l14 66l64 32l62 -32l14 -66l-42 -56h-70zM92 332l14 66l64 32l62 -32l14 -66l-42 -56h-70zM92 432l14 66l64 32l62 -32l14 -66l-42 -56h-70zM92 532l14 66l64 32l62 -32l14 -66l-42 -56h-70zM92 632l14 66l64 32l62 -32l14 -66l-42 -56h-70zM106 138l16 68l62 30 l64 -30l14 -68l-42 -54h-70zM122 672l14 66l64 32l62 -32l14 -66l-42 -56h-70zM164 58l16 68l62 30l62 -30l16 -68l-44 -54h-68zM202 638l16 66l62 32l62 -32l16 -66l-44 -52h-68zM250 20l16 68l62 30l62 -30l16 -68l-44 -52h-68zM262 718l16 68l62 30l62 -30l16 -68 l-44 -54h-70zM322 798l14 68l64 30l62 -30l16 -68l-44 -54h-70zM348 12l16 68l62 30l62 -30l16 -68l-44 -52h-68zM382 880l14 66l64 30l62 -30l16 -66l-44 -56h-70zM444 28l16 68l62 30l62 -30l16 -68l-44 -52h-68zM446 912l16 68l62 30l64 -30l14 -68l-42 -54h-70zM532 82 l14 66l64 32l62 -32l14 -66l-42 -56h-70zM622 118l16 68l62 30l64 -30l14 -68l-42 -54h-70zM622 226l14 68l64 30l62 -30l16 -68l-44 -54h-70zM632 322l14 66l64 32l62 -32l14 -66l-42 -56h-70zM632 416l14 68l64 30l62 -30l14 -68l-42 -54h-70zM632 516l14 68l64 30l62 -30 l14 -68l-42 -54h-70zM632 616l14 68l64 30l62 -30l14 -68l-42 -54h-70zM640 26l16 68l62 30l62 -30l16 -68l-44 -52h-68zM662 682l14 66l64 32l62 -32l14 -66l-42 -56h-70z" />
<glyph unicode="&#xfb;" d="M92 232l14 66l64 32l62 -32l14 -66l-42 -56h-70zM92 332l14 66l64 32l62 -32l14 -66l-42 -56h-70zM92 432l14 66l64 32l62 -32l14 -66l-42 -56h-70zM92 532l14 66l64 32l62 -32l14 -66l-42 -56h-70zM92 632l14 66l64 32l62 -32l14 -66l-42 -56h-70zM106 138l16 68l62 30 l64 -30l14 -68l-42 -54h-70zM122 672l14 66l64 32l62 -32l14 -66l-42 -56h-70zM164 58l16 68l62 30l62 -30l16 -68l-44 -54h-68zM174 718l16 68l62 30l62 -30l16 -68l-44 -54h-70zM234 798l14 68l64 30l62 -30l16 -68l-44 -54h-70zM250 20l16 68l62 30l62 -30l16 -68 l-44 -52h-68zM294 880l14 66l64 30l62 -30l16 -66l-44 -56h-70zM348 12l16 68l62 30l62 -30l16 -68l-44 -52h-68zM358 912l16 68l62 30l64 -30l14 -68l-42 -54h-70zM418 834l16 68l62 30l62 -30l16 -68l-44 -54h-68zM444 28l16 68l62 30l62 -30l16 -68l-44 -52h-68zM476 752 l16 68l62 30l62 -30l16 -68l-44 -54h-68zM532 82l14 66l64 32l62 -32l14 -66l-42 -56h-70zM534 670l14 68l64 30l62 -30l16 -68l-44 -54h-70zM622 118l16 68l62 30l64 -30l14 -68l-42 -54h-70zM622 226l14 68l64 30l62 -30l16 -68l-44 -54h-70zM632 322l14 66l64 32l62 -32 l14 -66l-42 -56h-70zM632 416l14 68l64 30l62 -30l14 -68l-42 -54h-70zM632 516l14 68l64 30l62 -30l14 -68l-42 -54h-70zM632 616l14 68l64 30l62 -30l14 -68l-42 -54h-70zM640 26l16 68l62 30l62 -30l16 -68l-44 -52h-68zM662 682l14 66l64 32l62 -32l14 -66l-42 -56h-70z " />
<glyph unicode="&#xfc;" d="M72 856l16 68l62 30l64 -30l14 -68l-42 -54h-70zM92 232l14 66l64 32l62 -32l14 -66l-42 -56h-70zM92 332l14 66l64 32l62 -32l14 -66l-42 -56h-70zM92 432l14 66l64 32l62 -32l14 -66l-42 -56h-70zM92 532l14 66l64 32l62 -32l14 -66l-42 -56h-70zM92 632l14 66l64 32 l62 -32l14 -66l-42 -56h-70zM106 138l16 68l62 30l64 -30l14 -68l-42 -54h-70zM116 914l16 66l62 32l62 -32l16 -66l-44 -56h-68zM122 672l14 66l64 32l62 -32l14 -66l-42 -56h-70zM142 824l14 66l64 32l62 -32l14 -66l-42 -56h-70zM142 824l14 66l64 32l62 -32l14 -66 l-42 -56h-70zM164 58l16 68l62 30l62 -30l16 -68l-44 -54h-68zM250 20l16 68l62 30l62 -30l16 -68l-44 -52h-68zM348 12l16 68l62 30l62 -30l16 -68l-44 -52h-68zM444 28l16 68l62 30l62 -30l16 -68l-44 -52h-68zM488 856l16 68l62 30l64 -30l14 -68l-42 -54h-70zM532 82 l14 66l64 32l62 -32l14 -66l-42 -56h-70zM532 914l16 66l62 32l62 -32l16 -66l-44 -56h-68zM558 824l14 66l64 32l62 -32l14 -66l-42 -56h-70zM558 824l14 66l64 32l62 -32l14 -66l-42 -56h-70zM622 118l16 68l62 30l64 -30l14 -68l-42 -54h-70zM622 226l14 68l64 30l62 -30 l16 -68l-44 -54h-70zM632 322l14 66l64 32l62 -32l14 -66l-42 -56h-70zM632 416l14 68l64 30l62 -30l14 -68l-42 -54h-70zM632 516l14 68l64 30l62 -30l14 -68l-42 -54h-70zM632 616l14 68l64 30l62 -30l14 -68l-42 -54h-70zM640 26l16 68l62 30l62 -30l16 -68l-44 -52h-68z M662 682l14 66l64 32l62 -32l14 -66l-42 -56h-70z" />
<glyph unicode="&#xfd;" d="M-26 -246l14 66l62 30l62 -30l14 -66l-42 -56h-70zM32 682l14 66l64 32l62 -32l14 -66l-42 -56h-70zM40 612l16 68l62 30l62 -30l16 -68l-44 -54h-68zM42 -284l14 68l64 30l62 -30l16 -68l-44 -54h-70zM80 520l14 66l64 30l62 -30l16 -66l-44 -56h-70zM116 432l16 66 l62 30l62 -30l16 -66l-44 -56h-68zM136 -282l16 68l62 30l64 -30l14 -68l-42 -54h-70zM156 338l14 68l64 30l62 -30l16 -68l-44 -54h-70zM194 246l16 68l62 30l62 -30l16 -68l-44 -54h-68zM216 -232l16 68l62 30l64 -30l14 -68l-42 -54h-70zM222 638l16 66l62 32l62 -32 l16 -66l-44 -52h-68zM232 154l16 66l62 32l64 -32l14 -66l-42 -54h-70zM270 -144l14 66l64 30l62 -30l16 -66l-44 -56h-70zM272 60l16 68l62 30l62 -30l16 -68l-44 -54h-68zM282 718l16 68l62 30l62 -30l16 -68l-44 -54h-70zM306 -56l16 64l62 32l62 -32l16 -64l-44 -54h-68 zM342 798l14 68l64 30l62 -30l16 -68l-44 -54h-70zM344 34l16 68l62 30l62 -30l16 -68l-44 -52h-68zM382 126l16 68l62 30l62 -30l16 -68l-44 -54h-68zM402 880l14 66l64 30l62 -30l16 -66l-44 -56h-70zM420 218l16 68l62 30l62 -30l16 -68l-44 -54h-68zM458 312l16 66 l62 32l62 -32l16 -66l-42 -56h-70zM466 912l16 68l62 30l64 -30l14 -68l-42 -54h-70zM496 404l16 68l62 30l64 -30l14 -68l-42 -54h-70zM534 496l16 68l62 30l64 -30l14 -68l-42 -54h-70zM572 588l16 68l62 30l64 -30l14 -68l-42 -54h-70zM612 682l14 66l64 32l62 -32 l14 -66l-42 -56h-70z" />
<glyph unicode="&#xff;" d="M-26 -246l14 66l62 30l62 -30l14 -66l-42 -56h-70zM32 682l14 66l64 32l62 -32l14 -66l-42 -56h-70zM40 612l16 68l62 30l62 -30l16 -68l-44 -54h-68zM42 -284l14 68l64 30l62 -30l16 -68l-44 -54h-70zM72 856l16 68l62 30l64 -30l14 -68l-42 -54h-70zM80 520l14 66 l64 30l62 -30l16 -66l-44 -56h-70zM116 432l16 66l62 30l62 -30l16 -66l-44 -56h-68zM116 914l16 66l62 32l62 -32l16 -66l-44 -56h-68zM136 -282l16 68l62 30l64 -30l14 -68l-42 -54h-70zM142 824l14 66l64 32l62 -32l14 -66l-42 -56h-70zM142 824l14 66l64 32l62 -32 l14 -66l-42 -56h-70zM156 338l14 68l64 30l62 -30l16 -68l-44 -54h-70zM194 246l16 68l62 30l62 -30l16 -68l-44 -54h-68zM216 -232l16 68l62 30l64 -30l14 -68l-42 -54h-70zM232 154l16 66l62 32l64 -32l14 -66l-42 -54h-70zM270 -144l14 66l64 30l62 -30l16 -66l-44 -56 h-70zM272 60l16 68l62 30l62 -30l16 -68l-44 -54h-68zM306 -56l16 64l62 32l62 -32l16 -64l-44 -54h-68zM344 34l16 68l62 30l62 -30l16 -68l-44 -52h-68zM382 126l16 68l62 30l62 -30l16 -68l-44 -54h-68zM420 218l16 68l62 30l62 -30l16 -68l-44 -54h-68zM458 312l16 66 l62 32l62 -32l16 -66l-42 -56h-70zM488 856l16 68l62 30l64 -30l14 -68l-42 -54h-70zM496 404l16 68l62 30l64 -30l14 -68l-42 -54h-70zM532 914l16 66l62 32l62 -32l16 -66l-44 -56h-68zM534 496l16 68l62 30l64 -30l14 -68l-42 -54h-70zM558 824l14 66l64 32l62 -32 l14 -66l-42 -56h-70zM558 824l14 66l64 32l62 -32l14 -66l-42 -56h-70zM572 588l16 68l62 30l64 -30l14 -68l-42 -54h-70zM612 682l14 66l64 32l62 -32l14 -66l-42 -56h-70z" />
<glyph unicode="&#x152;" d="M62 426l16 68l62 30l62 -30l16 -68l-44 -54h-68zM62 522l16 68l62 30l64 -30l14 -68l-42 -54h-70zM74 328l16 68l62 30l64 -30l14 -68l-42 -54h-70zM76 620l16 68l62 30l62 -30l16 -68l-44 -54h-68zM104 234l16 66l62 30l64 -30l14 -66l-42 -56h-70zM106 714l16 66l62 32 l64 -32l14 -66l-42 -54h-70zM158 148l14 68l64 30l62 -30l14 -68l-42 -54h-70zM160 798l16 68l62 30l62 -30l16 -68l-44 -54h-68zM224 84l16 66l62 32l64 -32l14 -66l-42 -56h-70zM230 868l16 68l62 30l62 -30l16 -68l-42 -54h-70zM282 942l14 66l64 32l62 -32l14 -66 l-42 -56h-70zM282 942l14 66l64 32l62 -32l14 -66l-42 -56h-70zM314 38l14 66l64 30l62 -30l16 -66l-44 -54h-70zM346 942l16 66l62 32l62 -32l16 -66l-44 -56h-68zM412 14l16 68l62 30l64 -30l14 -68l-42 -52h-70zM414 938l16 68l62 30l62 -30l16 -68l-44 -54h-68zM476 942 l16 66l62 32l62 -32l16 -66l-44 -56h-68zM508 12l16 68l62 30l62 -30l16 -68l-42 -52h-70zM556 122l14 66l64 32l62 -32l14 -66l-42 -56h-70zM556 222l14 66l64 32l62 -32l14 -66l-42 -56h-70zM556 322l14 66l64 32l62 -32l14 -66l-42 -56h-70zM556 422l14 66l64 32l62 -32 l14 -66l-42 -56h-70zM556 522l14 66l64 32l62 -32l14 -66l-42 -56h-70zM556 622l14 66l64 32l62 -32l14 -66l-42 -56h-70zM556 722l14 66l64 32l62 -32l14 -66l-42 -56h-70zM556 822l14 66l64 32l62 -32l14 -66l-42 -56h-70zM556 922l14 66l64 32l62 -32l14 -66l-42 -56h-70 zM586 22l14 66l64 32l62 -32l14 -66l-42 -54h-70zM656 922l14 66l64 32l62 -32l14 -66l-42 -56h-70zM660 492l16 66l62 32l62 -32l16 -66l-44 -56h-68zM686 22l14 66l64 32l62 -32l14 -66l-42 -54h-70zM756 922l14 66l64 32l62 -32l14 -66l-42 -56h-70zM760 492l16 66l62 32 l62 -32l16 -66l-44 -56h-68zM786 22l14 66l64 32l62 -32l14 -66l-42 -54h-70zM856 922l14 66l64 32l62 -32l14 -66l-42 -56h-70zM860 492l16 66l62 32l62 -32l16 -66l-44 -56h-68zM886 22l14 66l64 32l62 -32l14 -66l-42 -54h-70zM956 922l14 66l64 32l62 -32l14 -66 l-42 -56h-70zM960 492l16 66l62 32l62 -32l16 -66l-44 -56h-68zM986 22l14 66l64 32l62 -32l14 -66l-42 -54h-70zM1036 472l14 66l64 32l62 -32l14 -66l-42 -56h-70zM1056 922l14 66l64 32l62 -32l14 -66l-42 -56h-70zM1086 22l14 66l64 32l62 -32l14 -66l-42 -54h-70z M1156 922l14 66l64 32l62 -32l14 -66l-42 -56h-70zM1186 22l14 66l64 32l62 -32l14 -66l-42 -54h-70z" />
<glyph unicode="&#x153;" d="M52 394l16 68l62 30l64 -30l14 -68l-42 -54h-70zM54 298l16 66l62 32l62 -32l16 -66l-44 -56h-68zM72 492l16 68l62 30l64 -30l14 -68l-42 -54h-70zM76 202l16 68l62 30l62 -30l16 -68l-44 -54h-68zM120 578l16 68l62 30l62 -30l16 -68l-44 -54h-68zM126 118l16 68l62 30 l62 -30l16 -68l-44 -54h-68zM186 646l16 68l62 30l64 -30l14 -68l-42 -54h-70zM200 52l14 68l64 30l62 -30l16 -68l-44 -52h-70zM222 702l14 66l64 32l62 -32l14 -66l-42 -56h-70zM290 18l14 68l64 30l62 -30l16 -68l-44 -52h-70zM328 702l16 66l62 32l64 -32l14 -66 l-42 -56h-70zM382 12l16 68l62 30l62 -30l16 -68l-44 -52h-68zM412 698l16 68l62 30l64 -30l14 -68l-42 -54h-70zM484 30l16 68l62 30l62 -30l16 -68l-44 -52h-68zM502 682l14 66l64 32l62 -32l14 -66l-42 -56h-70zM568 78l16 68l62 30l64 -30l14 -68l-42 -54h-70zM584 608 l16 68l62 30l64 -30l14 -68l-42 -54h-70zM590 330l14 66l64 30l62 -30l16 -66l-44 -56h-70zM604 228l16 68l62 30l64 -30l14 -68l-42 -54h-70zM616 516l16 68l62 30l64 -30l14 -68l-42 -54h-70zM622 448l16 68l62 30l62 -30l16 -68l-44 -54h-68zM648 138l16 68l62 30l62 -30 l16 -68l-44 -54h-70zM664 382l16 68l62 30l62 -30l16 -68l-44 -54h-68zM670 602l14 66l62 32l64 -32l14 -66l-42 -56h-70zM714 68l16 68l62 30l64 -30l14 -68l-42 -54h-70zM734 362l16 66l62 32l62 -32l16 -66l-44 -56h-68zM742 662l16 68l62 30l64 -30l14 -68l-42 -54h-70z M802 24l16 68l62 30l64 -30l14 -68l-42 -52h-70zM834 362l16 66l62 32l62 -32l16 -66l-44 -56h-68zM840 696l14 68l64 30l62 -30l16 -68l-44 -54h-70zM904 12l14 66l64 32l62 -32l16 -66l-44 -54h-70zM930 700l14 68l64 30l62 -30l16 -68l-44 -54h-70zM934 362l16 66l62 32 l62 -32l16 -66l-44 -56h-68zM998 20l14 68l64 30l62 -30l16 -68l-44 -52h-70zM1028 672l16 68l62 30l64 -30l14 -68l-42 -54h-70zM1034 362l16 66l62 32l62 -32l16 -66l-44 -56h-68zM1086 56l16 68l62 30l64 -30l14 -68l-42 -54h-70zM1106 614l16 68l62 30l62 -30l16 -68 l-44 -54h-68zM1134 362l16 66l62 32l62 -32l16 -66l-44 -56h-68zM1140 122l14 66l64 32l62 -32l14 -66l-42 -56h-70zM1144 396l16 68l62 30l62 -30l16 -68l-44 -54h-68zM1148 490l14 66l64 30l62 -30l16 -66l-44 -56h-70zM1162 536l16 68l62 30l62 -30l16 -68l-44 -54h-68z " />
<glyph unicode="&#x2000;" horiz-adv-x="682" />
<glyph unicode="&#x2001;" horiz-adv-x="1365" />
<glyph unicode="&#x2002;" horiz-adv-x="682" />
<glyph unicode="&#x2003;" horiz-adv-x="1365" />
<glyph unicode="&#x2004;" horiz-adv-x="455" />
<glyph unicode="&#x2005;" horiz-adv-x="341" />
<glyph unicode="&#x2006;" horiz-adv-x="227" />
<glyph unicode="&#x2007;" horiz-adv-x="227" />
<glyph unicode="&#x2008;" horiz-adv-x="170" />
<glyph unicode="&#x2009;" horiz-adv-x="273" />
<glyph unicode="&#x200a;" horiz-adv-x="75" />
<glyph unicode="&#x2010;" d="M272 482l14 66l64 32l62 -32l14 -66l-42 -54h-70zM372 482l14 66l64 32l62 -32l14 -66l-42 -54h-70zM472 482l14 66l64 32l62 -32l14 -66l-42 -54h-70zM572 482l14 66l64 32l62 -32l14 -66l-42 -54h-70zM672 482l14 66l64 32l62 -32l14 -66l-42 -54h-70z" />
<glyph unicode="&#x2011;" d="M272 482l14 66l64 32l62 -32l14 -66l-42 -54h-70zM372 482l14 66l64 32l62 -32l14 -66l-42 -54h-70zM472 482l14 66l64 32l62 -32l14 -66l-42 -54h-70zM572 482l14 66l64 32l62 -32l14 -66l-42 -54h-70zM672 482l14 66l64 32l62 -32l14 -66l-42 -54h-70z" />
<glyph unicode="&#x2012;" d="M272 482l14 66l64 32l62 -32l14 -66l-42 -54h-70zM372 482l14 66l64 32l62 -32l14 -66l-42 -54h-70zM472 482l14 66l64 32l62 -32l14 -66l-42 -54h-70zM572 482l14 66l64 32l62 -32l14 -66l-42 -54h-70zM672 482l14 66l64 32l62 -32l14 -66l-42 -54h-70z" />
<glyph unicode="&#x2013;" horiz-adv-x="1494" d="M272 482l26 66l118 32l115 -32l26 -66l-78 -54h-129zM457 482l26 66l118 32l115 -32l25 -66l-77 -54h-130zM642 482l26 66l118 32l114 -32l26 -66l-77 -54h-130zM827 482l25 66l119 32l114 -32l26 -66l-77 -54h-130zM1011 482l26 66l119 32l114 -32l26 -66l-78 -54h-129z " />
<glyph unicode="&#x2014;" horiz-adv-x="2518" d="M272 482l52 66l236 32l230 -32l51 -66l-155 -54h-259zM642 482l51 66l237 32l229 -32l52 -66l-155 -54h-259zM1011 482l52 66l237 32l229 -32l52 -66l-156 -54h-258zM1381 482l52 66l236 32l230 -32l51 -66l-155 -54h-259zM1751 482l51 66l237 32l229 -32l52 -66 l-155 -54h-259z" />
<glyph unicode="&#x202f;" horiz-adv-x="273" />
<glyph unicode="&#x205f;" horiz-adv-x="341" />
<glyph unicode="&#x25fc;" horiz-adv-x="780" d="M0 0v780h780v-780h-780z" />
</font>
</defs>
</svg>
